0
SECTION
2
HEADER
9
$INSUNITS
70
4
9
$ACADVER
1
AC1014
9
$HANDSEED
5
FFFF
0
ENDSEC
0
SECTION
2
TABLES
0
TABLE
2
VPORT
5
8
100
AcDbSymbolTable
0
ENDTAB
0
TABLE
2
LTYPE
5
5
100
AcDbSymbolTable
0
LTYPE
5
14
100
AcDbSymbolTableRecord
100
AcDbLinetypeTableRecord
2
BYBLOCK
70
0
0
LTYPE
5
15
100
AcDbSymbolTableRecord
100
AcDbLinetypeTableRecord
2
BYLAYER
70
0
0
LTYPE
5
16
100
AcDbSymbolTableRecord
100
AcDbLinetypeTableRecord
2
DASHED
70
0
3
Dashed __ __ __ __ __ __ __ __ __ __ __ __ __ _
72
65
73
2
40
0.75
49
0.5
74
0
49
-0.25
74
0
0
ENDTAB
0
TABLE
2
LAYER
5
2
100
AcDbSymbolTable
70
2
0
LAYER
5
50
100
AcDbSymbolTableRecord
100
AcDbLayerTableRecord
2
0
70
0
62
7
6
CONTINUOUS
0
ENDTAB
0
TABLE
2
STYLE
5
3
100
AcDbSymbolTable
70
1
0
STYLE
5
11
100
AcDbSymbolTableRecord
100
AcDbTextStyleTableRecord
2
STANDARD
70
0
0
ENDTAB
0
TABLE
2
VIEW
5
6
100
AcDbSymbolTable
70
0
0
ENDTAB
0
TABLE
2
UCS
5
7
100
AcDbSymbolTable
70
0
0
ENDTAB
0
TABLE
2
APPID
5
9
100
AcDbSymbolTable
70
2
0
APPID
5
12
100
AcDbSymbolTableRecord
100
AcDbRegAppTableRecord
2
ACAD
70
0
0
ENDTAB
0
TABLE
2
DIMSTYLE
5
A
100
AcDbSymbolTable
70
1
0
ENDTAB
0
TABLE
2
BLOCK_RECORD
5
1
100
AcDbSymbolTable
70
1
0
BLOCK_RECORD
5
1F
100
AcDbSymbolTableRecord
100
AcDbBlockTableRecord
2
*MODEL_SPACE
0
BLOCK_RECORD
5
1B
100
AcDbSymbolTableRecord
100
AcDbBlockTableRecord
2
*PAPER_SPACE
0
ENDTAB
0
ENDSEC
0
SECTION
2
BLOCKS
0
BLOCK
5
20
100
AcDbEntity
100
AcDbBlockBegin
2
*MODEL_SPACE
0
ENDBLK
5
21
100
AcDbEntity
100
AcDbBlockEnd
0
BLOCK
5
1C
100
AcDbEntity
100
AcDbBlockBegin
2
*PAPER_SPACE
0
ENDBLK
5
1D
100
AcDbEntity
100
AcDbBlockEnd
0
ENDSEC
0
SECTION
2
ENTITIES
0
LWPOLYLINE
5
100
100
AcDbEntity
8
0
100
AcDbPolyline
90
37
70
1
43
0.0
10
-535
20
-280.00000000000011
10
-535
20
-370.00000000000011
10
-575.32120070106976
20
-343.73714896865192
10
-608.4731277368063
20
-394.63510753528232
10
-610
20
-395.14705882352956
10
-610
20
-1010.0000000000001
10
-250
20
-1220.0000000000002
10
0
20
-1160.0000000000002
10
250
20
-1220.0000000000002
10
610
20
-1010.0000000000001
10
610
20
-395.14705882352956
10
608.4731277368063
20
-394.63510753528232
10
575.32120070106976
20
-343.73714896865192
10
535
20
-370.00000000000011
10
535
20
-280.00000000000011
10
561.05363984674329
20
-320.00000000000011
10
609.99999999999955
20
-320.00000000000023
10
609.99999999999955
20
519.99999999999977
10
559.41314553990594
20
519.99999999999989
10
535
20
479.99999999999989
10
535
20
570.00000000000023
10
574.16794066221678
20
546.09468410287275
10
608.40040017742785
20
602.18325238548789
10
610
20
602.88461538461559
10
609.99999999999955
20
1120.0000000000002
10
250
20
1220.0000000000002
10
-250
20
1220.0000000000002
10
-609.99999999999955
20
1120.0000000000002
10
-610
20
602.88461538461559
10
-608.40040017742785
20
602.18325238548789
10
-574.16794066221678
20
546.09468410287275
10
-535
20
570.00000000000023
10
-535
20
479.99999999999989
10
-559.41314553990594
20
519.99999999999989
10
-609.99999999999955
20
519.99999999999989
10
-609.99999999999955
20
-320.00000000000011
10
-561.05363984674329
20
-320.00000000000011
0
LINE
5
101
100
AcDbEntity
8
0
100
AcDbLine
10
-250
20
-1220.0000000000002
30
0
11
-535
21
-370.00000000000011
31
0
0
LINE
5
102
100
AcDbEntity
8
0
100
AcDbLine
10
250
20
-1220.0000000000002
30
0
11
-300
21
-320.00000000000011
31
0
0
LINE
5
103
100
AcDbEntity
8
0
100
AcDbLine
10
-300
20
-320.00000000000011
30
0
11
-535
21
-320.00000000000011
31
0
0
LINE
5
104
100
AcDbEntity
8
0
100
AcDbLine
10
-250
20
1220.0000000000002
30
0
11
300
21
519.99999999999989
31
0
0
LINE
5
105
100
AcDbEntity
8
0
100
AcDbLine
10
-300
20
519.99999999999989
30
0
11
250
21
1220.0000000000002
31
0
0
LINE
5
106
100
AcDbEntity
8
0
100
AcDbLine
10
-300
20
519.99999999999989
30
0
11
-250
21
1220.0000000000002
31
0
0
LINE
5
107
100
AcDbEntity
8
0
100
AcDbLine
10
-300
20
-320.00000000000011
30
0
11
-300
21
519.99999999999989
31
0
0
LINE
5
108
100
AcDbEntity
8
0
100
AcDbLine
10
-250
20
-1220.0000000000002
30
0
11
300
21
-320.00000000000011
31
0
6
DASHED
0
LINE
5
109
100
AcDbEntity
8
0
100
AcDbLine
10
-300
20
519.99999999999989
30
0
11
-535
21
479.99999999999989
31
0
0
LINE
5
110
100
AcDbEntity
8
0
100
AcDbLine
10
-300
20
519.99999999999989
30
0
11
-535
21
519.99999999999989
31
0
0
LINE
5
111
100
AcDbEntity
8
0
100
AcDbLine
10
-300
20
-320.00000000000011
30
0
11
-535
21
-280.00000000000011
31
0
0
LINE
5
112
100
AcDbEntity
8
0
100
AcDbLine
10
-250
20
1220.0000000000002
30
0
11
-535
21
570.00000000000023
31
0
0
LINE
5
113
100
AcDbEntity
8
0
100
AcDbLine
10
610
20
-841.66666666666674
30
0
11
-610
21
-841.66666666666674
31
0
0
LINE
5
114
100
AcDbEntity
8
0
100
AcDbLine
10
610
20
-443.33333333333343
30
0
11
-610
21
-443.33333333333144
31
0
0
LINE
5
115
100
AcDbEntity
8
0
100
AcDbLine
10
610
20
-25.000000000000036
30
0
11
-610
21
-24.999999999999964
31
0
0
LINE
5
116
100
AcDbEntity
8
0
100
AcDbLine
10
610
20
25.000000000000036
30
0
11
-610
21
24.999999999999964
31
0
0
LINE
5
117
100
AcDbEntity
8
0
100
AcDbLine
10
610
20
443.33333333333343
30
0
11
-610
21
443.33333333333144
31
0
0
LINE
5
118
100
AcDbEntity
8
0
100
AcDbLine
10
610
20
841.66666666666674
30
0
11
-610
21
841.66666666666674
31
0
0
LINE
5
119
100
AcDbEntity
8
0
100
AcDbLine
10
0
20
-1160.0000000000002
30
0
11
0
21
1220.0000000000002
31
0
0
LINE
5
120
100
AcDbEntity
8
0
100
AcDbLine
10
250
20
-1220.0000000000002
30
0
11
535
21
-370.00000000000011
31
0
0
LWPOLYLINE
5
121
100
AcDbEntity
8
0
100
AcDbPolyline
90
4
70
1
43
0.0
10
300
20
-320.00000000000011
10
300
20
519.99999999999989
10
535
20
479.99999999999989
10
535
20
-280.00000000000011
0
LINE
5
122
100
AcDbEntity
8
0
100
AcDbLine
10
300
20
-320.00000000000011
30
0
11
535
21
-320.00000000000011
31
0
0
LINE
5
123
100
AcDbEntity
8
0
100
AcDbLine
10
300
20
519.99999999999989
30
0
11
535
21
519.99999999999989
31
0
0
LINE
5
124
100
AcDbEntity
8
0
100
AcDbLine
10
300
20
519.99999999999989
30
0
11
250
21
1220.0000000000002
31
0
0
LINE
5
125
100
AcDbEntity
8
0
100
AcDbLine
10
250
20
1220.0000000000002
30
0
11
535
21
570.00000000000045
31
0
0
LINE
5
126
100
AcDbEntity
8
0
100
AcDbLine
10
-535
20
479.99999999999989
30
0
11
-535
21
-280.00000000000011
31
0
0
LINE
5
127
100
AcDbEntity
8
0
100
AcDbLine
10
300
20
-320.00000000000011
30
0
11
250
21
-1220.0000000000002
31
0
0
LINE
5
128
100
AcDbEntity
8
0
100
AcDbLine
10
-300
20
-320.00000000000011
30
0
11
-250
21
-1220.0000000000002
31
0
0
ENDSEC
0
SECTION
2
OBJECTS
0
DICTIONARY
5
C
100
AcDbDictionary
3
ACAD_GROUP
350
D
3
ACAD_MLINESTYLE
350
17
0
DICTIONARY
5
D
100
AcDbDictionary
0
DICTIONARY
5
1A
330
C
100
AcDbDictionary
0
DICTIONARY
5
17
100
AcDbDictionary
0
ENDSEC
0
EOF
