  0
SECTION
  2
HEADER
  9
$ACADVER
  1
AC1009
  9
$DWGCODEPAGE
  3
ansi_1252
  9
$INSBASE
 10
0.0
 20
0.0
 30
0.0
  9
$EXTMIN
 10
3.23767622999999
 20
3.034616538000167
 30
0.0
  9
$EXTMAX
 10
2435.000000000001
 20
1215.0
 30
0.0
  9
$LIMMIN
 10
0.0
 20
0.0
  9
$LIMMAX
 10
12.0
 20
9.0
  9
$ORTHOMODE
 70
     0
  9
$REGENMODE
 70
     1
  9
$FILLMODE
 70
     1
  9
$QTEXTMODE
 70
     0
  9
$MIRRTEXT
 70
     0
  9
$DRAGMODE
 70
     2
  9
$LTSCALE
 40
1.0
  9
$OSMODE
 70
    37
  9
$ATTMODE
 70
     1
  9
$TEXTSIZE
 40
0.2
  9
$TRACEWID
 40
0.05
  9
$TEXTSTYLE
  7
STANDARD
  9
$CLAYER
  8
0
  9
$CELTYPE
  6
BYLAYER
  9
$CECOLOR
 62
   256
  9
$DIMSCALE
 40
1.0
  9
$DIMASZ
 40
0.18
  9
$DIMEXO
 40
0.0625
  9
$DIMDLI
 40
0.38
  9
$DIMRND
 40
0.0
  9
$DIMDLE
 40
0.0
  9
$DIMEXE
 40
0.18
  9
$DIMTP
 40
0.0
  9
$DIMTM
 40
0.0
  9
$DIMTXT
 40
0.18
  9
$DIMCEN
 40
0.09
  9
$DIMTSZ
 40
0.0
  9
$DIMTOL
 70
     0
  9
$DIMLIM
 70
     0
  9
$DIMTIH
 70
     1
  9
$DIMTOH
 70
     1
  9
$DIMSE1
 70
     0
  9
$DIMSE2
 70
     0
  9
$DIMTAD
 70
     0
  9
$DIMZIN
 70
     0
  9
$DIMBLK
  1

  9
$DIMASO
 70
     1
  9
$DIMSHO
 70
     1
  9
$DIMPOST
  1

  9
$DIMAPOST
  1

  9
$DIMALT
 70
     0
  9
$DIMALTD
 70
     2
  9
$DIMALTF
 40
25.4
  9
$DIMLFAC
 40
1.0
  9
$DIMTOFL
 70
     0
  9
$DIMTVP
 40
0.0
  9
$DIMTIX
 70
     0
  9
$DIMSOXD
 70
     0
  9
$DIMSAH
 70
     0
  9
$DIMBLK1
  1

  9
$DIMBLK2
  1

  9
$DIMSTYLE
  2
STANDARD_ACAD
  9
$DIMCLRD
 70
     0
  9
$DIMCLRE
 70
     0
  9
$DIMCLRT
 70
     0
  9
$DIMTFAC
 40
1.0
  9
$DIMGAP
 40
0.09
  9
$LUNITS
 70
     2
  9
$LUPREC
 70
     3
  9
$SKETCHINC
 40
0.1
  9
$FILLETRAD
 40
0.0
  9
$AUNITS
 70
     0
  9
$AUPREC
 70
     0
  9
$MENU
  1
.
  9
$ELEVATION
 40
0.0
  9
$PELEVATION
 40
0.0
  9
$THICKNESS
 40
0.0
  9
$LIMCHECK
 70
     0
  9
$CHAMFERA
 40
0.0
  9
$CHAMFERB
 40
0.0
  9
$SKPOLY
 70
     0
  9
$TDCREATE
 40
2461213.621926621
  9
$TDUPDATE
 40
2461213.621939989
  9
$TDINDWG
 40
0.0000000116
  9
$TDUSRTIMER
 40
0.0000000116
  9
$USRTIMER
 70
     1
  9
$ANGBASE
 50
0.0
  9
$ANGDIR
 70
     0
  9
$PDMODE
 70
     0
  9
$PDSIZE
 40
0.0
  9
$PLINEWID
 40
0.0
  9
$COORDS
 70
     1
  9
$SPLFRAME
 70
     0
  9
$SPLINETYPE
 70
     6
  9
$SPLINESEGS
 70
     8
  9
$ATTDIA
 70
     1
  9
$ATTREQ
 70
     1
  9
$HANDLING
 70
     1
  9
$HANDSEED
  5
130
  9
$SURFTAB1
 70
     6
  9
$SURFTAB2
 70
     6
  9
$SURFTYPE
 70
     6
  9
$SURFU
 70
     6
  9
$SURFV
 70
     6
  9
$UCSNAME
  2

  9
$UCSORG
 10
0.0
 20
0.0
 30
0.0
  9
$UCSXDIR
 10
1.0
 20
0.0
 30
0.0
  9
$UCSYDIR
 10
0.0
 20
1.0
 30
0.0
  9
$PUCSNAME
  2

  9
$PUCSORG
 10
0.0
 20
0.0
 30
0.0
  9
$PUCSXDIR
 10
1.0
 20
0.0
 30
0.0
  9
$PUCSYDIR
 10
0.0
 20
1.0
 30
0.0
  9
$USERI1
 70
     0
  9
$USERI2
 70
     0
  9
$USERI3
 70
     0
  9
$USERI4
 70
     0
  9
$USERI5
 70
     0
  9
$USERR1
 40
0.0
  9
$USERR2
 40
0.0
  9
$USERR3
 40
0.0
  9
$USERR4
 40
0.0
  9
$USERR5
 40
0.0
  9
$WORLDVIEW
 70
     1
  9
$SHADEDGE
 70
     3
  9
$SHADEDIF
 70
    70
  9
$TILEMODE
 70
     1
  9
$MAXACTVP
 70
    64
  9
$PLIMCHECK
 70
     0
  9
$PEXTMIN
 10
1.000000000000000E+20
 20
1.000000000000000E+20
 30
1.000000000000000E+20
  9
$PEXTMAX
 10
-1.000000000000000E+20
 20
-1.000000000000000E+20
 30
-1.000000000000000E+20
  9
$PLIMMIN
 10
0.0
 20
0.0
  9
$PLIMMAX
 10
12.0
 20
9.0
  9
$UNITMODE
 70
     0
  9
$VISRETAIN
 70
     1
  9
$PLINEGEN
 70
     0
  9
$PSLTSCALE
 70
     1
  0
ENDSEC
  0
SECTION
  2
TABLES
  0
TABLE
  2
VPORT
 70
     1
  0
VPORT
  2
*ACTIVE
 70
     0
 10
0.0
 20
0.0
 11
1.0
 21
1.0
 12
10.42990654205607
 22
4.5
 13
0.0
 23
0.0
 14
0.5
 24
0.5
 15
0.5
 25
0.5
 16
0.0
 26
0.0
 36
1.0
 17
0.0
 27
0.0
 37
0.0
 40
9.0
 41
1.972972972850329
 42
50.0
 43
0.0
 44
0.0
 50
0.0
 51
0.0
 71
     0
 72
   100
 73
     1
 74
     3
 75
     0
 76
     0
 77
     0
 78
     0
  0
ENDTAB
  0
TABLE
  2
LTYPE
 70
     1
  0
LTYPE
  2
CONTINUOUS
 70
     0
  3
Solid line
 72
    65
 73
     0
 40
0.0
  0
ENDTAB
  0
TABLE
  2
LAYER
 70
     2
  0
LAYER
  2
0
 70
     0
 62
     7
  6
CONTINUOUS
  0
LAYER
  2
JAKOBS_VECTORS_-_TRIMMED_W
 70
     0
 62
     7
  6
CONTINUOUS
  0
ENDTAB
  0
TABLE
  2
STYLE
 70
     1
  0
STYLE
  2
STANDARD
 70
     0
 40
0.0
 41
1.0
 50
0.0
 71
     0
 42
0.2
  3
txt
  4

  0
ENDTAB
  0
TABLE
  2
VIEW
 70
     0
  0
ENDTAB
  0
TABLE
  2
UCS
 70
     0
  0
ENDTAB
  0
TABLE
  2
APPID
 70
     2
  0
APPID
  2
ACAD
 70
     0
  0
APPID
  2
RHINO
 70
     0
  0
ENDTAB
  0
TABLE
  2
DIMSTYLE
 70
     1
  0
DIMSTYLE
  2
STANDARD_ACAD
 70
     0
  3

  4

  5

  6

  7

 40
1.0
 41
0.18
 42
0.0625
 43
0.38
 44
0.18
 45
0.0
 46
0.0
 47
0.0
 48
0.0
140
0.18
141
0.09
142
0.0
143
25.4
144
1.0
145
0.0
146
1.0
147
0.09
 71
     0
 72
     0
 73
     1
 74
     1
 75
     0
 76
     0
 77
     0
 78
     0
170
     0
171
     2
172
     0
173
     0
174
     0
175
     0
176
     0
177
     0
178
     0
  0
ENDTAB
  0
ENDSEC
  0
SECTION
  2
BLOCKS
  0
BLOCK
  8
0
  2
$MODEL_SPACE
 70
     0
 10
0.0
 20
0.0
 30
0.0
  3
$MODEL_SPACE
  1

  0
ENDBLK
  5
21
  8
0
  0
BLOCK
 67
     1
  8
0
  2
$PAPER_SPACE
 70
     0
 10
0.0
 20
0.0
 30
0.0
  3
$PAPER_SPACE
  1

  0
ENDBLK
  5
1D
 67
     1
  8
0
  0
ENDSEC
  0
SECTION
  2
ENTITIES
  0
LINE
  5
60
  8
JAKOBS_VECTORS_-_TRIMMED_W
 10
2419.884005083968
 20
617.0710678118656
 30
0.0
 11
2405.741869460237
 21
602.9289321881347
 31
0.0
  0
LINE
  5
61
  8
JAKOBS_VECTORS_-_TRIMMED_W
 10
2419.884005083968
 20
602.9289321881347
 30
0.0
 11
2405.741869460237
 21
617.0710678118656
 31
0.0
  0
LINE
  5
62
  8
JAKOBS_VECTORS_-_TRIMMED_W
 10
378.3333333333335
 20
3.121387859999933
 30
0.0
 11
378.3333333333335
 21
1215.0
 31
0.0
  0
LINE
  5
63
  8
JAKOBS_VECTORS_-_TRIMMED_W
 10
776.6666666666688
 20
4.999999999999976
 30
0.0
 11
776.6666666666667
 21
1215.0
 31
0.0
  0
POLYLINE
  5
64
  8
JAKOBS_VECTORS_-_TRIMMED_W
 66
     1
 10
0.0
 20
0.0
 30
0.0
  0
VERTEX
  5
65
  8
JAKOBS_VECTORS_-_TRIMMED_W
 10
623.3881725206055
 20
1215.0
 30
0.0
  0
VERTEX
  5
66
  8
JAKOBS_VECTORS_-_TRIMMED_W
 10
673.9053158971274
 20
1184.167940662217
 30
0.0
  0
VERTEX
  5
67
  8
JAKOBS_VECTORS_-_TRIMMED_W
 10
650.0056737375235
 20
1145.009296200712
 30
0.0
  0
SEQEND
  5
68
  8
JAKOBS_VECTORS_-_TRIMMED_W
  0
POLYLINE
  5
69
  8
JAKOBS_VECTORS_-_TRIMMED_W
 66
     1
 10
0.0
 20
0.0
 30
0.0
  0
VERTEX
  5
6A
  8
JAKOBS_VECTORS_-_TRIMMED_W
 10
739.9919388928269
 20
1145.004919924566
 30
0.0
  0
VERTEX
  5
6B
  8
JAKOBS_VECTORS_-_TRIMMED_W
 10
700.0000000000005
 20
1169.413145539906
 30
0.0
  0
VERTEX
  5
6C
  8
JAKOBS_VECTORS_-_TRIMMED_W
 10
700.0000000000005
 20
1215.0
 30
0.0
  0
SEQEND
  5
6D
  8
JAKOBS_VECTORS_-_TRIMMED_W
  0
LINE
  5
6E
  8
JAKOBS_VECTORS_-_TRIMMED_W
 10
1195.0
 20
4.999999999999978
 30
0.0
 11
1195.0
 21
1215.0
 31
0.0
  0
LINE
  5
6F
  8
JAKOBS_VECTORS_-_TRIMMED_W
 10
1245.0
 20
4.999999999999979
 30
0.0
 11
1245.0
 21
1215.0
 31
0.0
  0
POLYLINE
  5
70
  8
JAKOBS_VECTORS_-_TRIMMED_W
 66
     1
 10
0.0
 20
0.0
 30
0.0
  0
VERTEX
  5
71
  8
JAKOBS_VECTORS_-_TRIMMED_W
 10
1540.000000000001
 20
1215.0
 30
0.0
  0
VERTEX
  5
72
  8
JAKOBS_VECTORS_-_TRIMMED_W
 10
1540.0
 20
1171.053639846744
 30
0.0
  0
VERTEX
  5
73
  8
JAKOBS_VECTORS_-_TRIMMED_W
 10
1500.0
 20
1145.0
 30
0.0
  0
VERTEX
  5
74
  8
JAKOBS_VECTORS_-_TRIMMED_W
 10
1590.0
 20
1145.0
 30
0.0
  0
VERTEX
  5
75
  8
JAKOBS_VECTORS_-_TRIMMED_W
 10
2435.0
 20
861.6764705882352
 30
0.0
  0
SEQEND
  5
76
  8
JAKOBS_VECTORS_-_TRIMMED_W
  0
LINE
  5
77
  8
JAKOBS_VECTORS_-_TRIMMED_W
 10
1663.333333333332
 20
4.999999999999982
 30
0.0
 11
1663.333333333334
 21
1215.0
 31
0.0
  0
POLYLINE
  5
78
  8
JAKOBS_VECTORS_-_TRIMMED_W
 66
     1
 10
0.0
 20
0.0
 30
0.0
  0
VERTEX
  5
79
  8
JAKOBS_VECTORS_-_TRIMMED_W
 10
1589.994206414384
 20
1145.008894857917
 30
0.0
  0
VERTEX
  5
7A
  8
JAKOBS_VECTORS_-_TRIMMED_W
 10
1563.737148968652
 20
1185.32120070107
 30
0.0
  0
VERTEX
  5
7B
  8
JAKOBS_VECTORS_-_TRIMMED_W
 10
1609.302834951127
 20
1215.0
 30
0.0
  0
SEQEND
  5
7C
  8
JAKOBS_VECTORS_-_TRIMMED_W
  0
LINE
  5
7D
  8
JAKOBS_VECTORS_-_TRIMMED_W
 10
2061.666666666667
 20
4.999999999999986
 30
0.0
 11
2061.666666666667
 21
1215.0
 31
0.0
  0
LINE
  5
7E
  8
JAKOBS_VECTORS_-_TRIMMED_W
 10
2232.916666666667
 20
1215.0
 30
0.0
 11
2435.0
 21
868.5714285714299
 31
0.0
  0
POLYLINE
  5
7F
  8
JAKOBS_VECTORS_-_TRIMMED_W
 66
     1
 10
0.0
 20
0.0
 30
0.0
  0
VERTEX
  5
80
  8
JAKOBS_VECTORS_-_TRIMMED_W
 10
2435.0
 20
839.1666666666665
 30
0.0
  0
VERTEX
  5
81
  8
JAKOBS_VECTORS_-_TRIMMED_W
 10
2380.000000000001
 20
610.0000000000001
 30
0.0
  0
VERTEX
  5
82
  8
JAKOBS_VECTORS_-_TRIMMED_W
 10
2435.000000000001
 20
380.833333333334
 30
0.0
  0
SEQEND
  5
83
  8
JAKOBS_VECTORS_-_TRIMMED_W
  0
POLYLINE
  5
84
  8
JAKOBS_VECTORS_-_TRIMMED_W
 66
     1
 10
0.0
 20
0.0
 30
0.0
  0
VERTEX
  5
85
  8
JAKOBS_VECTORS_-_TRIMMED_W
 10
2435.0
 20
359.7222222222223
 30
0.0
  0
VERTEX
  5
86
  8
JAKOBS_VECTORS_-_TRIMMED_W
 10
1540.000000000001
 20
310.0
 30
0.0
  0
VERTEX
  5
87
  8
JAKOBS_VECTORS_-_TRIMMED_W
 10
2435.0
 20
856.944444444444
 30
0.0
  0
SEQEND
  5
88
  8
JAKOBS_VECTORS_-_TRIMMED_W
  0
POLYLINE
  5
89
  8
JAKOBS_VECTORS_-_TRIMMED_W
 66
     1
 10
0.0
 20
0.0
 30
0.0
  0
VERTEX
  5
8A
  8
JAKOBS_VECTORS_-_TRIMMED_W
 10
4.999999999999964
 20
860.3571428571429
 30
0.0
  0
VERTEX
  5
8B
  8
JAKOBS_VECTORS_-_TRIMMED_W
 10
700.0000000000005
 20
910.0
 30
0.0
  0
VERTEX
  5
8C
  8
JAKOBS_VECTORS_-_TRIMMED_W
 10
1540.000000000001
 20
910.0
 30
0.0
  0
VERTEX
  5
8D
  8
JAKOBS_VECTORS_-_TRIMMED_W
 10
2435.0
 20
860.2777777777778
 30
0.0
  0
SEQEND
  5
8E
  8
JAKOBS_VECTORS_-_TRIMMED_W
  0
LINE
  5
8F
  8
JAKOBS_VECTORS_-_TRIMMED_W
 10
2435.0
 20
351.4285714285699
 30
0.0
 11
2232.916666666668
 21
4.999999999999968
 31
0.0
  0
POLYLINE
  5
90
  8
JAKOBS_VECTORS_-_TRIMMED_W
 66
     1
 10
0.0
 20
0.0
 30
0.0
  0
VERTEX
  5
91
  8
JAKOBS_VECTORS_-_TRIMMED_W
 10
2435.000000000001
 20
358.3235294117648
 30
0.0
  0
VERTEX
  5
92
  8
JAKOBS_VECTORS_-_TRIMMED_W
 10
1590.000000000001
 20
75.0
 30
0.0
  0
VERTEX
  5
93
  8
JAKOBS_VECTORS_-_TRIMMED_W
 10
650.1833342968214
 20
75.0
 30
0.0
  0
SEQEND
  5
94
  8
JAKOBS_VECTORS_-_TRIMMED_W
  0
POLYLINE
  5
95
  8
JAKOBS_VECTORS_-_TRIMMED_W
 66
     1
 10
0.0
 20
0.0
 30
0.0
  0
VERTEX
  5
96
  8
JAKOBS_VECTORS_-_TRIMMED_W
 10
1540.0
 20
1144.871389330523
 30
0.0
  0
VERTEX
  5
97
  8
JAKOBS_VECTORS_-_TRIMMED_W
 10
1540.000000000001
 20
910.0
 30
0.0
  0
VERTEX
  5
98
  8
JAKOBS_VECTORS_-_TRIMMED_W
 10
2435.0
 20
363.0555555555559
 30
0.0
  0
SEQEND
  5
99
  8
JAKOBS_VECTORS_-_TRIMMED_W
  0
POLYLINE
  5
9A
  8
JAKOBS_VECTORS_-_TRIMMED_W
 66
     1
 10
0.0
 20
0.0
 30
0.0
  0
VERTEX
  5
9B
  8
JAKOBS_VECTORS_-_TRIMMED_W
 10
1609.302834951127
 20
4.999999999999981
 30
0.0
  0
VERTEX
  5
9C
  8
JAKOBS_VECTORS_-_TRIMMED_W
 10
1563.737148968652
 20
34.67879929893024
 30
0.0
  0
VERTEX
  5
9D
  8
JAKOBS_VECTORS_-_TRIMMED_W
 10
1589.994205834968
 20
74.99110425250812
 30
0.0
  0
SEQEND
  5
9E
  8
JAKOBS_VECTORS_-_TRIMMED_W
  0
POLYLINE
  5
9F
  8
JAKOBS_VECTORS_-_TRIMMED_W
 66
     1
 10
0.0
 20
0.0
 30
0.0
  0
VERTEX
  5
A0
  8
JAKOBS_VECTORS_-_TRIMMED_W
 10
1500.007849197424
 20
74.99488749593148
 30
0.0
  0
VERTEX
  5
A1
  8
JAKOBS_VECTORS_-_TRIMMED_W
 10
1540.000000000001
 20
48.94636015325671
 30
0.0
  0
VERTEX
  5
A2
  8
JAKOBS_VECTORS_-_TRIMMED_W
 10
1540.000000000001
 20
4.999999999999981
 30
0.0
  0
SEQEND
  5
A3
  8
JAKOBS_VECTORS_-_TRIMMED_W
  0
POLYLINE
  5
A4
  8
JAKOBS_VECTORS_-_TRIMMED_W
 66
     1
 10
0.0
 20
0.0
 30
0.0
  0
VERTEX
  5
A5
  8
JAKOBS_VECTORS_-_TRIMMED_W
 10
4.99999999999997
 20
357.8076923076922
 30
0.0
  0
VERTEX
  5
A6
  8
JAKOBS_VECTORS_-_TRIMMED_W
 10
650.0
 20
75.0
 30
0.0
  0
VERTEX
  5
A7
  8
JAKOBS_VECTORS_-_TRIMMED_W
 10
673.9053158971274
 20
35.83205933778322
 30
0.0
  0
VERTEX
  5
A8
  8
JAKOBS_VECTORS_-_TRIMMED_W
 10
623.3881725206053
 20
4.999999999999817
 30
0.0
  0
SEQEND
  5
A9
  8
JAKOBS_VECTORS_-_TRIMMED_W
  0
POLYLINE
  5
AA
  8
JAKOBS_VECTORS_-_TRIMMED_W
 66
     1
 10
0.0
 20
0.0
 30
0.0
  0
VERTEX
  5
AB
  8
JAKOBS_VECTORS_-_TRIMMED_W
 10
700.0000000000005
 20
4.999999999999975
 30
0.0
  0
VERTEX
  5
AC
  8
JAKOBS_VECTORS_-_TRIMMED_W
 10
700.0000000000005
 20
50.58685446009406
 30
0.0
  0
VERTEX
  5
AD
  8
JAKOBS_VECTORS_-_TRIMMED_W
 10
739.9919380866357
 20
74.99507958339245
 30
0.0
  0
SEQEND
  5
AE
  8
JAKOBS_VECTORS_-_TRIMMED_W
  0
POLYLINE
  5
AF
  8
JAKOBS_VECTORS_-_TRIMMED_W
 66
     1
 10
0.0
 20
0.0
 30
0.0
  0
VERTEX
  5
B0
  8
JAKOBS_VECTORS_-_TRIMMED_W
 10
4.999999999999969
 20
359.6428571428571
 30
0.0
  0
VERTEX
  5
B1
  8
JAKOBS_VECTORS_-_TRIMMED_W
 10
700.0000000000005
 20
309.9999999999999
 30
0.0
  0
VERTEX
  5
B2
  8
JAKOBS_VECTORS_-_TRIMMED_W
 10
4.99999999999997
 20
856.0714285714286
 30
0.0
  0
SEQEND
  5
B3
  8
JAKOBS_VECTORS_-_TRIMMED_W
  0
POLYLINE
  5
B4
  8
JAKOBS_VECTORS_-_TRIMMED_W
 66
     1
 10
0.0
 20
0.0
 30
0.0
  0
VERTEX
  5
B5
  8
JAKOBS_VECTORS_-_TRIMMED_W
 10
700.0000000000005
 20
1144.887870269888
 30
0.0
  0
VERTEX
  5
B6
  8
JAKOBS_VECTORS_-_TRIMMED_W
 10
700.0000000000005
 20
910.0
 30
0.0
  0
VERTEX
  5
B7
  8
JAKOBS_VECTORS_-_TRIMMED_W
 10
4.999999999999885
 20
363.9285714285713
 30
0.0
  0
SEQEND
  5
B8
  8
JAKOBS_VECTORS_-_TRIMMED_W
  0
LINE
  5
B9
  8
JAKOBS_VECTORS_-_TRIMMED_W
 10
99.15705096166671
 20
3.034616538000167
 30
0.0
 11
4.999999999999768
 21
342.0000000000008
 31
0.0
  0
POLYLINE
  5
BA
  8
JAKOBS_VECTORS_-_TRIMMED_W
 66
     1
 10
0.0
 20
0.0
 30
0.0
  0
VERTEX
  5
BB
  8
JAKOBS_VECTORS_-_TRIMMED_W
 10
1499.844369548366
 20
1145.0
 30
0.0
  0
VERTEX
  5
BC
  8
JAKOBS_VECTORS_-_TRIMMED_W
 10
649.9999999999999
 20
1145.0
 30
0.0
  0
VERTEX
  5
BD
  8
JAKOBS_VECTORS_-_TRIMMED_W
 10
5.000000000000037
 20
862.1923076923076
 30
0.0
  0
SEQEND
  5
BE
  8
JAKOBS_VECTORS_-_TRIMMED_W
  0
LINE
  5
BF
  8
JAKOBS_VECTORS_-_TRIMMED_W
 10
4.99999999999997
 20
877.9999999999999
 30
0.0
 11
98.61111111111121
 21
1215.0
 31
0.0
  0
LINE
  5
C0
  8
JAKOBS_VECTORS_-_TRIMMED_W
 10
1499.861869747987
 20
75.09845680785611
 30
0.0
 11
1503.516950320223
 21
95.66208313130846
 31
0.0
  0
LINE
  5
C1
  8
JAKOBS_VECTORS_-_TRIMMED_W
 10
1536.483049279778
 20
289.3379145186921
 30
0.0
 11
1539.983220065196
 21
309.9014178830216
 31
0.0
  0
LINE
  5
C2
  8
JAKOBS_VECTORS_-_TRIMMED_W
 10
703.5169507202231
 20
289.3379145186921
 30
0.0
 11
700.0167799348053
 21
309.9014178830216
 31
0.0
  0
LINE
  5
C3
  8
JAKOBS_VECTORS_-_TRIMMED_W
 10
739.9752002135446
 20
75.09366920574712
 30
0.0
 11
736.4830496797778
 21
95.66208313130846
 31
0.0
  0
LINE
  5
C4
  8
JAKOBS_VECTORS_-_TRIMMED_W
 10
1504.85934510461
 20
103.5486524895814
 30
0.0
 11
1507.469913342119
 21
118.8857408849472
 31
0.0
  0
LINE
  5
C5
  8
JAKOBS_VECTORS_-_TRIMMED_W
 10
1508.812308126506
 20
126.7723102432201
 30
0.0
 11
1511.422876364015
 21
142.1093986385861
 31
0.0
  0
LINE
  5
C6
  8
JAKOBS_VECTORS_-_TRIMMED_W
 10
1512.765271148402
 20
149.995967996859
 30
0.0
 11
1515.375839385911
 21
165.3330563922248
 31
0.0
  0
LINE
  5
C7
  8
JAKOBS_VECTORS_-_TRIMMED_W
 10
1516.718234170298
 20
173.2196257504979
 30
0.0
 11
1519.328802407807
 21
188.5567141458637
 31
0.0
  0
LINE
  5
C8
  8
JAKOBS_VECTORS_-_TRIMMED_W
 10
1520.671197192194
 20
196.4432835041368
 30
0.0
 11
1523.281765429703
 21
211.7803718995026
 31
0.0
  0
LINE
  5
C9
  8
JAKOBS_VECTORS_-_TRIMMED_W
 10
1524.62416021409
 20
219.6669412577755
 30
0.0
 11
1527.234728451599
 21
235.0040296531414
 31
0.0
  0
LINE
  5
CA
  8
JAKOBS_VECTORS_-_TRIMMED_W
 10
1528.577123235986
 20
242.8905990114145
 30
0.0
 11
1531.187691473495
 21
258.2276874067802
 31
0.0
  0
LINE
  5
CB
  8
JAKOBS_VECTORS_-_TRIMMED_W
 10
1532.530086257882
 20
266.1142567650531
 30
0.0
 11
1535.140654495391
 21
281.4513451604191
 31
0.0
  0
LINE
  5
CC
  8
JAKOBS_VECTORS_-_TRIMMED_W
 10
735.1406548953909
 20
103.5486524895814
 30
0.0
 11
732.5300866578817
 21
118.8857408849472
 31
0.0
  0
LINE
  5
CD
  8
JAKOBS_VECTORS_-_TRIMMED_W
 10
731.1876918734948
 20
126.7723102432201
 30
0.0
 11
728.5771236359858
 21
142.1093986385861
 31
0.0
  0
LINE
  5
CE
  8
JAKOBS_VECTORS_-_TRIMMED_W
 10
727.2347288515989
 20
149.995967996859
 30
0.0
 11
724.6241606140899
 21
165.3330563922248
 31
0.0
  0
LINE
  5
CF
  8
JAKOBS_VECTORS_-_TRIMMED_W
 10
723.281765829703
 20
173.2196257504979
 30
0.0
 11
720.6711975921938
 21
188.5567141458637
 31
0.0
  0
LINE
  5
D0
  8
JAKOBS_VECTORS_-_TRIMMED_W
 10
719.3288028078069
 20
196.4432835041368
 30
0.0
 11
716.7182345702979
 21
211.7803718995026
 31
0.0
  0
LINE
  5
D1
  8
JAKOBS_VECTORS_-_TRIMMED_W
 10
715.3758397859109
 20
219.6669412577755
 30
0.0
 11
712.7652715484019
 21
235.0040296531414
 31
0.0
  0
LINE
  5
D2
  8
JAKOBS_VECTORS_-_TRIMMED_W
 10
711.422876764015
 20
242.8905990114145
 30
0.0
 11
708.812308526506
 21
258.2276874067802
 31
0.0
  0
LINE
  5
D3
  8
JAKOBS_VECTORS_-_TRIMMED_W
 10
707.469913742119
 20
266.1142567650531
 30
0.0
 11
704.85934550461
 21
281.4513451604191
 31
0.0
  0
LINE
  5
D4
  8
JAKOBS_VECTORS_-_TRIMMED_W
 10
1499.861869747987
 20
1144.901543192144
 30
0.0
 11
1503.516950320223
 21
1124.337916868692
 31
0.0
  0
LINE
  5
D5
  8
JAKOBS_VECTORS_-_TRIMMED_W
 10
1536.483049279778
 20
930.6620854813079
 30
0.0
 11
1539.983220065196
 21
910.0985821169784
 31
0.0
  0
LINE
  5
D6
  8
JAKOBS_VECTORS_-_TRIMMED_W
 10
703.5169507202231
 20
930.6620854813079
 30
0.0
 11
700.0167799348053
 21
910.0985821169784
 31
0.0
  0
LINE
  5
D7
  8
JAKOBS_VECTORS_-_TRIMMED_W
 10
739.9752002135446
 20
1144.906330794253
 30
0.0
 11
736.4830496797778
 21
1124.337916868692
 31
0.0
  0
LINE
  5
D8
  8
JAKOBS_VECTORS_-_TRIMMED_W
 10
302.1818181818185
 20
609.9999999999999
 30
0.0
 11
318.1818181818183
 21
609.9999999999999
 31
0.0
  0
LINE
  5
D9
  8
JAKOBS_VECTORS_-_TRIMMED_W
 10
278.1818181818185
 20
609.9999999999999
 30
0.0
 11
294.1818181818185
 21
609.9999999999999
 31
0.0
  0
LINE
  5
DA
  8
JAKOBS_VECTORS_-_TRIMMED_W
 10
254.1818181818184
 20
609.9999999999999
 30
0.0
 11
270.1818181818185
 21
609.9999999999999
 31
0.0
  0
LINE
  5
DB
  8
JAKOBS_VECTORS_-_TRIMMED_W
 10
230.1818181818185
 20
609.9999999999999
 30
0.0
 11
246.1818181818184
 21
609.9999999999999
 31
0.0
  0
LINE
  5
DC
  8
JAKOBS_VECTORS_-_TRIMMED_W
 10
206.1818181818185
 20
609.9999999999999
 30
0.0
 11
222.1818181818184
 21
609.9999999999999
 31
0.0
  0
LINE
  5
DD
  8
JAKOBS_VECTORS_-_TRIMMED_W
 10
182.1818181818184
 20
609.9999999999999
 30
0.0
 11
198.1818181818184
 21
609.9999999999999
 31
0.0
  0
LINE
  5
DE
  8
JAKOBS_VECTORS_-_TRIMMED_W
 10
158.1818181818185
 20
609.9999999999999
 30
0.0
 11
174.1818181818185
 21
609.9999999999999
 31
0.0
  0
LINE
  5
DF
  8
JAKOBS_VECTORS_-_TRIMMED_W
 10
134.1818181818185
 20
609.9999999999999
 30
0.0
 11
150.1818181818185
 21
609.9999999999999
 31
0.0
  0
LINE
  5
E0
  8
JAKOBS_VECTORS_-_TRIMMED_W
 10
110.1818181818185
 20
609.9999999999999
 30
0.0
 11
126.1818181818184
 21
609.9999999999999
 31
0.0
  0
LINE
  5
E1
  8
JAKOBS_VECTORS_-_TRIMMED_W
 10
86.18181818181847
 20
609.9999999999999
 30
0.0
 11
102.1818181818185
 21
609.9999999999999
 31
0.0
  0
LINE
  5
E2
  8
JAKOBS_VECTORS_-_TRIMMED_W
 10
62.18181818181847
 20
609.9999999999999
 30
0.0
 11
78.18181818181849
 21
609.9999999999999
 31
0.0
  0
LINE
  5
E3
  8
JAKOBS_VECTORS_-_TRIMMED_W
 10
38.18181818181846
 20
609.9999999999999
 30
0.0
 11
54.18181818181846
 21
609.9999999999999
 31
0.0
  0
LINE
  5
E4
  8
JAKOBS_VECTORS_-_TRIMMED_W
 10
14.18181818181847
 20
609.9999999999999
 30
0.0
 11
30.18181818181848
 21
609.9999999999999
 31
0.0
  0
LINE
  5
E5
  8
JAKOBS_VECTORS_-_TRIMMED_W
 10
3.23767622999999
 20
609.9999999999999
 30
0.0
 11
6.181818181818473
 21
609.9999999999999
 31
0.0
  0
LINE
  5
E6
  8
JAKOBS_VECTORS_-_TRIMMED_W
 10
2366.909090909091
 20
610.0000000000001
 30
0.0
 11
2379.762300000001
 21
610.0000000000001
 31
0.0
  0
LINE
  5
E7
  8
JAKOBS_VECTORS_-_TRIMMED_W
 10
2342.909090909091
 20
610.0000000000001
 30
0.0
 11
2358.909090909092
 21
610.0000000000001
 31
0.0
  0
LINE
  5
E8
  8
JAKOBS_VECTORS_-_TRIMMED_W
 10
2318.909090909091
 20
610.0000000000001
 30
0.0
 11
2334.909090909091
 21
610.0000000000001
 31
0.0
  0
LINE
  5
E9
  8
JAKOBS_VECTORS_-_TRIMMED_W
 10
2294.909090909091
 20
610.0000000000001
 30
0.0
 11
2310.909090909091
 21
610.0000000000001
 31
0.0
  0
LINE
  5
EA
  8
JAKOBS_VECTORS_-_TRIMMED_W
 10
2270.909090909091
 20
610.0000000000001
 30
0.0
 11
2286.909090909091
 21
610.0000000000001
 31
0.0
  0
LINE
  5
EB
  8
JAKOBS_VECTORS_-_TRIMMED_W
 10
2246.909090909091
 20
610.0000000000001
 30
0.0
 11
2262.909090909091
 21
610.0000000000001
 31
0.0
  0
LINE
  5
EC
  8
JAKOBS_VECTORS_-_TRIMMED_W
 10
2222.909090909091
 20
610.0000000000001
 30
0.0
 11
2238.909090909092
 21
610.0000000000001
 31
0.0
  0
LINE
  5
ED
  8
JAKOBS_VECTORS_-_TRIMMED_W
 10
2198.909090909091
 20
610.0000000000001
 30
0.0
 11
2214.909090909091
 21
610.0000000000001
 31
0.0
  0
LINE
  5
EE
  8
JAKOBS_VECTORS_-_TRIMMED_W
 10
2174.909090909092
 20
610.0000000000001
 30
0.0
 11
2190.909090909091
 21
610.0000000000001
 31
0.0
  0
LINE
  5
EF
  8
JAKOBS_VECTORS_-_TRIMMED_W
 10
2150.909090909091
 20
610.0000000000001
 30
0.0
 11
2166.909090909091
 21
610.0000000000001
 31
0.0
  0
LINE
  5
F0
  8
JAKOBS_VECTORS_-_TRIMMED_W
 10
2126.909090909091
 20
610.0000000000001
 30
0.0
 11
2142.909090909091
 21
610.0000000000001
 31
0.0
  0
LINE
  5
F1
  8
JAKOBS_VECTORS_-_TRIMMED_W
 10
2102.909090909091
 20
610.0000000000001
 30
0.0
 11
2118.909090909091
 21
610.0000000000001
 31
0.0
  0
LINE
  5
F2
  8
JAKOBS_VECTORS_-_TRIMMED_W
 10
2078.909090909091
 20
610.0000000000001
 30
0.0
 11
2094.909090909091
 21
610.0000000000001
 31
0.0
  0
LINE
  5
F3
  8
JAKOBS_VECTORS_-_TRIMMED_W
 10
2054.909090909091
 20
610.0000000000001
 30
0.0
 11
2070.909090909092
 21
610.0000000000001
 31
0.0
  0
LINE
  5
F4
  8
JAKOBS_VECTORS_-_TRIMMED_W
 10
2030.909090909091
 20
610.0000000000001
 30
0.0
 11
2046.909090909091
 21
610.0000000000001
 31
0.0
  0
LINE
  5
F5
  8
JAKOBS_VECTORS_-_TRIMMED_W
 10
318.1818181818183
 20
609.9999999999999
 30
0.0
 11
2030.909090909091
 21
610.0000000000001
 31
0.0
  0
LINE
  5
F6
  8
JAKOBS_VECTORS_-_TRIMMED_W
 10
1545.438453265836
 20
49.43736934239814
 30
0.0
 11
1559.580588889567
 21
63.57950496612921
 31
0.0
  0
LINE
  5
F7
  8
JAKOBS_VECTORS_-_TRIMMED_W
 10
1545.438453265836
 20
63.57950496612921
 30
0.0
 11
1559.580588889567
 21
49.43736934239814
 31
0.0
  0
LINE
  5
F8
  8
JAKOBS_VECTORS_-_TRIMMED_W
 10
676.7210965073579
 20
63.57950496612921
 30
0.0
 11
690.8632321310888
 21
49.43736934239814
 31
0.0
  0
LINE
  5
F9
  8
JAKOBS_VECTORS_-_TRIMMED_W
 10
676.7210965073579
 20
49.43736934239814
 30
0.0
 11
690.8632321310888
 21
63.57950496612921
 31
0.0
  0
LINE
  5
FA
  8
JAKOBS_VECTORS_-_TRIMMED_W
 10
1545.438453265836
 20
1170.562630657602
 30
0.0
 11
1559.580588889567
 21
1156.420495033871
 31
0.0
  0
LINE
  5
FB
  8
JAKOBS_VECTORS_-_TRIMMED_W
 10
1545.438453265836
 20
1156.420495033871
 30
0.0
 11
1559.580588889567
 21
1170.562630657602
 31
0.0
  0
LINE
  5
FC
  8
JAKOBS_VECTORS_-_TRIMMED_W
 10
676.7210965073579
 20
1156.420495033871
 30
0.0
 11
690.8632321310888
 21
1170.562630657602
 31
0.0
  0
LINE
  5
FD
  8
JAKOBS_VECTORS_-_TRIMMED_W
 10
676.7210965073579
 20
1170.562630657602
 30
0.0
 11
690.8632321310888
 21
1156.420495033871
 31
0.0
  0
LINE
  5
FE
  8
JAKOBS_VECTORS_-_TRIMMED_W
 10
2375.617968058353
 20
112.2066489904309
 30
0.0
 11
2361.475832434622
 21
98.06451336669996
 31
0.0
  0
LINE
  5
FF
  8
JAKOBS_VECTORS_-_TRIMMED_W
 10
2375.617968058353
 20
98.06451336669996
 30
0.0
 11
2361.475832434622
 21
112.2066489904309
 31
0.0
  0
LINE
  5
100
  8
JAKOBS_VECTORS_-_TRIMMED_W
 10
2375.617968058353
 20
1107.793351009569
 30
0.0
 11
2361.475832434622
 21
1121.9354866333
 31
0.0
  0
LINE
  5
101
  8
JAKOBS_VECTORS_-_TRIMMED_W
 10
2375.617968058353
 20
1121.9354866333
 30
0.0
 11
2361.475832434622
 21
1107.793351009569
 31
0.0
  0
LINE
  5
102
  8
JAKOBS_VECTORS_-_TRIMMED_W
 10
28.79725856192734
 20
1121.9354866333
 30
0.0
 11
42.93939418565829
 21
1107.793351009569
 31
0.0
  0
LINE
  5
103
  8
JAKOBS_VECTORS_-_TRIMMED_W
 10
28.79725856192734
 20
1107.793351009569
 30
0.0
 11
42.93939418565829
 21
1121.9354866333
 31
0.0
  0
LINE
  5
104
  8
JAKOBS_VECTORS_-_TRIMMED_W
 10
28.79725856192734
 20
98.06451336669996
 30
0.0
 11
42.93939418565829
 21
112.2066489904309
 31
0.0
  0
LINE
  5
105
  8
JAKOBS_VECTORS_-_TRIMMED_W
 10
28.79725856192734
 20
112.2066489904309
 30
0.0
 11
42.93939418565829
 21
98.06451336669996
 31
0.0
  0
LINE
  5
106
  8
JAKOBS_VECTORS_-_TRIMMED_W
 10
1504.85934510461
 20
1116.451347510419
 30
0.0
 11
1507.469913342119
 21
1101.114259115053
 31
0.0
  0
LINE
  5
107
  8
JAKOBS_VECTORS_-_TRIMMED_W
 10
1508.812308126506
 20
1093.22768975678
 30
0.0
 11
1511.422876364015
 21
1077.890601361414
 31
0.0
  0
LINE
  5
108
  8
JAKOBS_VECTORS_-_TRIMMED_W
 10
1512.765271148402
 20
1070.004032003141
 30
0.0
 11
1515.375839385911
 21
1054.666943607775
 31
0.0
  0
LINE
  5
109
  8
JAKOBS_VECTORS_-_TRIMMED_W
 10
1516.718234170298
 20
1046.780374249502
 30
0.0
 11
1519.328802407807
 21
1031.443285854136
 31
0.0
  0
LINE
  5
10A
  8
JAKOBS_VECTORS_-_TRIMMED_W
 10
1520.671197192194
 20
1023.556716495863
 30
0.0
 11
1523.281765429703
 21
1008.219628100497
 31
0.0
  0
LINE
  5
10B
  8
JAKOBS_VECTORS_-_TRIMMED_W
 10
1524.62416021409
 20
1000.333058742225
 30
0.0
 11
1527.234728451599
 21
984.9959703468586
 31
0.0
  0
LINE
  5
10C
  8
JAKOBS_VECTORS_-_TRIMMED_W
 10
1528.577123235986
 20
977.1094009885855
 30
0.0
 11
1531.187691473495
 21
961.7723125932198
 31
0.0
  0
LINE
  5
10D
  8
JAKOBS_VECTORS_-_TRIMMED_W
 10
1532.530086257882
 20
953.8857432349469
 30
0.0
 11
1535.140654495391
 21
938.5486548395809
 31
0.0
  0
LINE
  5
10E
  8
JAKOBS_VECTORS_-_TRIMMED_W
 10
735.1406548953909
 20
1116.451347510419
 30
0.0
 11
732.5300866578817
 21
1101.114259115053
 31
0.0
  0
LINE
  5
10F
  8
JAKOBS_VECTORS_-_TRIMMED_W
 10
731.1876918734948
 20
1093.22768975678
 30
0.0
 11
728.5771236359858
 21
1077.890601361414
 31
0.0
  0
LINE
  5
110
  8
JAKOBS_VECTORS_-_TRIMMED_W
 10
727.2347288515989
 20
1070.004032003141
 30
0.0
 11
724.6241606140899
 21
1054.666943607775
 31
0.0
  0
LINE
  5
111
  8
JAKOBS_VECTORS_-_TRIMMED_W
 10
723.281765829703
 20
1046.780374249502
 30
0.0
 11
720.6711975921938
 21
1031.443285854136
 31
0.0
  0
LINE
  5
112
  8
JAKOBS_VECTORS_-_TRIMMED_W
 10
719.3288028078069
 20
1023.556716495863
 30
0.0
 11
716.7182345702979
 21
1008.219628100497
 31
0.0
  0
LINE
  5
113
  8
JAKOBS_VECTORS_-_TRIMMED_W
 10
715.3758397859109
 20
1000.333058742225
 30
0.0
 11
712.7652715484019
 21
984.9959703468586
 31
0.0
  0
LINE
  5
114
  8
JAKOBS_VECTORS_-_TRIMMED_W
 10
711.422876764015
 20
977.1094009885855
 30
0.0
 11
708.812308526506
 21
961.7723125932198
 31
0.0
  0
LINE
  5
115
  8
JAKOBS_VECTORS_-_TRIMMED_W
 10
707.469913742119
 20
953.8857432349469
 30
0.0
 11
704.85934550461
 21
938.5486548395809
 31
0.0
  0
POLYLINE
  5
116
  8
JAKOBS_VECTORS_-_TRIMMED_W
 66
     1
 10
0.0
 20
0.0
 30
0.0
  0
VERTEX
  5
117
  8
JAKOBS_VECTORS_-_TRIMMED_W
 10
700.0000000000005
 20
75.1309869
 30
0.0
  0
VERTEX
  5
118
  8
JAKOBS_VECTORS_-_TRIMMED_W
 10
700.0000000000005
 20
309.9999999999999
 30
0.0
  0
VERTEX
  5
119
  8
JAKOBS_VECTORS_-_TRIMMED_W
 10
1540.000000000001
 20
310.0
 30
0.0
  0
VERTEX
  5
11A
  8
JAKOBS_VECTORS_-_TRIMMED_W
 10
1540.000000000001
 20
75.131
 30
0.0
  0
SEQEND
  5
11B
  8
JAKOBS_VECTORS_-_TRIMMED_W
  0
ENDSEC
  0
EOF
