  0
SECTION
  2
HEADER
  9
$ACADVER
  1
AC1009
  9
$DWGCODEPAGE
  3
ansi_1252
  9
$INSBASE
 10
0.0
 20
0.0
 30
0.0
  9
$EXTMIN
 10
1975.120305754632
 20
159.3817369538232
 30
0.0
  9
$EXTMAX
 10
2290.010063482757
 20
281.9844229182983
 30
0.0
  9
$LIMMIN
 10
0.0
 20
0.0
  9
$LIMMAX
 10
12.0
 20
9.0
  9
$ORTHOMODE
 70
     0
  9
$REGENMODE
 70
     1
  9
$FILLMODE
 70
     1
  9
$QTEXTMODE
 70
     0
  9
$MIRRTEXT
 70
     0
  9
$DRAGMODE
 70
     2
  9
$LTSCALE
 40
1.0
  9
$OSMODE
 70
    37
  9
$ATTMODE
 70
     1
  9
$TEXTSIZE
 40
0.2
  9
$TRACEWID
 40
0.05
  9
$TEXTSTYLE
  7
STANDARD
  9
$CLAYER
  8
0
  9
$CELTYPE
  6
BYLAYER
  9
$CECOLOR
 62
   256
  9
$DIMSCALE
 40
1.0
  9
$DIMASZ
 40
0.18
  9
$DIMEXO
 40
0.0625
  9
$DIMDLI
 40
0.38
  9
$DIMRND
 40
0.0
  9
$DIMDLE
 40
0.0
  9
$DIMEXE
 40
0.18
  9
$DIMTP
 40
0.0
  9
$DIMTM
 40
0.0
  9
$DIMTXT
 40
0.18
  9
$DIMCEN
 40
0.09
  9
$DIMTSZ
 40
0.0
  9
$DIMTOL
 70
     0
  9
$DIMLIM
 70
     0
  9
$DIMTIH
 70
     1
  9
$DIMTOH
 70
     1
  9
$DIMSE1
 70
     0
  9
$DIMSE2
 70
     0
  9
$DIMTAD
 70
     0
  9
$DIMZIN
 70
     0
  9
$DIMBLK
  1

  9
$DIMASO
 70
     1
  9
$DIMSHO
 70
     1
  9
$DIMPOST
  1

  9
$DIMAPOST
  1

  9
$DIMALT
 70
     0
  9
$DIMALTD
 70
     2
  9
$DIMALTF
 40
25.4
  9
$DIMLFAC
 40
1.0
  9
$DIMTOFL
 70
     0
  9
$DIMTVP
 40
0.0
  9
$DIMTIX
 70
     0
  9
$DIMSOXD
 70
     0
  9
$DIMSAH
 70
     0
  9
$DIMBLK1
  1

  9
$DIMBLK2
  1

  9
$DIMSTYLE
  2
STANDARD_ACAD
  9
$DIMCLRD
 70
     0
  9
$DIMCLRE
 70
     0
  9
$DIMCLRT
 70
     0
  9
$DIMTFAC
 40
1.0
  9
$DIMGAP
 40
0.09
  9
$LUNITS
 70
     2
  9
$LUPREC
 70
     3
  9
$SKETCHINC
 40
0.1
  9
$FILLETRAD
 40
0.0
  9
$AUNITS
 70
     0
  9
$AUPREC
 70
     0
  9
$MENU
  1
.
  9
$ELEVATION
 40
0.0
  9
$PELEVATION
 40
0.0
  9
$THICKNESS
 40
0.0
  9
$LIMCHECK
 70
     0
  9
$CHAMFERA
 40
0.0
  9
$CHAMFERB
 40
0.0
  9
$SKPOLY
 70
     0
  9
$TDCREATE
 40
2461213.621775058
  9
$TDUPDATE
 40
2461213.621794722
  9
$TDINDWG
 40
0.0000000116
  9
$TDUSRTIMER
 40
0.0000000116
  9
$USRTIMER
 70
     1
  9
$ANGBASE
 50
0.0
  9
$ANGDIR
 70
     0
  9
$PDMODE
 70
     0
  9
$PDSIZE
 40
0.0
  9
$PLINEWID
 40
0.0
  9
$COORDS
 70
     1
  9
$SPLFRAME
 70
     0
  9
$SPLINETYPE
 70
     6
  9
$SPLINESEGS
 70
     8
  9
$ATTDIA
 70
     1
  9
$ATTREQ
 70
     1
  9
$HANDLING
 70
     1
  9
$HANDSEED
  5
799
  9
$SURFTAB1
 70
     6
  9
$SURFTAB2
 70
     6
  9
$SURFTYPE
 70
     6
  9
$SURFU
 70
     6
  9
$SURFV
 70
     6
  9
$UCSNAME
  2

  9
$UCSORG
 10
0.0
 20
0.0
 30
0.0
  9
$UCSXDIR
 10
1.0
 20
0.0
 30
0.0
  9
$UCSYDIR
 10
0.0
 20
1.0
 30
0.0
  9
$PUCSNAME
  2

  9
$PUCSORG
 10
0.0
 20
0.0
 30
0.0
  9
$PUCSXDIR
 10
1.0
 20
0.0
 30
0.0
  9
$PUCSYDIR
 10
0.0
 20
1.0
 30
0.0
  9
$USERI1
 70
     0
  9
$USERI2
 70
     0
  9
$USERI3
 70
     0
  9
$USERI4
 70
     0
  9
$USERI5
 70
     0
  9
$USERR1
 40
0.0
  9
$USERR2
 40
0.0
  9
$USERR3
 40
0.0
  9
$USERR4
 40
0.0
  9
$USERR5
 40
0.0
  9
$WORLDVIEW
 70
     1
  9
$SHADEDGE
 70
     3
  9
$SHADEDIF
 70
    70
  9
$TILEMODE
 70
     1
  9
$MAXACTVP
 70
    64
  9
$PLIMCHECK
 70
     0
  9
$PEXTMIN
 10
1.000000000000000E+20
 20
1.000000000000000E+20
 30
1.000000000000000E+20
  9
$PEXTMAX
 10
-1.000000000000000E+20
 20
-1.000000000000000E+20
 30
-1.000000000000000E+20
  9
$PLIMMIN
 10
0.0
 20
0.0
  9
$PLIMMAX
 10
12.0
 20
9.0
  9
$UNITMODE
 70
     0
  9
$VISRETAIN
 70
     1
  9
$PLINEGEN
 70
     0
  9
$PSLTSCALE
 70
     1
  0
ENDSEC
  0
SECTION
  2
TABLES
  0
TABLE
  2
VPORT
 70
     1
  0
VPORT
  2
*ACTIVE
 70
     0
 10
0.0
 20
0.0
 11
1.0
 21
1.0
 12
10.42990654205607
 22
4.5
 13
0.0
 23
0.0
 14
0.5
 24
0.5
 15
0.5
 25
0.5
 16
0.0
 26
0.0
 36
1.0
 17
0.0
 27
0.0
 37
0.0
 40
9.0
 41
1.972972972850329
 42
50.0
 43
0.0
 44
0.0
 50
0.0
 51
0.0
 71
     0
 72
   100
 73
     1
 74
     3
 75
     0
 76
     0
 77
     0
 78
     0
  0
ENDTAB
  0
TABLE
  2
LTYPE
 70
     1
  0
LTYPE
  2
CONTINUOUS
 70
     0
  3
Solid line
 72
    65
 73
     0
 40
0.0
  0
ENDTAB
  0
TABLE
  2
LAYER
 70
     2
  0
LAYER
  2
0
 70
     0
 62
     7
  6
CONTINUOUS
  0
LAYER
  2
NAVN
 70
     0
 62
     7
  6
CONTINUOUS
  0
ENDTAB
  0
TABLE
  2
STYLE
 70
     1
  0
STYLE
  2
STANDARD
 70
     0
 40
0.0
 41
1.0
 50
0.0
 71
     0
 42
0.2
  3
txt
  4

  0
ENDTAB
  0
TABLE
  2
VIEW
 70
     0
  0
ENDTAB
  0
TABLE
  2
UCS
 70
     0
  0
ENDTAB
  0
TABLE
  2
APPID
 70
     2
  0
APPID
  2
ACAD
 70
     0
  0
APPID
  2
RHINO
 70
     0
  0
ENDTAB
  0
TABLE
  2
DIMSTYLE
 70
     1
  0
DIMSTYLE
  2
STANDARD_ACAD
 70
     0
  3

  4

  5

  6

  7

 40
1.0
 41
0.18
 42
0.0625
 43
0.38
 44
0.18
 45
0.0
 46
0.0
 47
0.0
 48
0.0
140
0.18
141
0.09
142
0.0
143
25.4
144
1.0
145
0.0
146
1.0
147
0.09
 71
     0
 72
     0
 73
     1
 74
     1
 75
     0
 76
     0
 77
     0
 78
     0
170
     0
171
     2
172
     0
173
     0
174
     0
175
     0
176
     0
177
     0
178
     0
  0
ENDTAB
  0
ENDSEC
  0
SECTION
  2
BLOCKS
  0
BLOCK
  8
0
  2
$MODEL_SPACE
 70
     0
 10
0.0
 20
0.0
 30
0.0
  3
$MODEL_SPACE
  1

  0
ENDBLK
  5
21
  8
0
  0
BLOCK
 67
     1
  8
0
  2
$PAPER_SPACE
 70
     0
 10
0.0
 20
0.0
 30
0.0
  3
$PAPER_SPACE
  1

  0
ENDBLK
  5
1D
 67
     1
  8
0
  0
ENDSEC
  0
SECTION
  2
ENTITIES
  0
POLYLINE
  5
60
  8
NAVN
 66
     1
 10
0.0
 20
0.0
 30
0.0
  0
VERTEX
  5
61
  8
NAVN
 10
1975.120305754632
 20
159.3817369538232
 30
0.0
  0
VERTEX
  5
62
  8
NAVN
 10
1976.441127848366
 20
180.0335811728071
 30
0.0
  0
VERTEX
  5
63
  8
NAVN
 10
1985.961305735629
 20
168.9985186576503
 30
0.0
  0
VERTEX
  5
64
  8
NAVN
 10
1975.569983697224
 20
165.5143695035968
 30
0.0
  0
VERTEX
  5
65
  8
NAVN
 10
1985.961305735629
 20
168.9985186576503
 30
0.0
  0
VERTEX
  5
66
  8
NAVN
 10
1989.944289641587
 20
164.3521315512142
 30
0.0
  0
SEQEND
  5
67
  8
NAVN
  0
POLYLINE
  5
68
  8
NAVN
 66
     1
 10
0.0
 20
0.0
 30
0.0
  0
VERTEX
  5
69
  8
NAVN
 10
1991.141364811006
 20
169.2803154101725
 30
0.0
  0
VERTEX
  5
6A
  8
NAVN
 10
1991.180671154234
 20
169.1958365129446
 30
0.0
  0
VERTEX
  5
6B
  8
NAVN
 10
1991.221194783302
 20
169.112544751216
 30
0.0
  0
VERTEX
  5
6C
  8
NAVN
 10
1991.262917953656
 20
169.0304415105642
 30
0.0
  0
VERTEX
  5
6D
  8
NAVN
 10
1991.305822920739
 20
168.9495281765658
 30
0.0
  0
VERTEX
  5
6E
  8
NAVN
 10
1991.349891939997
 20
168.8698061347985
 30
0.0
  0
VERTEX
  5
6F
  8
NAVN
 10
1991.395107266874
 20
168.791276770839
 30
0.0
  0
VERTEX
  5
70
  8
NAVN
 10
1991.441451156814
 20
168.7139414702643
 30
0.0
  0
VERTEX
  5
71
  8
NAVN
 10
1991.488905865264
 20
168.6378016186523
 30
0.0
  0
VERTEX
  5
72
  8
NAVN
 10
1991.537453647666
 20
168.5628586015794
 30
0.0
  0
VERTEX
  5
73
  8
NAVN
 10
1991.587076759466
 20
168.4891138046233
 30
0.0
  0
VERTEX
  5
74
  8
NAVN
 10
1991.637757456108
 20
168.4165686133603
 30
0.0
  0
VERTEX
  5
75
  8
NAVN
 10
1991.689477993037
 20
168.3452244133683
 30
0.0
  0
VERTEX
  5
76
  8
NAVN
 10
1991.742220625697
 20
168.275082590224
 30
0.0
  0
VERTEX
  5
77
  8
NAVN
 10
1991.795967609534
 20
168.2061445295051
 30
0.0
  0
VERTEX
  5
78
  8
NAVN
 10
1991.850701199992
 20
168.1384116167881
 30
0.0
  0
VERTEX
  5
79
  8
NAVN
 10
1991.906403652516
 20
168.0718852376505
 30
0.0
  0
VERTEX
  5
7A
  8
NAVN
 10
1991.963057222549
 20
168.0065667776693
 30
0.0
  0
VERTEX
  5
7B
  8
NAVN
 10
1992.020644165538
 20
167.942457622422
 30
0.0
  0
VERTEX
  5
7C
  8
NAVN
 10
1992.079146736926
 20
167.8795591574849
 30
0.0
  0
VERTEX
  5
7D
  8
NAVN
 10
1992.138547192158
 20
167.817872768436
 30
0.0
  0
VERTEX
  5
7E
  8
NAVN
 10
1992.198827786679
 20
167.7573998408521
 30
0.0
  0
VERTEX
  5
7F
  8
NAVN
 10
1992.259970775933
 20
167.6981417603099
 30
0.0
  0
VERTEX
  5
80
  8
NAVN
 10
1992.321958415366
 20
167.6400999123875
 30
0.0
  0
VERTEX
  5
81
  8
NAVN
 10
1992.384772960421
 20
167.5832756826611
 30
0.0
  0
VERTEX
  5
82
  8
NAVN
 10
1992.448396666544
 20
167.5276704567084
 30
0.0
  0
VERTEX
  5
83
  8
NAVN
 10
1992.512811789179
 20
167.4732856201063
 30
0.0
  0
VERTEX
  5
84
  8
NAVN
 10
1992.57800058377
 20
167.4201225584318
 30
0.0
  0
VERTEX
  5
85
  8
NAVN
 10
1992.643945305763
 20
167.3681826572625
 30
0.0
  0
VERTEX
  5
86
  8
NAVN
 10
1992.710628210602
 20
167.3174673021753
 30
0.0
  0
VERTEX
  5
87
  8
NAVN
 10
1992.778031553731
 20
167.267977878747
 30
0.0
  0
VERTEX
  5
88
  8
NAVN
 10
1992.846137590595
 20
167.2197157725555
 30
0.0
  0
VERTEX
  5
89
  8
NAVN
 10
1992.91492857664
 20
167.1726823691772
 30
0.0
  0
VERTEX
  5
8A
  8
NAVN
 10
1992.984386767309
 20
167.1268790541896
 30
0.0
  0
VERTEX
  5
8B
  8
NAVN
 10
1993.054494418047
 20
167.0823072131694
 30
0.0
  0
VERTEX
  5
8C
  8
NAVN
 10
1993.125233784299
 20
167.0389682316946
 30
0.0
  0
VERTEX
  5
8D
  8
NAVN
 10
1993.19658712151
 20
166.9968634953414
 30
0.0
  0
VERTEX
  5
8E
  8
NAVN
 10
1993.268536685124
 20
166.9559943896875
 30
0.0
  0
VERTEX
  5
8F
  8
NAVN
 10
1993.341064730586
 20
166.9163623003099
 30
0.0
  0
VERTEX
  5
90
  8
NAVN
 10
1993.41415351334
 20
166.8779686127858
 30
0.0
  0
VERTEX
  5
91
  8
NAVN
 10
1993.487785288831
 20
166.8408147126923
 30
0.0
  0
VERTEX
  5
92
  8
NAVN
 10
1993.561942312504
 20
166.8049019856063
 30
0.0
  0
VERTEX
  5
93
  8
NAVN
 10
1993.636606839803
 20
166.7702318171051
 30
0.0
  0
VERTEX
  5
94
  8
NAVN
 10
1993.711761126173
 20
166.736805592766
 30
0.0
  0
VERTEX
  5
95
  8
NAVN
 10
1993.78738742706
 20
166.7046246981659
 30
0.0
  0
VERTEX
  5
96
  8
NAVN
 10
1993.863467997906
 20
166.6736905188823
 30
0.0
  0
VERTEX
  5
97
  8
NAVN
 10
1993.939985094157
 20
166.6440044404916
 30
0.0
  0
VERTEX
  5
98
  8
NAVN
 10
1994.016920971258
 20
166.6155678485719
 30
0.0
  0
VERTEX
  5
99
  8
NAVN
 10
1994.094257884654
 20
166.5883821286995
 30
0.0
  0
VERTEX
  5
9A
  8
NAVN
 10
1994.171978089788
 20
166.5624486664521
 30
0.0
  0
VERTEX
  5
9B
  8
NAVN
 10
1994.250063842106
 20
166.5377688474064
 30
0.0
  0
VERTEX
  5
9C
  8
NAVN
 10
1994.328497397051
 20
166.51434405714
 30
0.0
  0
VERTEX
  5
9D
  8
NAVN
 10
1994.407261010071
 20
166.4921756812296
 30
0.0
  0
VERTEX
  5
9E
  8
NAVN
 10
1994.486336936607
 20
166.4712651052526
 30
0.0
  0
VERTEX
  5
9F
  8
NAVN
 10
1994.565707432105
 20
166.4516137147862
 30
0.0
  0
VERTEX
  5
A0
  8
NAVN
 10
1994.645354752011
 20
166.4332228954073
 30
0.0
  0
VERTEX
  5
A1
  8
NAVN
 10
1994.725261151767
 20
166.4160940326931
 30
0.0
  0
VERTEX
  5
A2
  8
NAVN
 10
1994.80540888682
 20
166.4002285122206
 30
0.0
  0
VERTEX
  5
A3
  8
NAVN
 10
1994.885780212614
 20
166.3856277195674
 30
0.0
  0
VERTEX
  5
A4
  8
NAVN
 10
1994.966357384593
 20
166.3722930403102
 30
0.0
  0
VERTEX
  5
A5
  8
NAVN
 10
1995.047122658202
 20
166.3602258600261
 30
0.0
  0
VERTEX
  5
A6
  8
NAVN
 10
1995.128058288886
 20
166.3494275642925
 30
0.0
  0
VERTEX
  5
A7
  8
NAVN
 10
1995.209146532089
 20
166.3398995386864
 30
0.0
  0
VERTEX
  5
A8
  8
NAVN
 10
1995.290369643256
 20
166.3316431687852
 30
0.0
  0
VERTEX
  5
A9
  8
NAVN
 10
1995.371709877832
 20
166.3246598401657
 30
0.0
  0
VERTEX
  5
AA
  8
NAVN
 10
1995.453149491261
 20
166.3189509384053
 30
0.0
  0
VERTEX
  5
AB
  8
NAVN
 10
1995.534670738988
 20
166.3145178490806
 30
0.0
  0
VERTEX
  5
AC
  8
NAVN
 10
1995.616255876457
 20
166.311361957769
 30
0.0
  0
VERTEX
  5
AD
  8
NAVN
 10
1995.697887159114
 20
166.3094846500485
 30
0.0
  0
VERTEX
  5
AE
  8
NAVN
 10
1995.779546842403
 20
166.308887311495
 30
0.0
  0
VERTEX
  5
AF
  8
NAVN
 10
1995.861217181768
 20
166.3095713276862
 30
0.0
  0
VERTEX
  5
B0
  8
NAVN
 10
1995.942880432654
 20
166.3115380841993
 30
0.0
  0
VERTEX
  5
B1
  8
NAVN
 10
1996.024518850506
 20
166.3147889666112
 30
0.0
  0
VERTEX
  5
B2
  8
NAVN
 10
1996.106114690769
 20
166.319325360499
 30
0.0
  0
VERTEX
  5
B3
  8
NAVN
 10
1996.187650208887
 20
166.3251486514402
 30
0.0
  0
VERTEX
  5
B4
  8
NAVN
 10
1996.269107660304
 20
166.3322602250113
 30
0.0
  0
VERTEX
  5
B5
  8
NAVN
 10
1996.350469300466
 20
166.3406614667903
 30
0.0
  0
VERTEX
  5
B6
  8
NAVN
 10
1996.431717384817
 20
166.3503537623539
 30
0.0
  0
VERTEX
  5
B7
  8
NAVN
 10
1996.512834168801
 20
166.3613384972791
 30
0.0
  0
VERTEX
  5
B8
  8
NAVN
 10
1996.593801907864
 20
166.3736170571429
 30
0.0
  0
VERTEX
  5
B9
  8
NAVN
 10
1996.67460285745
 20
166.3871908275228
 30
0.0
  0
VERTEX
  5
BA
  8
NAVN
 10
1996.755219273004
 20
166.4020611939961
 30
0.0
  0
VERTEX
  5
BB
  8
NAVN
 10
1996.83563340997
 20
166.4182295421393
 30
0.0
  0
VERTEX
  5
BC
  8
NAVN
 10
1996.915827523792
 20
166.4356972575302
 30
0.0
  0
VERTEX
  5
BD
  8
NAVN
 10
1996.995783869917
 20
166.4544657257454
 30
0.0
  0
VERTEX
  5
BE
  8
NAVN
 10
1997.075484703787
 20
166.4745363323621
 30
0.0
  0
VERTEX
  5
BF
  8
NAVN
 10
1997.154912280849
 20
166.495910462958
 30
0.0
  0
VERTEX
  5
C0
  8
NAVN
 10
1997.234048856545
 20
166.5185895031098
 30
0.0
  0
VERTEX
  5
C1
  8
NAVN
 10
1997.312876686323
 20
166.5425748383943
 30
0.0
  0
VERTEX
  5
C2
  8
NAVN
 10
1997.391378025624
 20
166.5678678543894
 30
0.0
  0
VERTEX
  5
C3
  8
NAVN
 10
1997.469535129896
 20
166.5944699366714
 30
0.0
  0
VERTEX
  5
C4
  8
NAVN
 10
1997.547330254581
 20
166.6223824708183
 30
0.0
  0
VERTEX
  5
C5
  8
NAVN
 10
1997.624745655126
 20
166.6516068424067
 30
0.0
  0
VERTEX
  5
C6
  8
NAVN
 10
1997.701763586973
 20
166.6821444370137
 30
0.0
  0
VERTEX
  5
C7
  8
NAVN
 10
1997.778366305569
 20
166.7139966402166
 30
0.0
  0
VERTEX
  5
C8
  8
NAVN
 10
1997.854536066357
 20
166.7471648375927
 30
0.0
  0
VERTEX
  5
C9
  8
NAVN
 10
1997.930255124783
 20
166.7816504147189
 30
0.0
  0
VERTEX
  5
CA
  8
NAVN
 10
1998.005505736291
 20
166.8174547571721
 30
0.0
  0
VERTEX
  5
CB
  8
NAVN
 10
1998.080270156325
 20
166.85457925053
 30
0.0
  0
VERTEX
  5
CC
  8
NAVN
 10
1998.154530640331
 20
166.8930252803696
 30
0.0
  0
VERTEX
  5
CD
  8
NAVN
 10
1998.228269443753
 20
166.9327942322679
 30
0.0
  0
VERTEX
  5
CE
  8
NAVN
 10
1998.301468822035
 20
166.9738874918017
 30
0.0
  0
VERTEX
  5
CF
  8
NAVN
 10
1998.374111030622
 20
167.0163064445485
 30
0.0
  0
VERTEX
  5
D0
  8
NAVN
 10
1998.44617832496
 20
167.0600524760856
 30
0.0
  0
VERTEX
  5
D1
  8
NAVN
 10
1998.517652960492
 20
167.1051269719897
 30
0.0
  0
VERTEX
  5
D2
  8
NAVN
 10
1998.588517192663
 20
167.1515313178386
 30
0.0
  0
VERTEX
  5
D3
  8
NAVN
 10
1998.658753276917
 20
167.1992668992089
 30
0.0
  0
VERTEX
  5
D4
  8
NAVN
 10
1998.728343468701
 20
167.2483351016777
 30
0.0
  0
VERTEX
  5
D5
  8
NAVN
 10
1998.797270023457
 20
167.2987373108224
 30
0.0
  0
VERTEX
  5
D6
  8
NAVN
 10
1998.865515196631
 20
167.3504749122198
 30
0.0
  0
VERTEX
  5
D7
  8
NAVN
 10
1998.933061243668
 20
167.4035492914473
 30
0.0
  0
VERTEX
  5
D8
  8
NAVN
 10
1998.999890420012
 20
167.4579618340823
 30
0.0
  0
VERTEX
  5
D9
  8
NAVN
 10
1999.065984981107
 20
167.5137139257013
 30
0.0
  0
VERTEX
  5
DA
  8
NAVN
 10
1999.131327182398
 20
167.5708069518819
 30
0.0
  0
VERTEX
  5
DB
  8
NAVN
 10
1999.195899279331
 20
167.6292422982009
 30
0.0
  0
VERTEX
  5
DC
  8
NAVN
 10
1999.259683527349
 20
167.6890213502358
 30
0.0
  0
VERTEX
  5
DD
  8
NAVN
 10
1999.322662181898
 20
167.7501454935635
 30
0.0
  0
VERTEX
  5
DE
  8
NAVN
 10
1999.384817498422
 20
167.8126161137613
 30
0.0
  0
VERTEX
  5
DF
  8
NAVN
 10
1999.446131732365
 20
167.8764345964062
 30
0.0
  0
VERTEX
  5
E0
  8
NAVN
 10
1999.506587139172
 20
167.9416023270751
 30
0.0
  0
VERTEX
  5
E1
  8
NAVN
 10
1999.566165974288
 20
168.0081206913459
 30
0.0
  0
VERTEX
  5
E2
  8
NAVN
 10
1999.624850493158
 20
168.0759910747949
 30
0.0
  0
VERTEX
  5
E3
  8
NAVN
 10
1999.682622951226
 20
168.1452148629998
 30
0.0
  0
VERTEX
  5
E4
  8
NAVN
 10
1999.739465603937
 20
168.2157934415373
 30
0.0
  0
VERTEX
  5
E5
  8
NAVN
 10
1999.795360706735
 20
168.287728195985
 30
0.0
  0
VERTEX
  5
E6
  8
NAVN
 10
1999.850290515065
 20
168.3610205119194
 30
0.0
  0
VERTEX
  5
E7
  8
NAVN
 10
1999.904237284373
 20
168.4356717749185
 30
0.0
  0
VERTEX
  5
E8
  8
NAVN
 10
1999.957183270101
 20
168.5116833705587
 30
0.0
  0
VERTEX
  5
E9
  8
NAVN
 10
2000.009110727696
 20
168.5890566844175
 30
0.0
  0
VERTEX
  5
EA
  8
NAVN
 10
2000.059392302579
 20
168.6668320255913
 30
0.0
  0
VERTEX
  5
EB
  8
NAVN
 10
2000.108040991735
 20
168.7450051729339
 30
0.0
  0
VERTEX
  5
EC
  8
NAVN
 10
2000.155064863896
 20
168.8235605573873
 30
0.0
  0
VERTEX
  5
ED
  8
NAVN
 10
2000.200471987791
 20
168.9024826098949
 30
0.0
  0
VERTEX
  5
EE
  8
NAVN
 10
2000.244270432153
 20
168.9817557613998
 30
0.0
  0
VERTEX
  5
EF
  8
NAVN
 10
2000.286468265712
 20
169.061364442844
 30
0.0
  0
VERTEX
  5
F0
  8
NAVN
 10
2000.3270735572
 20
169.1412930851712
 30
0.0
  0
VERTEX
  5
F1
  8
NAVN
 10
2000.366094375346
 20
169.2215261193232
 30
0.0
  0
VERTEX
  5
F2
  8
NAVN
 10
2000.403538788883
 20
169.302047976244
 30
0.0
  0
VERTEX
  5
F3
  8
NAVN
 10
2000.43941486654
 20
169.3828430868751
 30
0.0
  0
VERTEX
  5
F4
  8
NAVN
 10
2000.473730677051
 20
169.4638958821607
 30
0.0
  0
VERTEX
  5
F5
  8
NAVN
 10
2000.506494289144
 20
169.5451907930424
 30
0.0
  0
VERTEX
  5
F6
  8
NAVN
 10
2000.537713771551
 20
169.6267122504639
 30
0.0
  0
VERTEX
  5
F7
  8
NAVN
 10
2000.567397193004
 20
169.7084446853676
 30
0.0
  0
VERTEX
  5
F8
  8
NAVN
 10
2000.595552622233
 20
169.7903725286963
 30
0.0
  0
VERTEX
  5
F9
  8
NAVN
 10
2000.622188127968
 20
169.872480211393
 30
0.0
  0
VERTEX
  5
FA
  8
NAVN
 10
2000.647311778942
 20
169.9547521644003
 30
0.0
  0
VERTEX
  5
FB
  8
NAVN
 10
2000.670931643885
 20
170.0371728186611
 30
0.0
  0
VERTEX
  5
FC
  8
NAVN
 10
2000.693055791528
 20
170.1197266051184
 30
0.0
  0
VERTEX
  5
FD
  8
NAVN
 10
2000.713692290602
 20
170.2023979547144
 30
0.0
  0
VERTEX
  5
FE
  8
NAVN
 10
2000.732849209838
 20
170.285171298393
 30
0.0
  0
VERTEX
  5
FF
  8
NAVN
 10
2000.750534617967
 20
170.368031067096
 30
0.0
  0
VERTEX
  5
100
  8
NAVN
 10
2000.76675658372
 20
170.4509616917667
 30
0.0
  0
VERTEX
  5
101
  8
NAVN
 10
2000.781523175829
 20
170.5339476033478
 30
0.0
  0
VERTEX
  5
102
  8
NAVN
 10
2000.794842463023
 20
170.6169732327822
 30
0.0
  0
VERTEX
  5
103
  8
NAVN
 10
2000.806722514034
 20
170.7000230110125
 30
0.0
  0
VERTEX
  5
104
  8
NAVN
 10
2000.817171397594
 20
170.7830813689816
 30
0.0
  0
VERTEX
  5
105
  8
NAVN
 10
2000.826197182432
 20
170.8661327376329
 30
0.0
  0
VERTEX
  5
106
  8
NAVN
 10
2000.83380793728
 20
170.9491615479082
 30
0.0
  0
VERTEX
  5
107
  8
NAVN
 10
2000.840011730869
 20
171.0321522307508
 30
0.0
  0
VERTEX
  5
108
  8
NAVN
 10
2000.84481663193
 20
171.1150892171037
 30
0.0
  0
VERTEX
  5
109
  8
NAVN
 10
2000.848230709194
 20
171.1979569379094
 30
0.0
  0
VERTEX
  5
10A
  8
NAVN
 10
2000.850262031393
 20
171.280739824111
 30
0.0
  0
VERTEX
  5
10B
  8
NAVN
 10
2000.850918667256
 20
171.3634223066513
 30
0.0
  0
VERTEX
  5
10C
  8
NAVN
 10
2000.850208685514
 20
171.4459888164726
 30
0.0
  0
VERTEX
  5
10D
  8
NAVN
 10
2000.8481401549
 20
171.5284237845187
 30
0.0
  0
VERTEX
  5
10E
  8
NAVN
 10
2000.844721144144
 20
171.6107116417313
 30
0.0
  0
VERTEX
  5
10F
  8
NAVN
 10
2000.839959721976
 20
171.692836819054
 30
0.0
  0
VERTEX
  5
110
  8
NAVN
 10
2000.833863957129
 20
171.774783747429
 30
0.0
  0
VERTEX
  5
111
  8
NAVN
 10
2000.826441918333
 20
171.8565368578
 30
0.0
  0
VERTEX
  5
112
  8
NAVN
 10
2000.817701674317
 20
171.9380805811089
 30
0.0
  0
VERTEX
  5
113
  8
NAVN
 10
2000.807651293815
 20
172.0193993482994
 30
0.0
  0
VERTEX
  5
114
  8
NAVN
 10
2000.796298845557
 20
172.100477590313
 30
0.0
  0
VERTEX
  5
115
  8
NAVN
 10
2000.783652398274
 20
172.1812997380941
 30
0.0
  0
VERTEX
  5
116
  8
NAVN
 10
2000.769720020696
 20
172.2618502225842
 30
0.0
  0
VERTEX
  5
117
  8
NAVN
 10
2000.754509781556
 20
172.3421134747269
 30
0.0
  0
VERTEX
  5
118
  8
NAVN
 10
2000.738029749583
 20
172.4220739254649
 30
0.0
  0
VERTEX
  5
119
  8
NAVN
 10
2000.720287993509
 20
172.5017160057407
 30
0.0
  0
VERTEX
  5
11A
  8
NAVN
 10
2000.701292582065
 20
172.5810241464971
 30
0.0
  0
VERTEX
  5
11B
  8
NAVN
 10
2000.681051583981
 20
172.6599827786777
 30
0.0
  0
VERTEX
  5
11C
  8
NAVN
 10
2000.659573067989
 20
172.7385763332243
 30
0.0
  0
VERTEX
  5
11D
  8
NAVN
 10
2000.63686510282
 20
172.8167892410805
 30
0.0
  0
VERTEX
  5
11E
  8
NAVN
 10
2000.612935757205
 20
172.8946059331884
 30
0.0
  0
VERTEX
  5
11F
  8
NAVN
 10
2000.587793099874
 20
172.9720108404915
 30
0.0
  0
VERTEX
  5
120
  8
NAVN
 10
2000.533900124991
 20
173.1255230244535
 30
0.0
  0
VERTEX
  5
121
  8
NAVN
 10
2000.475250728019
 20
173.2772012405084
 30
0.0
  0
VERTEX
  5
122
  8
NAVN
 10
2000.411909458805
 20
173.4269209361995
 30
0.0
  0
VERTEX
  5
123
  8
NAVN
 10
2000.343940867198
 20
173.5745575590693
 30
0.0
  0
VERTEX
  5
124
  8
NAVN
 10
2000.271409503046
 20
173.7199865566598
 30
0.0
  0
VERTEX
  5
125
  8
NAVN
 10
2000.194379916196
 20
173.8630833765138
 30
0.0
  0
VERTEX
  5
126
  8
NAVN
 10
2000.112916656496
 20
174.0037234661734
 30
0.0
  0
VERTEX
  5
127
  8
NAVN
 10
2000.027084273794
 20
174.1417822731818
 30
0.0
  0
VERTEX
  5
128
  8
NAVN
 10
1999.936947317939
 20
174.2771352450814
 30
0.0
  0
VERTEX
  5
129
  8
NAVN
 10
1999.890284796906
 20
174.3437581202223
 30
0.0
  0
VERTEX
  5
12A
  8
NAVN
 10
1999.842570338778
 20
174.4096578294141
 30
0.0
  0
VERTEX
  5
12B
  8
NAVN
 10
1999.793812012285
 20
174.4748188036004
 30
0.0
  0
VERTEX
  5
12C
  8
NAVN
 10
1999.744017886159
 20
174.5392254737234
 30
0.0
  0
VERTEX
  5
12D
  8
NAVN
 10
1999.693196029131
 20
174.602862270726
 30
0.0
  0
VERTEX
  5
12E
  8
NAVN
 10
1999.64135450993
 20
174.6657136255509
 30
0.0
  0
VERTEX
  5
12F
  8
NAVN
 10
1999.588501397289
 20
174.7277639691413
 30
0.0
  0
VERTEX
  5
130
  8
NAVN
 10
1999.534644759939
 20
174.7889977324398
 30
0.0
  0
VERTEX
  5
131
  8
NAVN
 10
1999.47979266661
 20
174.8493993463891
 30
0.0
  0
VERTEX
  5
132
  8
NAVN
 10
1999.423953186033
 20
174.9089532419324
 30
0.0
  0
VERTEX
  5
133
  8
NAVN
 10
1999.36713438694
 20
174.9676438500118
 30
0.0
  0
VERTEX
  5
134
  8
NAVN
 10
1999.309344338062
 20
175.0254556015712
 30
0.0
  0
VERTEX
  5
135
  8
NAVN
 10
1999.250591108128
 20
175.0823729275524
 30
0.0
  0
VERTEX
  5
136
  8
NAVN
 10
1999.190882765872
 20
175.1383802588987
 30
0.0
  0
VERTEX
  5
137
  8
NAVN
 10
1999.130227380022
 20
175.1934620265524
 30
0.0
  0
VERTEX
  5
138
  8
NAVN
 10
1999.068633019311
 20
175.2476026614571
 30
0.0
  0
VERTEX
  5
139
  8
NAVN
 10
1999.006107752469
 20
175.3007865945551
 30
0.0
  0
VERTEX
  5
13A
  8
NAVN
 10
1998.942659648228
 20
175.3529982567895
 30
0.0
  0
VERTEX
  5
13B
  8
NAVN
 10
1998.878296775318
 20
175.4042220791028
 30
0.0
  0
VERTEX
  5
13C
  8
NAVN
 10
1998.81302720247
 20
175.4544424924382
 30
0.0
  0
VERTEX
  5
13D
  8
NAVN
 10
1998.746858998416
 20
175.5036439277381
 30
0.0
  0
VERTEX
  5
13E
  8
NAVN
 10
1998.679800231886
 20
175.5518108159457
 30
0.0
  0
VERTEX
  5
13F
  8
NAVN
 10
1998.611858971611
 20
175.5989275880032
 30
0.0
  0
VERTEX
  5
140
  8
NAVN
 10
1998.543043286323
 20
175.6449786748545
 30
0.0
  0
VERTEX
  5
141
  8
NAVN
 10
1998.473361244752
 20
175.6899485074414
 30
0.0
  0
VERTEX
  5
142
  8
NAVN
 10
1998.402820915629
 20
175.7338215167073
 30
0.0
  0
VERTEX
  5
143
  8
NAVN
 10
1998.331430367685
 20
175.7765821335946
 30
0.0
  0
VERTEX
  5
144
  8
NAVN
 10
1998.259197669652
 20
175.8182147890465
 30
0.0
  0
VERTEX
  5
145
  8
NAVN
 10
1998.18613089026
 20
175.8587039140055
 30
0.0
  0
VERTEX
  5
146
  8
NAVN
 10
1998.11223809824
 20
175.8980339394145
 30
0.0
  0
VERTEX
  5
147
  8
NAVN
 10
1998.037527362323
 20
175.9361892962165
 30
0.0
  0
VERTEX
  5
148
  8
NAVN
 10
1997.962006751241
 20
175.9731544153538
 30
0.0
  0
VERTEX
  5
149
  8
NAVN
 10
1997.885684333723
 20
176.0089137277701
 30
0.0
  0
VERTEX
  5
14A
  8
NAVN
 10
1997.808568178502
 20
176.0434516644075
 30
0.0
  0
VERTEX
  5
14B
  8
NAVN
 10
1997.730666354309
 20
176.0767526562091
 30
0.0
  0
VERTEX
  5
14C
  8
NAVN
 10
1997.651986929873
 20
176.1088011341176
 30
0.0
  0
VERTEX
  5
14D
  8
NAVN
 10
1997.572537973926
 20
176.1395815290755
 30
0.0
  0
VERTEX
  5
14E
  8
NAVN
 10
1997.4923275552
 20
176.1690782720265
 30
0.0
  0
VERTEX
  5
14F
  8
NAVN
 10
1997.411363742424
 20
176.1972757939125
 30
0.0
  0
VERTEX
  5
150
  8
NAVN
 10
1997.329654604332
 20
176.2241585256771
 30
0.0
  0
VERTEX
  5
151
  8
NAVN
 10
1997.247208209652
 20
176.2497108982627
 30
0.0
  0
VERTEX
  5
152
  8
NAVN
 10
1997.164032627116
 20
176.2739173426116
 30
0.0
  0
VERTEX
  5
153
  8
NAVN
 10
1997.080135925455
 20
176.2967622896677
 30
0.0
  0
VERTEX
  5
154
  8
NAVN
 10
1996.9955261734
 20
176.3182301703731
 30
0.0
  0
VERTEX
  5
155
  8
NAVN
 10
1996.910211439682
 20
176.3383054156706
 30
0.0
  0
VERTEX
  5
156
  8
NAVN
 10
1996.824199793033
 20
176.3569724565036
 30
0.0
  0
VERTEX
  5
157
  8
NAVN
 10
1996.737499302182
 20
176.374215723814
 30
0.0
  0
VERTEX
  5
158
  8
NAVN
 10
1996.650118035862
 20
176.3900196485454
 30
0.0
  0
VERTEX
  5
159
  8
NAVN
 10
1996.562064062803
 20
176.4043686616404
 30
0.0
  0
VERTEX
  5
15A
  8
NAVN
 10
1996.473345451735
 20
176.4172471940419
 30
0.0
  0
VERTEX
  5
15B
  8
NAVN
 10
1996.383970271391
 20
176.4286396766922
 30
0.0
  0
VERTEX
  5
15C
  8
NAVN
 10
1996.2939465905
 20
176.4385305405345
 30
0.0
  0
VERTEX
  5
15D
  8
NAVN
 10
1996.203282477795
 20
176.4469042165122
 30
0.0
  0
VERTEX
  5
15E
  8
NAVN
 10
1996.111986002006
 20
176.4537451355671
 30
0.0
  0
VERTEX
  5
15F
  8
NAVN
 10
1996.020065231863
 20
176.459037728642
 30
0.0
  0
VERTEX
  5
160
  8
NAVN
 10
1995.927528236099
 20
176.462766426681
 30
0.0
  0
VERTEX
  5
161
  8
NAVN
 10
1992.849457072028
 20
176.481574249375
 30
0.0
  0
VERTEX
  5
162
  8
NAVN
 10
1992.76029148129
 20
176.4830690643448
 30
0.0
  0
VERTEX
  5
163
  8
NAVN
 10
1992.671440816035
 20
176.4863065177965
 30
0.0
  0
VERTEX
  5
164
  8
NAVN
 10
1992.582924877225
 20
176.4912725267766
 30
0.0
  0
VERTEX
  5
165
  8
NAVN
 10
1992.494763465819
 20
176.4979530083318
 30
0.0
  0
VERTEX
  5
166
  8
NAVN
 10
1992.406976382773
 20
176.5063338795066
 30
0.0
  0
VERTEX
  5
167
  8
NAVN
 10
1992.319583429049
 20
176.5164010573486
 30
0.0
  0
VERTEX
  5
168
  8
NAVN
 10
1992.232604405605
 20
176.5281404589028
 30
0.0
  0
VERTEX
  5
169
  8
NAVN
 10
1992.1460591134
 20
176.5415380012157
 30
0.0
  0
VERTEX
  5
16A
  8
NAVN
 10
1992.059967353393
 20
176.5565796013335
 30
0.0
  0
VERTEX
  5
16B
  8
NAVN
 10
1991.974348926542
 20
176.5732511763027
 30
0.0
  0
VERTEX
  5
16C
  8
NAVN
 10
1991.889223633808
 20
176.5915386431685
 30
0.0
  0
VERTEX
  5
16D
  8
NAVN
 10
1991.804611276148
 20
176.6114279189771
 30
0.0
  0
VERTEX
  5
16E
  8
NAVN
 10
1991.720531654523
 20
176.6329049207756
 30
0.0
  0
VERTEX
  5
16F
  8
NAVN
 10
1991.63700456989
 20
176.655955565609
 30
0.0
  0
VERTEX
  5
170
  8
NAVN
 10
1991.55404982321
 20
176.6805657705236
 30
0.0
  0
VERTEX
  5
171
  8
NAVN
 10
1991.47168721544
 20
176.7067214525659
 30
0.0
  0
VERTEX
  5
172
  8
NAVN
 10
1991.38993654754
 20
176.7344085287817
 30
0.0
  0
VERTEX
  5
173
  8
NAVN
 10
1991.308817620468
 20
176.7636129162175
 30
0.0
  0
VERTEX
  5
174
  8
NAVN
 10
1991.228350235185
 20
176.7943205319186
 30
0.0
  0
VERTEX
  5
175
  8
NAVN
 10
1991.148554192648
 20
176.8265172929317
 30
0.0
  0
VERTEX
  5
176
  8
NAVN
 10
1991.069449293817
 20
176.8601891163027
 30
0.0
  0
VERTEX
  5
177
  8
NAVN
 10
1990.991055339651
 20
176.8953219190777
 30
0.0
  0
VERTEX
  5
178
  8
NAVN
 10
1990.913392131109
 20
176.9319016183026
 30
0.0
  0
VERTEX
  5
179
  8
NAVN
 10
1990.83647946915
 20
176.9699141310242
 30
0.0
  0
VERTEX
  5
17A
  8
NAVN
 10
1990.760337154732
 20
177.0093453742876
 30
0.0
  0
VERTEX
  5
17B
  8
NAVN
 10
1990.684984988815
 20
177.0501812651395
 30
0.0
  0
VERTEX
  5
17C
  8
NAVN
 10
1990.610442772357
 20
177.092407720626
 30
0.0
  0
VERTEX
  5
17D
  8
NAVN
 10
1990.536730306319
 20
177.1360106577928
 30
0.0
  0
VERTEX
  5
17E
  8
NAVN
 10
1990.463867391658
 20
177.1809759936867
 30
0.0
  0
VERTEX
  5
17F
  8
NAVN
 10
1990.391873829334
 20
177.2272896453531
 30
0.0
  0
VERTEX
  5
180
  8
NAVN
 10
1990.320769420306
 20
177.2749375298382
 30
0.0
  0
VERTEX
  5
181
  8
NAVN
 10
1990.250573965532
 20
177.3239055641882
 30
0.0
  0
VERTEX
  5
182
  8
NAVN
 10
1990.181307265972
 20
177.3741796654496
 30
0.0
  0
VERTEX
  5
183
  8
NAVN
 10
1990.112989122585
 20
177.4257457506679
 30
0.0
  0
VERTEX
  5
184
  8
NAVN
 10
1990.045639336329
 20
177.4785897368892
 30
0.0
  0
VERTEX
  5
185
  8
NAVN
 10
1989.979277708164
 20
177.5326975411601
 30
0.0
  0
VERTEX
  5
186
  8
NAVN
 10
1989.913924039049
 20
177.588055080526
 30
0.0
  0
VERTEX
  5
187
  8
NAVN
 10
1989.849598129942
 20
177.6446482720336
 30
0.0
  0
VERTEX
  5
188
  8
NAVN
 10
1989.786319781803
 20
177.7024630327289
 30
0.0
  0
VERTEX
  5
189
  8
NAVN
 10
1989.72410879559
 20
177.7614852796575
 30
0.0
  0
VERTEX
  5
18A
  8
NAVN
 10
1989.662984972263
 20
177.821700929866
 30
0.0
  0
VERTEX
  5
18B
  8
NAVN
 10
1989.602968112781
 20
177.8830959004002
 30
0.0
  0
VERTEX
  5
18C
  8
NAVN
 10
1989.544078018102
 20
177.9456561083067
 30
0.0
  0
VERTEX
  5
18D
  8
NAVN
 10
1989.486334489186
 20
178.0093674706312
 30
0.0
  0
VERTEX
  5
18E
  8
NAVN
 10
1989.429757326991
 20
178.0742159044194
 30
0.0
  0
VERTEX
  5
18F
  8
NAVN
 10
1989.374366332477
 20
178.140187326718
 30
0.0
  0
VERTEX
  5
190
  8
NAVN
 10
1989.320181306602
 20
178.2072676545727
 30
0.0
  0
VERTEX
  5
191
  8
NAVN
 10
1989.267222050326
 20
178.2754428050302
 30
0.0
  0
VERTEX
  5
192
  8
NAVN
 10
1989.215508364607
 20
178.3446986951357
 30
0.0
  0
VERTEX
  5
193
  8
NAVN
 10
1989.165060050405
 20
178.4150212419361
 30
0.0
  0
VERTEX
  5
194
  8
NAVN
 10
1989.115896908678
 20
178.4863963624769
 30
0.0
  0
VERTEX
  5
195
  8
NAVN
 10
1989.068038740386
 20
178.5588099738047
 30
0.0
  0
VERTEX
  5
196
  8
NAVN
 10
1989.021505346487
 20
178.632247992965
 30
0.0
  0
VERTEX
  5
197
  8
NAVN
 10
1988.976316527941
 20
178.7066963370046
 30
0.0
  0
VERTEX
  5
198
  8
NAVN
 10
1988.932492085706
 20
178.7821409229691
 30
0.0
  0
VERTEX
  5
199
  8
NAVN
 10
1988.890051820741
 20
178.8585676679045
 30
0.0
  0
VERTEX
  5
19A
  8
NAVN
 10
1988.849015534006
 20
178.9359624888573
 30
0.0
  0
VERTEX
  5
19B
  8
NAVN
 10
1988.809403026459
 20
179.0143113028733
 30
0.0
  0
VERTEX
  5
19C
  8
NAVN
 10
1988.77123409906
 20
179.0936000269986
 30
0.0
  0
VERTEX
  5
19D
  8
NAVN
 10
1988.734528552767
 20
179.1738145782792
 30
0.0
  0
VERTEX
  5
19E
  8
NAVN
 10
1988.69930618854
 20
179.2549408737618
 30
0.0
  0
VERTEX
  5
19F
  8
NAVN
 10
1988.665586807336
 20
179.3369648304919
 30
0.0
  0
VERTEX
  5
1A0
  8
NAVN
 10
1988.633390210116
 20
179.4198723655155
 30
0.0
  0
VERTEX
  5
1A1
  8
NAVN
 10
1988.602736197839
 20
179.5036493958793
 30
0.0
  0
VERTEX
  5
1A2
  8
NAVN
 10
1988.563268185754
 20
179.6263233544968
 30
0.0
  0
VERTEX
  5
1A3
  8
NAVN
 10
1988.527089286998
 20
179.7482695888799
 30
0.0
  0
VERTEX
  5
1A4
  8
NAVN
 10
1988.494160462332
 20
179.8694704764417
 30
0.0
  0
VERTEX
  5
1A5
  8
NAVN
 10
1988.464442672513
 20
179.9899083945949
 30
0.0
  0
VERTEX
  5
1A6
  8
NAVN
 10
1988.437896878303
 20
180.1095657207533
 30
0.0
  0
VERTEX
  5
1A7
  8
NAVN
 10
1988.414484040459
 20
180.2284248323297
 30
0.0
  0
VERTEX
  5
1A8
  8
NAVN
 10
1988.394165119741
 20
180.3464681067372
 30
0.0
  0
VERTEX
  5
1A9
  8
NAVN
 10
1988.37690107691
 20
180.4636779213886
 30
0.0
  0
VERTEX
  5
1AA
  8
NAVN
 10
1988.362652872723
 20
180.5800366536978
 30
0.0
  0
VERTEX
  5
1AB
  8
NAVN
 10
1988.351381467941
 20
180.695526681077
 30
0.0
  0
VERTEX
  5
1AC
  8
NAVN
 10
1988.343047823322
 20
180.8101303809398
 30
0.0
  0
VERTEX
  5
1AD
  8
NAVN
 10
1988.337612899627
 20
180.9238301306989
 30
0.0
  0
VERTEX
  5
1AE
  8
NAVN
 10
1988.335037657614
 20
181.0366083077681
 30
0.0
  0
VERTEX
  5
1AF
  8
NAVN
 10
1988.335283058043
 20
181.1484472895598
 30
0.0
  0
VERTEX
  5
1B0
  8
NAVN
 10
1988.338310061673
 20
181.2593294534875
 30
0.0
  0
VERTEX
  5
1B1
  8
NAVN
 10
1988.344079629264
 20
181.3692371769642
 30
0.0
  0
VERTEX
  5
1B2
  8
NAVN
 10
1988.352552721574
 20
181.4781528374029
 30
0.0
  0
VERTEX
  5
1B3
  8
NAVN
 10
1988.363690299363
 20
181.586058812217
 30
0.0
  0
VERTEX
  5
1B4
  8
NAVN
 10
1988.377453323392
 20
181.6929374788194
 30
0.0
  0
VERTEX
  5
1B5
  8
NAVN
 10
1988.393802754418
 20
181.7987712146231
 30
0.0
  0
VERTEX
  5
1B6
  8
NAVN
 10
1988.412699553201
 20
181.9035423970412
 30
0.0
  0
VERTEX
  5
1B7
  8
NAVN
 10
1988.434104680502
 20
182.0072334034872
 30
0.0
  0
VERTEX
  5
1B8
  8
NAVN
 10
1988.457979097078
 20
182.1098266113735
 30
0.0
  0
VERTEX
  5
1B9
  8
NAVN
 10
1988.48428376369
 20
182.2113043981139
 30
0.0
  0
VERTEX
  5
1BA
  8
NAVN
 10
1988.512979641096
 20
182.3116491411211
 30
0.0
  0
VERTEX
  5
1BB
  8
NAVN
 10
1988.544027690056
 20
182.4108432178082
 30
0.0
  0
VERTEX
  5
1BC
  8
NAVN
 10
1988.57738887133
 20
182.5088690055887
 30
0.0
  0
VERTEX
  5
1BD
  8
NAVN
 10
1988.613024145677
 20
182.6057088818754
 30
0.0
  0
VERTEX
  5
1BE
  8
NAVN
 10
1988.650894473855
 20
182.701345224081
 30
0.0
  0
VERTEX
  5
1BF
  8
NAVN
 10
1988.690960816626
 20
182.7957604096194
 30
0.0
  0
VERTEX
  5
1C0
  8
NAVN
 10
1988.733184134747
 20
182.8889368159033
 30
0.0
  0
VERTEX
  5
1C1
  8
NAVN
 10
1988.777525388978
 20
182.9808568203455
 30
0.0
  0
VERTEX
  5
1C2
  8
NAVN
 10
1988.823945540079
 20
183.0715028003598
 30
0.0
  0
VERTEX
  5
1C3
  8
NAVN
 10
1988.872405548809
 20
183.1608571333588
 30
0.0
  0
VERTEX
  5
1C4
  8
NAVN
 10
1988.922866375926
 20
183.2489021967559
 30
0.0
  0
VERTEX
  5
1C5
  8
NAVN
 10
1988.975288982192
 20
183.3356203679637
 30
0.0
  0
VERTEX
  5
1C6
  8
NAVN
 10
1989.029634328365
 20
183.4209940243958
 30
0.0
  0
VERTEX
  5
1C7
  8
NAVN
 10
1989.085863375204
 20
183.5050055434651
 30
0.0
  0
VERTEX
  5
1C8
  8
NAVN
 10
1989.143937083468
 20
183.5876373025849
 30
0.0
  0
VERTEX
  5
1C9
  8
NAVN
 10
1989.203816413918
 20
183.668871679168
 30
0.0
  0
VERTEX
  5
1CA
  8
NAVN
 10
1989.265462327312
 20
183.7486910506278
 30
0.0
  0
VERTEX
  5
1CB
  8
NAVN
 10
1989.32883578441
 20
183.8270777943771
 30
0.0
  0
VERTEX
  5
1CC
  8
NAVN
 10
1989.393897745971
 20
183.9040142878289
 30
0.0
  0
VERTEX
  5
1CD
  8
NAVN
 10
1989.460609172754
 20
183.9794829083972
 30
0.0
  0
VERTEX
  5
1CE
  8
NAVN
 10
1989.528931025519
 20
184.0534660334939
 30
0.0
  0
VERTEX
  5
1CF
  8
NAVN
 10
1989.598824265026
 20
184.1259460405328
 30
0.0
  0
VERTEX
  5
1D0
  8
NAVN
 10
1989.670249852033
 20
184.1969053069268
 30
0.0
  0
VERTEX
  5
1D1
  8
NAVN
 10
1989.743168747299
 20
184.2663262100893
 30
0.0
  0
VERTEX
  5
1D2
  8
NAVN
 10
1989.817541911585
 20
184.3341911274326
 30
0.0
  0
VERTEX
  5
1D3
  8
NAVN
 10
1989.89333030565
 20
184.4004824363711
 30
0.0
  0
VERTEX
  5
1D4
  8
NAVN
 10
1989.970494890253
 20
184.465182514317
 30
0.0
  0
VERTEX
  5
1D5
  8
NAVN
 10
1990.048996626152
 20
184.5282737386829
 30
0.0
  0
VERTEX
  5
1D6
  8
NAVN
 10
1990.128796474109
 20
184.5897384868834
 30
0.0
  0
VERTEX
  5
1D7
  8
NAVN
 10
1990.209855394881
 20
184.6495591363302
 30
0.0
  0
VERTEX
  5
1D8
  8
NAVN
 10
1990.292134349229
 20
184.707718064437
 30
0.0
  0
VERTEX
  5
1D9
  8
NAVN
 10
1990.375594297912
 20
184.7641976486171
 30
0.0
  0
VERTEX
  5
1DA
  8
NAVN
 10
1990.460196201689
 20
184.8189802662833
 30
0.0
  0
VERTEX
  5
1DB
  8
NAVN
 10
1990.545901021319
 20
184.8720482948489
 30
0.0
  0
VERTEX
  5
1DC
  8
NAVN
 10
1990.632669717561
 20
184.9233841117266
 30
0.0
  0
VERTEX
  5
1DD
  8
NAVN
 10
1990.720463251177
 20
184.9729700943302
 30
0.0
  0
VERTEX
  5
1DE
  8
NAVN
 10
1990.809242582923
 20
185.0207886200721
 30
0.0
  0
VERTEX
  5
1DF
  8
NAVN
 10
1990.89896867356
 20
185.0668220663657
 30
0.0
  0
VERTEX
  5
1E0
  8
NAVN
 10
1990.989602483848
 20
185.111052810624
 30
0.0
  0
VERTEX
  5
1E1
  8
NAVN
 10
1991.081104974545
 20
185.1534632302602
 30
0.0
  0
VERTEX
  5
1E2
  8
NAVN
 10
1991.173437106411
 20
185.1940357026876
 30
0.0
  0
VERTEX
  5
1E3
  8
NAVN
 10
1991.266559840205
 20
185.2327526053189
 30
0.0
  0
VERTEX
  5
1E4
  8
NAVN
 10
1991.360434136687
 20
185.2695963155675
 30
0.0
  0
VERTEX
  5
1E5
  8
NAVN
 10
1991.455020956616
 20
185.3045492108461
 30
0.0
  0
VERTEX
  5
1E6
  8
NAVN
 10
1991.550281260751
 20
185.3375936685684
 30
0.0
  0
VERTEX
  5
1E7
  8
NAVN
 10
1991.646176009852
 20
185.3687120661473
 30
0.0
  0
VERTEX
  5
1E8
  8
NAVN
 10
1991.742666164678
 20
185.3978867809957
 30
0.0
  0
VERTEX
  5
1E9
  8
NAVN
 10
1991.839712685988
 20
185.4251001905268
 30
0.0
  0
VERTEX
  5
1EA
  8
NAVN
 10
1991.937276534542
 20
185.4503346721535
 30
0.0
  0
VERTEX
  5
1EB
  8
NAVN
 10
1992.035318671099
 20
185.4735726032894
 30
0.0
  0
VERTEX
  5
1EC
  8
NAVN
 10
1992.133800056419
 20
185.4947963613469
 30
0.0
  0
VERTEX
  5
1ED
  8
NAVN
 10
1992.23268165126
 20
185.51398832374
 30
0.0
  0
VERTEX
  5
1EE
  8
NAVN
 10
1992.331924416383
 20
185.5311308678809
 30
0.0
  0
VERTEX
  5
1EF
  8
NAVN
 10
1992.431489312546
 20
185.5462063711835
 30
0.0
  0
VERTEX
  5
1F0
  8
NAVN
 10
1992.531337300509
 20
185.5591972110602
 30
0.0
  0
VERTEX
  5
1F1
  8
NAVN
 10
1992.631429341031
 20
185.5700857649245
 30
0.0
  0
VERTEX
  5
1F2
  8
NAVN
 10
1992.731726394872
 20
185.5788544101894
 30
0.0
  0
VERTEX
  5
1F3
  8
NAVN
 10
1992.832189422791
 20
185.5854855242681
 30
0.0
  0
VERTEX
  5
1F4
  8
NAVN
 10
1992.932779385547
 20
185.5899614845737
 30
0.0
  0
VERTEX
  5
1F5
  8
NAVN
 10
1993.0334572439
 20
185.5922646685191
 30
0.0
  0
VERTEX
  5
1F6
  8
NAVN
 10
1993.134183958609
 20
185.5923774535175
 30
0.0
  0
VERTEX
  5
1F7
  8
NAVN
 10
1993.234920490433
 20
185.5902822169822
 30
0.0
  0
VERTEX
  5
1F8
  8
NAVN
 10
1993.335627800131
 20
185.5859613363261
 30
0.0
  0
VERTEX
  5
1F9
  8
NAVN
 10
1993.436266848464
 20
185.5793971889621
 30
0.0
  0
VERTEX
  5
1FA
  8
NAVN
 10
1993.536798596191
 20
185.5705721523037
 30
0.0
  0
VERTEX
  5
1FB
  8
NAVN
 10
1993.63718400407
 20
185.5594686037637
 30
0.0
  0
VERTEX
  5
1FC
  8
NAVN
 10
1993.737384032861
 20
185.5460689207553
 30
0.0
  0
VERTEX
  5
1FD
  8
NAVN
 10
1993.837359643324
 20
185.530355480692
 30
0.0
  0
VERTEX
  5
1FE
  8
NAVN
 10
1993.937071796217
 20
185.5123106609863
 30
0.0
  0
VERTEX
  5
1FF
  8
NAVN
 10
1994.036481452301
 20
185.4919168390516
 30
0.0
  0
VERTEX
  5
200
  8
NAVN
 10
1994.135549572334
 20
185.4691563923012
 30
0.0
  0
VERTEX
  5
201
  8
NAVN
 10
1994.234237117076
 20
185.4440116981473
 30
0.0
  0
VERTEX
  5
202
  8
NAVN
 10
1994.332505047287
 20
185.4164651340041
 30
0.0
  0
VERTEX
  5
203
  8
NAVN
 10
1994.430314323725
 20
185.3864990772839
 30
0.0
  0
VERTEX
  5
204
  8
NAVN
 10
1994.52762590715
 20
185.3540959054006
 30
0.0
  0
VERTEX
  5
205
  8
NAVN
 10
1994.624400758321
 20
185.3192379957667
 30
0.0
  0
VERTEX
  5
206
  8
NAVN
 10
1994.720599837998
 20
185.2819077257955
 30
0.0
  0
VERTEX
  5
207
  8
NAVN
 10
1994.81618410694
 20
185.2420874729
 30
0.0
  0
VERTEX
  5
208
  8
NAVN
 10
1994.911114525907
 20
185.1997596144934
 30
0.0
  0
VERTEX
  5
209
  8
NAVN
 10
1995.005352055657
 20
185.1549065279889
 30
0.0
  0
VERTEX
  5
20A
  8
NAVN
 10
1995.09885765695
 20
185.107510590799
 30
0.0
  0
VERTEX
  5
20B
  8
NAVN
 10
1995.191592290546
 20
185.0575541803377
 30
0.0
  0
VERTEX
  5
20C
  8
NAVN
 10
1995.283516917204
 20
185.0050196740174
 30
0.0
  0
VERTEX
  5
20D
  8
NAVN
 10
1995.374592497682
 20
184.949889449252
 30
0.0
  0
VERTEX
  5
20E
  8
NAVN
 10
1995.464779992742
 20
184.8921458834533
 30
0.0
  0
VERTEX
  5
20F
  8
NAVN
 10
1995.554040363141
 20
184.8317713540357
 30
0.0
  0
VERTEX
  5
210
  8
NAVN
 10
1995.642334569639
 20
184.7687482384115
 30
0.0
  0
VERTEX
  5
211
  8
NAVN
 10
1995.729623572996
 20
184.7030589139944
 30
0.0
  0
VERTEX
  5
212
  8
NAVN
 10
1995.815868333971
 20
184.6346857581969
 30
0.0
  0
VERTEX
  5
213
  8
NAVN
 10
1995.901029813324
 20
184.5636111484325
 30
0.0
  0
VERTEX
  5
214
  8
NAVN
 10
1995.985068971812
 20
184.4898174621142
 30
0.0
  0
VERTEX
  5
215
  8
NAVN
 10
1996.067946770197
 20
184.4132870766552
 30
0.0
  0
VERTEX
  5
216
  8
NAVN
 10
1996.149624169237
 20
184.3340023694684
 30
0.0
  0
VERTEX
  5
217
  8
NAVN
 10
1996.230062129692
 20
184.2519457179667
 30
0.0
  0
VERTEX
  5
218
  8
NAVN
 10
1996.309221612321
 20
184.1670994995637
 30
0.0
  0
VERTEX
  5
219
  8
NAVN
 10
1996.387063577883
 20
184.0794460916724
 30
0.0
  0
VERTEX
  5
21A
  8
NAVN
 10
1996.463548987139
 20
183.9889678717057
 30
0.0
  0
VERTEX
  5
21B
  8
NAVN
 10
1996.538638800846
 20
183.8956472170771
 30
0.0
  0
VERTEX
  5
21C
  8
NAVN
 10
1996.612293979765
 20
183.799466505199
 30
0.0
  0
VERTEX
  5
21D
  8
NAVN
 10
1996.684475484654
 20
183.7004081134848
 30
0.0
  0
VERTEX
  5
21E
  8
NAVN
 10
1996.755144276274
 20
183.598454419348
 30
0.0
  0
VERTEX
  5
21F
  8
NAVN
 10
1996.824261315384
 20
183.4935878002014
 30
0.0
  0
VERTEX
  5
220
  8
NAVN
 10
1996.891787562742
 20
183.385790633458
 30
0.0
  0
VERTEX
  5
221
  8
NAVN
 10
1996.957683979108
 20
183.2750452965312
 30
0.0
  0
SEQEND
  5
222
  8
NAVN
  0
POLYLINE
  5
223
  8
NAVN
 66
     1
 10
0.0
 20
0.0
 30
0.0
  0
VERTEX
  5
224
  8
NAVN
 10
2000.112268785502
 20
187.9703754870232
 30
0.0
  0
VERTEX
  5
225
  8
NAVN
 10
2006.203438635246
 20
169.8037285667347
 30
0.0
  0
VERTEX
  5
226
  8
NAVN
 10
2014.850762569303
 20
172.7031254152128
 30
0.0
  0
SEQEND
  5
227
  8
NAVN
  0
POLYLINE
  5
228
  8
NAVN
 66
     1
 10
0.0
 20
0.0
 30
0.0
  0
VERTEX
  5
229
  8
NAVN
 10
2018.904347052116
 20
174.0622684476855
 30
0.0
  0
VERTEX
  5
22A
  8
NAVN
 10
2020.225169145851
 20
194.7141126666695
 30
0.0
  0
VERTEX
  5
22B
  8
NAVN
 10
2029.745347033113
 20
183.6790501515126
 30
0.0
  0
VERTEX
  5
22C
  8
NAVN
 10
2019.354024994708
 20
180.1949009974592
 30
0.0
  0
VERTEX
  5
22D
  8
NAVN
 10
2029.745347033113
 20
183.6790501515126
 30
0.0
  0
VERTEX
  5
22E
  8
NAVN
 10
2033.728330939072
 20
179.0326630450764
 30
0.0
  0
SEQEND
  5
22F
  8
NAVN
  0
LINE
  5
230
  8
NAVN
 10
2037.846104241004
 20
180.4133282110184
 30
0.0
 11
2031.75493439126
 21
198.5799751313069
 31
0.0
  0
POLYLINE
  5
231
  8
NAVN
 66
     1
 10
0.0
 20
0.0
 30
0.0
  0
VERTEX
  5
232
  8
NAVN
 10
2041.637590315897
 20
201.8935715295674
 30
0.0
  0
VERTEX
  5
233
  8
NAVN
 10
2035.599851780625
 20
189.7646631445513
 30
0.0
  0
VERTEX
  5
234
  8
NAVN
 10
2047.72876016564
 20
183.726924609279
 30
0.0
  0
SEQEND
  5
235
  8
NAVN
  0
POLYLINE
  5
236
  8
NAVN
 66
     1
 10
0.0
 20
0.0
 30
0.0
  0
VERTEX
  5
237
  8
NAVN
 10
2047.967847487462
 20
188.3339007781606
 30
0.0
  0
VERTEX
  5
238
  8
NAVN
 10
2048.00715383069
 20
188.2494218809329
 30
0.0
  0
VERTEX
  5
239
  8
NAVN
 10
2048.047677459758
 20
188.1661301192043
 30
0.0
  0
VERTEX
  5
23A
  8
NAVN
 10
2048.089400630112
 20
188.0840268785526
 30
0.0
  0
VERTEX
  5
23B
  8
NAVN
 10
2048.132305597195
 20
188.0031135445541
 30
0.0
  0
VERTEX
  5
23C
  8
NAVN
 10
2048.176374616453
 20
187.9233915027867
 30
0.0
  0
VERTEX
  5
23D
  8
NAVN
 10
2048.221589943331
 20
187.8448621388273
 30
0.0
  0
VERTEX
  5
23E
  8
NAVN
 10
2048.267933833271
 20
187.7675268382526
 30
0.0
  0
VERTEX
  5
23F
  8
NAVN
 10
2048.31538854172
 20
187.6913869866406
 30
0.0
  0
VERTEX
  5
240
  8
NAVN
 10
2048.363936324122
 20
187.6164439695677
 30
0.0
  0
VERTEX
  5
241
  8
NAVN
 10
2048.413559435922
 20
187.5426991726113
 30
0.0
  0
VERTEX
  5
242
  8
NAVN
 10
2048.464240132564
 20
187.4701539813486
 30
0.0
  0
VERTEX
  5
243
  8
NAVN
 10
2048.515960669493
 20
187.3988097813565
 30
0.0
  0
VERTEX
  5
244
  8
NAVN
 10
2048.568703302154
 20
187.3286679582125
 30
0.0
  0
VERTEX
  5
245
  8
NAVN
 10
2048.622450285991
 20
187.2597298974934
 30
0.0
  0
VERTEX
  5
246
  8
NAVN
 10
2048.677183876449
 20
187.1919969847764
 30
0.0
  0
VERTEX
  5
247
  8
NAVN
 10
2048.732886328972
 20
187.1254706056389
 30
0.0
  0
VERTEX
  5
248
  8
NAVN
 10
2048.789539899006
 20
187.0601521456577
 30
0.0
  0
VERTEX
  5
249
  8
NAVN
 10
2048.847126841995
 20
186.9960429904102
 30
0.0
  0
VERTEX
  5
24A
  8
NAVN
 10
2048.905629413383
 20
186.9331445254736
 30
0.0
  0
VERTEX
  5
24B
  8
NAVN
 10
2048.965029868615
 20
186.8714581364242
 30
0.0
  0
VERTEX
  5
24C
  8
NAVN
 10
2049.025310463136
 20
186.8109852088403
 30
0.0
  0
VERTEX
  5
24D
  8
NAVN
 10
2049.08645345239
 20
186.7517271282985
 30
0.0
  0
VERTEX
  5
24E
  8
NAVN
 10
2049.148441091822
 20
186.6936852803757
 30
0.0
  0
VERTEX
  5
24F
  8
NAVN
 10
2049.211255636878
 20
186.6368610506493
 30
0.0
  0
VERTEX
  5
250
  8
NAVN
 10
2049.274879343
 20
186.5812558246967
 30
0.0
  0
VERTEX
  5
251
  8
NAVN
 10
2049.339294465635
 20
186.5268709880943
 30
0.0
  0
VERTEX
  5
252
  8
NAVN
 10
2049.404483260227
 20
186.4737079264201
 30
0.0
  0
VERTEX
  5
253
  8
NAVN
 10
2049.470427982219
 20
186.4217680252505
 30
0.0
  0
VERTEX
  5
254
  8
NAVN
 10
2049.537110887058
 20
186.3710526701636
 30
0.0
  0
VERTEX
  5
255
  8
NAVN
 10
2049.604514230187
 20
186.3215632467354
 30
0.0
  0
VERTEX
  5
256
  8
NAVN
 10
2049.672620267052
 20
186.2733011405437
 30
0.0
  0
VERTEX
  5
257
  8
NAVN
 10
2049.741411253097
 20
186.2262677371653
 30
0.0
  0
VERTEX
  5
258
  8
NAVN
 10
2049.810869443765
 20
186.1804644221776
 30
0.0
  0
VERTEX
  5
259
  8
NAVN
 10
2049.880977094504
 20
186.1358925811576
 30
0.0
  0
VERTEX
  5
25A
  8
NAVN
 10
2049.951716460756
 20
186.0925535996828
 30
0.0
  0
VERTEX
  5
25B
  8
NAVN
 10
2050.023069797967
 20
186.0504488633297
 30
0.0
  0
VERTEX
  5
25C
  8
NAVN
 10
2050.095019361581
 20
186.009579757676
 30
0.0
  0
VERTEX
  5
25D
  8
NAVN
 10
2050.167547407042
 20
185.9699476682979
 30
0.0
  0
VERTEX
  5
25E
  8
NAVN
 10
2050.240636189796
 20
185.9315539807741
 30
0.0
  0
VERTEX
  5
25F
  8
NAVN
 10
2050.314267965288
 20
185.8944000806806
 30
0.0
  0
VERTEX
  5
260
  8
NAVN
 10
2050.38842498896
 20
185.8584873535945
 30
0.0
  0
VERTEX
  5
261
  8
NAVN
 10
2050.463089516259
 20
185.8238171850933
 30
0.0
  0
VERTEX
  5
262
  8
NAVN
 10
2050.53824380263
 20
185.7903909607542
 30
0.0
  0
VERTEX
  5
263
  8
NAVN
 10
2050.613870103516
 20
185.7582100661542
 30
0.0
  0
VERTEX
  5
264
  8
NAVN
 10
2050.689950674362
 20
185.7272758868705
 30
0.0
  0
VERTEX
  5
265
  8
NAVN
 10
2050.766467770614
 20
185.69758980848
 30
0.0
  0
VERTEX
  5
266
  8
NAVN
 10
2050.843403647715
 20
185.6691532165601
 30
0.0
  0
VERTEX
  5
267
  8
NAVN
 10
2050.92074056111
 20
185.6419674966878
 30
0.0
  0
VERTEX
  5
268
  8
NAVN
 10
2050.998460766244
 20
185.6160340344404
 30
0.0
  0
VERTEX
  5
269
  8
NAVN
 10
2051.076546518562
 20
185.5913542153948
 30
0.0
  0
VERTEX
  5
26A
  8
NAVN
 10
2051.154980073508
 20
185.5679294251281
 30
0.0
  0
VERTEX
  5
26B
  8
NAVN
 10
2051.233743686527
 20
185.5457610492182
 30
0.0
  0
VERTEX
  5
26C
  8
NAVN
 10
2051.312819613063
 20
185.5248504732406
 30
0.0
  0
VERTEX
  5
26D
  8
NAVN
 10
2051.392190108562
 20
185.5051990827745
 30
0.0
  0
VERTEX
  5
26E
  8
NAVN
 10
2051.471837428467
 20
185.4868082633955
 30
0.0
  0
VERTEX
  5
26F
  8
NAVN
 10
2051.551743828224
 20
185.4696794006814
 30
0.0
  0
VERTEX
  5
270
  8
NAVN
 10
2051.631891563277
 20
185.4538138802089
 30
0.0
  0
VERTEX
  5
271
  8
NAVN
 10
2051.71226288907
 20
185.4392130875554
 30
0.0
  0
VERTEX
  5
272
  8
NAVN
 10
2051.792840061049
 20
185.4258784082984
 30
0.0
  0
VERTEX
  5
273
  8
NAVN
 10
2051.873605334658
 20
185.4138112280144
 30
0.0
  0
VERTEX
  5
274
  8
NAVN
 10
2051.954540965343
 20
185.4030129322809
 30
0.0
  0
VERTEX
  5
275
  8
NAVN
 10
2052.035629208545
 20
185.3934849066747
 30
0.0
  0
VERTEX
  5
276
  8
NAVN
 10
2052.116852319713
 20
185.3852285367735
 30
0.0
  0
VERTEX
  5
277
  8
NAVN
 10
2052.198192554288
 20
185.3782452081542
 30
0.0
  0
VERTEX
  5
278
  8
NAVN
 10
2052.279632167717
 20
185.3725363063936
 30
0.0
  0
VERTEX
  5
279
  8
NAVN
 10
2052.361153415444
 20
185.3681032170688
 30
0.0
  0
VERTEX
  5
27A
  8
NAVN
 10
2052.442738552914
 20
185.3649473257577
 30
0.0
  0
VERTEX
  5
27B
  8
NAVN
 10
2052.524369835571
 20
185.3630700180367
 30
0.0
  0
VERTEX
  5
27C
  8
NAVN
 10
2052.606029518859
 20
185.3624726794833
 30
0.0
  0
VERTEX
  5
27D
  8
NAVN
 10
2052.687699858224
 20
185.3631566956745
 30
0.0
  0
VERTEX
  5
27E
  8
NAVN
 10
2052.769363109111
 20
185.3651234521876
 30
0.0
  0
VERTEX
  5
27F
  8
NAVN
 10
2052.851001526962
 20
185.3683743345995
 30
0.0
  0
VERTEX
  5
280
  8
NAVN
 10
2052.932597367225
 20
185.3729107284873
 30
0.0
  0
VERTEX
  5
281
  8
NAVN
 10
2053.014132885343
 20
185.3787340194282
 30
0.0
  0
VERTEX
  5
282
  8
NAVN
 10
2053.09559033676
 20
185.3858455929997
 30
0.0
  0
VERTEX
  5
283
  8
NAVN
 10
2053.176951976922
 20
185.3942468347786
 30
0.0
  0
VERTEX
  5
284
  8
NAVN
 10
2053.258200061273
 20
185.4039391303422
 30
0.0
  0
VERTEX
  5
285
  8
NAVN
 10
2053.339316845258
 20
185.4149238652673
 30
0.0
  0
VERTEX
  5
286
  8
NAVN
 10
2053.42028458432
 20
185.4272024251312
 30
0.0
  0
VERTEX
  5
287
  8
NAVN
 10
2053.501085533906
 20
185.4407761955111
 30
0.0
  0
VERTEX
  5
288
  8
NAVN
 10
2053.58170194946
 20
185.4556465619843
 30
0.0
  0
VERTEX
  5
289
  8
NAVN
 10
2053.662116086426
 20
185.4718149101275
 30
0.0
  0
VERTEX
  5
28A
  8
NAVN
 10
2053.742310200249
 20
185.4892826255185
 30
0.0
  0
VERTEX
  5
28B
  8
NAVN
 10
2053.822266546373
 20
185.5080510937337
 30
0.0
  0
VERTEX
  5
28C
  8
NAVN
 10
2053.901967380243
 20
185.5281217003505
 30
0.0
  0
VERTEX
  5
28D
  8
NAVN
 10
2053.981394957305
 20
185.5494958309462
 30
0.0
  0
VERTEX
  5
28E
  8
NAVN
 10
2054.060531533002
 20
185.5721748710978
 30
0.0
  0
VERTEX
  5
28F
  8
NAVN
 10
2054.139359362779
 20
185.5961602063825
 30
0.0
  0
VERTEX
  5
290
  8
NAVN
 10
2054.217860702081
 20
185.6214532223776
 30
0.0
  0
VERTEX
  5
291
  8
NAVN
 10
2054.296017806352
 20
185.6480553046597
 30
0.0
  0
VERTEX
  5
292
  8
NAVN
 10
2054.373812931038
 20
185.6759678388067
 30
0.0
  0
VERTEX
  5
293
  8
NAVN
 10
2054.451228331582
 20
185.705192210395
 30
0.0
  0
VERTEX
  5
294
  8
NAVN
 10
2054.52824626343
 20
185.735729805002
 30
0.0
  0
VERTEX
  5
295
  8
NAVN
 10
2054.604848982025
 20
185.767582008205
 30
0.0
  0
VERTEX
  5
296
  8
NAVN
 10
2054.681018742814
 20
185.8007502055808
 30
0.0
  0
VERTEX
  5
297
  8
NAVN
 10
2054.756737801239
 20
185.8352357827071
 30
0.0
  0
VERTEX
  5
298
  8
NAVN
 10
2054.831988412748
 20
185.8710401251606
 30
0.0
  0
VERTEX
  5
299
  8
NAVN
 10
2054.906752832782
 20
185.9081646185184
 30
0.0
  0
VERTEX
  5
29A
  8
NAVN
 10
2054.981013316788
 20
185.9466106483579
 30
0.0
  0
VERTEX
  5
29B
  8
NAVN
 10
2055.054752120209
 20
185.9863796002562
 30
0.0
  0
VERTEX
  5
29C
  8
NAVN
 10
2055.127951498491
 20
186.02747285979
 30
0.0
  0
VERTEX
  5
29D
  8
NAVN
 10
2055.200593707079
 20
186.0698918125368
 30
0.0
  0
VERTEX
  5
29E
  8
NAVN
 10
2055.272661001416
 20
186.1136378440739
 30
0.0
  0
VERTEX
  5
29F
  8
NAVN
 10
2055.344135636948
 20
186.1587123399783
 30
0.0
  0
VERTEX
  5
2A0
  8
NAVN
 10
2055.414999869119
 20
186.2051166858269
 30
0.0
  0
VERTEX
  5
2A1
  8
NAVN
 10
2055.485235953374
 20
186.2528522671972
 30
0.0
  0
VERTEX
  5
2A2
  8
NAVN
 10
2055.554826145157
 20
186.3019204696662
 30
0.0
  0
VERTEX
  5
2A3
  8
NAVN
 10
2055.623752699913
 20
186.3523226788105
 30
0.0
  0
VERTEX
  5
2A4
  8
NAVN
 10
2055.691997873088
 20
186.4040602802082
 30
0.0
  0
VERTEX
  5
2A5
  8
NAVN
 10
2055.759543920124
 20
186.4571346594356
 30
0.0
  0
VERTEX
  5
2A6
  8
NAVN
 10
2055.826373096468
 20
186.5115472020702
 30
0.0
  0
VERTEX
  5
2A7
  8
NAVN
 10
2055.892467657563
 20
186.5672992936896
 30
0.0
  0
VERTEX
  5
2A8
  8
NAVN
 10
2055.957809858855
 20
186.62439231987
 30
0.0
  0
VERTEX
  5
2A9
  8
NAVN
 10
2056.022381955788
 20
186.6828276661893
 30
0.0
  0
VERTEX
  5
2AA
  8
NAVN
 10
2056.086166203806
 20
186.7426067182241
 30
0.0
  0
VERTEX
  5
2AB
  8
NAVN
 10
2056.149144858354
 20
186.803730861552
 30
0.0
  0
VERTEX
  5
2AC
  8
NAVN
 10
2056.211300174878
 20
186.8662014817496
 30
0.0
  0
VERTEX
  5
2AD
  8
NAVN
 10
2056.272614408821
 20
186.9300199643945
 30
0.0
  0
VERTEX
  5
2AE
  8
NAVN
 10
2056.333069815629
 20
186.9951876950635
 30
0.0
  0
VERTEX
  5
2AF
  8
NAVN
 10
2056.392648650745
 20
187.0617060593341
 30
0.0
  0
VERTEX
  5
2B0
  8
NAVN
 10
2056.451333169614
 20
187.1295764427832
 30
0.0
  0
VERTEX
  5
2B1
  8
NAVN
 10
2056.509105627683
 20
187.1988002309882
 30
0.0
  0
VERTEX
  5
2B2
  8
NAVN
 10
2056.565948280393
 20
187.2693788095256
 30
0.0
  0
VERTEX
  5
2B3
  8
NAVN
 10
2056.621843383192
 20
187.3413135639731
 30
0.0
  0
VERTEX
  5
2B4
  8
NAVN
 10
2056.676773191522
 20
187.4146058799077
 30
0.0
  0
VERTEX
  5
2B5
  8
NAVN
 10
2056.730719960829
 20
187.4892571429068
 30
0.0
  0
VERTEX
  5
2B6
  8
NAVN
 10
2056.783665946558
 20
187.565268738547
 30
0.0
  0
VERTEX
  5
2B7
  8
NAVN
 10
2056.835593404152
 20
187.6426420524056
 30
0.0
  0
VERTEX
  5
2B8
  8
NAVN
 10
2056.885874979035
 20
187.7204173935797
 30
0.0
  0
VERTEX
  5
2B9
  8
NAVN
 10
2056.934523668191
 20
187.7985905409221
 30
0.0
  0
VERTEX
  5
2BA
  8
NAVN
 10
2056.981547540352
 20
187.8771459253756
 30
0.0
  0
VERTEX
  5
2BB
  8
NAVN
 10
2057.026954664248
 20
187.9560679778832
 30
0.0
  0
VERTEX
  5
2BC
  8
NAVN
 10
2057.070753108609
 20
188.0353411293881
 30
0.0
  0
VERTEX
  5
2BD
  8
NAVN
 10
2057.112950942169
 20
188.1149498108323
 30
0.0
  0
VERTEX
  5
2BE
  8
NAVN
 10
2057.153556233656
 20
188.1948784531592
 30
0.0
  0
VERTEX
  5
2BF
  8
NAVN
 10
2057.192577051802
 20
188.2751114873116
 30
0.0
  0
VERTEX
  5
2C0
  8
NAVN
 10
2057.230021465339
 20
188.355633344232
 30
0.0
  0
VERTEX
  5
2C1
  8
NAVN
 10
2057.265897542997
 20
188.4364284548636
 30
0.0
  0
VERTEX
  5
2C2
  8
NAVN
 10
2057.300213353508
 20
188.5174812501489
 30
0.0
  0
VERTEX
  5
2C3
  8
NAVN
 10
2057.3329769656
 20
188.5987761610309
 30
0.0
  0
VERTEX
  5
2C4
  8
NAVN
 10
2057.364196448008
 20
188.6802976184524
 30
0.0
  0
VERTEX
  5
2C5
  8
NAVN
 10
2057.39387986946
 20
188.7620300533558
 30
0.0
  0
VERTEX
  5
2C6
  8
NAVN
 10
2057.422035298689
 20
188.8439578966846
 30
0.0
  0
VERTEX
  5
2C7
  8
NAVN
 10
2057.448670804424
 20
188.9260655793814
 30
0.0
  0
VERTEX
  5
2C8
  8
NAVN
 10
2057.473794455398
 20
189.0083375323886
 30
0.0
  0
VERTEX
  5
2C9
  8
NAVN
 10
2057.497414320341
 20
189.0907581866496
 30
0.0
  0
VERTEX
  5
2CA
  8
NAVN
 10
2057.519538467984
 20
189.1733119731063
 30
0.0
  0
VERTEX
  5
2CB
  8
NAVN
 10
2057.540174967058
 20
189.2559833227028
 30
0.0
  0
VERTEX
  5
2CC
  8
NAVN
 10
2057.559331886294
 20
189.338756666381
 30
0.0
  0
VERTEX
  5
2CD
  8
NAVN
 10
2057.577017294423
 20
189.4216164350842
 30
0.0
  0
VERTEX
  5
2CE
  8
NAVN
 10
2057.593239260176
 20
189.504547059755
 30
0.0
  0
VERTEX
  5
2CF
  8
NAVN
 10
2057.608005852285
 20
189.5875329713361
 30
0.0
  0
VERTEX
  5
2D0
  8
NAVN
 10
2057.621325139479
 20
189.6705586007701
 30
0.0
  0
VERTEX
  5
2D1
  8
NAVN
 10
2057.63320519049
 20
189.7536083790008
 30
0.0
  0
VERTEX
  5
2D2
  8
NAVN
 10
2057.64365407405
 20
189.8366667369699
 30
0.0
  0
VERTEX
  5
2D3
  8
NAVN
 10
2057.652679858888
 20
189.9197181056207
 30
0.0
  0
VERTEX
  5
2D4
  8
NAVN
 10
2057.660290613736
 20
190.0027469158965
 30
0.0
  0
VERTEX
  5
2D5
  8
NAVN
 10
2057.666494407326
 20
190.0857375987389
 30
0.0
  0
VERTEX
  5
2D6
  8
NAVN
 10
2057.671299308387
 20
190.1686745850921
 30
0.0
  0
VERTEX
  5
2D7
  8
NAVN
 10
2057.674713385651
 20
190.2515423058977
 30
0.0
  0
VERTEX
  5
2D8
  8
NAVN
 10
2057.676744707849
 20
190.3343251920995
 30
0.0
  0
VERTEX
  5
2D9
  8
NAVN
 10
2057.677401343712
 20
190.4170076746396
 30
0.0
  0
VERTEX
  5
2DA
  8
NAVN
 10
2057.676691361971
 20
190.499574184461
 30
0.0
  0
VERTEX
  5
2DB
  8
NAVN
 10
2057.674622831356
 20
190.5820091525071
 30
0.0
  0
VERTEX
  5
2DC
  8
NAVN
 10
2057.6712038206
 20
190.6642970097196
 30
0.0
  0
VERTEX
  5
2DD
  8
NAVN
 10
2057.666442398433
 20
190.746422187042
 30
0.0
  0
VERTEX
  5
2DE
  8
NAVN
 10
2057.660346633586
 20
190.8283691154175
 30
0.0
  0
VERTEX
  5
2DF
  8
NAVN
 10
2057.652924594789
 20
190.9101222257884
 30
0.0
  0
VERTEX
  5
2E0
  8
NAVN
 10
2057.644184350774
 20
190.9916659490971
 30
0.0
  0
VERTEX
  5
2E1
  8
NAVN
 10
2057.634133970272
 20
191.0729847162874
 30
0.0
  0
VERTEX
  5
2E2
  8
NAVN
 10
2057.622781522014
 20
191.1540629583013
 30
0.0
  0
VERTEX
  5
2E3
  8
NAVN
 10
2057.61013507473
 20
191.2348851060823
 30
0.0
  0
VERTEX
  5
2E4
  8
NAVN
 10
2057.596202697153
 20
191.3154355905725
 30
0.0
  0
VERTEX
  5
2E5
  8
NAVN
 10
2057.580992458012
 20
191.3956988427153
 30
0.0
  0
VERTEX
  5
2E6
  8
NAVN
 10
2057.564512426039
 20
191.4756592934529
 30
0.0
  0
VERTEX
  5
2E7
  8
NAVN
 10
2057.546770669965
 20
191.5553013737289
 30
0.0
  0
VERTEX
  5
2E8
  8
NAVN
 10
2057.527775258521
 20
191.6346095144854
 30
0.0
  0
VERTEX
  5
2E9
  8
NAVN
 10
2057.507534260437
 20
191.7135681466658
 30
0.0
  0
VERTEX
  5
2EA
  8
NAVN
 10
2057.486055744445
 20
191.7921617012127
 30
0.0
  0
VERTEX
  5
2EB
  8
NAVN
 10
2057.463347779277
 20
191.8703746090686
 30
0.0
  0
VERTEX
  5
2EC
  8
NAVN
 10
2057.439418433661
 20
191.9481913011767
 30
0.0
  0
VERTEX
  5
2ED
  8
NAVN
 10
2057.41427577633
 20
192.0255962084797
 30
0.0
  0
VERTEX
  5
2EE
  8
NAVN
 10
2057.360382801447
 20
192.1791083924416
 30
0.0
  0
VERTEX
  5
2EF
  8
NAVN
 10
2057.301733404475
 20
192.3307866084966
 30
0.0
  0
VERTEX
  5
2F0
  8
NAVN
 10
2057.238392135261
 20
192.4805063041877
 30
0.0
  0
VERTEX
  5
2F1
  8
NAVN
 10
2057.170423543655
 20
192.6281429270576
 30
0.0
  0
VERTEX
  5
2F2
  8
NAVN
 10
2057.097892179502
 20
192.773571924648
 30
0.0
  0
VERTEX
  5
2F3
  8
NAVN
 10
2057.020862592652
 20
192.916668744502
 30
0.0
  0
VERTEX
  5
2F4
  8
NAVN
 10
2056.939399332952
 20
193.0573088341617
 30
0.0
  0
VERTEX
  5
2F5
  8
NAVN
 10
2056.853566950251
 20
193.1953676411701
 30
0.0
  0
VERTEX
  5
2F6
  8
NAVN
 10
2056.763429994396
 20
193.3307206130696
 30
0.0
  0
VERTEX
  5
2F7
  8
NAVN
 10
2056.716767473363
 20
193.3973434882105
 30
0.0
  0
VERTEX
  5
2F8
  8
NAVN
 10
2056.669053015235
 20
193.4632431974024
 30
0.0
  0
VERTEX
  5
2F9
  8
NAVN
 10
2056.620294688742
 20
193.5284041715886
 30
0.0
  0
VERTEX
  5
2FA
  8
NAVN
 10
2056.570500562616
 20
193.5928108417117
 30
0.0
  0
VERTEX
  5
2FB
  8
NAVN
 10
2056.519678705587
 20
193.6564476387143
 30
0.0
  0
VERTEX
  5
2FC
  8
NAVN
 10
2056.467837186387
 20
193.7192989935391
 30
0.0
  0
VERTEX
  5
2FD
  8
NAVN
 10
2056.414984073746
 20
193.7813493371296
 30
0.0
  0
VERTEX
  5
2FE
  8
NAVN
 10
2056.361127436395
 20
193.842583100428
 30
0.0
  0
VERTEX
  5
2FF
  8
NAVN
 10
2056.306275343066
 20
193.9029847143774
 30
0.0
  0
VERTEX
  5
300
  8
NAVN
 10
2056.25043586249
 20
193.9625386099206
 30
0.0
  0
VERTEX
  5
301
  8
NAVN
 10
2056.193617063396
 20
194.0212292180001
 30
0.0
  0
VERTEX
  5
302
  8
NAVN
 10
2056.135827014518
 20
194.0790409695595
 30
0.0
  0
VERTEX
  5
303
  8
NAVN
 10
2056.077073784585
 20
194.1359582955407
 30
0.0
  0
VERTEX
  5
304
  8
NAVN
 10
2056.017365442328
 20
194.1919656268868
 30
0.0
  0
VERTEX
  5
305
  8
NAVN
 10
2055.956710056478
 20
194.2470473945406
 30
0.0
  0
VERTEX
  5
306
  8
NAVN
 10
2055.895115695767
 20
194.3011880294453
 30
0.0
  0
VERTEX
  5
307
  8
NAVN
 10
2055.832590428926
 20
194.3543719625434
 30
0.0
  0
VERTEX
  5
308
  8
NAVN
 10
2055.769142324684
 20
194.4065836247777
 30
0.0
  0
VERTEX
  5
309
  8
NAVN
 10
2055.704779451774
 20
194.4578074470911
 30
0.0
  0
VERTEX
  5
30A
  8
NAVN
 10
2055.639509878927
 20
194.5080278604266
 30
0.0
  0
VERTEX
  5
30B
  8
NAVN
 10
2055.573341674872
 20
194.5572292957265
 30
0.0
  0
VERTEX
  5
30C
  8
NAVN
 10
2055.506282908343
 20
194.6053961839339
 30
0.0
  0
VERTEX
  5
30D
  8
NAVN
 10
2055.438341648067
 20
194.6525129559918
 30
0.0
  0
VERTEX
  5
30E
  8
NAVN
 10
2055.369525962779
 20
194.6985640428427
 30
0.0
  0
VERTEX
  5
30F
  8
NAVN
 10
2055.299843921208
 20
194.7435338754297
 30
0.0
  0
VERTEX
  5
310
  8
NAVN
 10
2055.229303592085
 20
194.7874068846956
 30
0.0
  0
VERTEX
  5
311
  8
NAVN
 10
2055.157913044142
 20
194.8301675015828
 30
0.0
  0
VERTEX
  5
312
  8
NAVN
 10
2055.085680346108
 20
194.8718001570348
 30
0.0
  0
VERTEX
  5
313
  8
NAVN
 10
2055.012613566716
 20
194.9122892819938
 30
0.0
  0
VERTEX
  5
314
  8
NAVN
 10
2054.938720774696
 20
194.9516193074028
 30
0.0
  0
VERTEX
  5
315
  8
NAVN
 10
2054.864010038779
 20
194.9897746642045
 30
0.0
  0
VERTEX
  5
316
  8
NAVN
 10
2054.788489427697
 20
195.0267397833423
 30
0.0
  0
VERTEX
  5
317
  8
NAVN
 10
2054.71216701018
 20
195.0624990957584
 30
0.0
  0
VERTEX
  5
318
  8
NAVN
 10
2054.635050854959
 20
195.0970370323959
 30
0.0
  0
VERTEX
  5
319
  8
NAVN
 10
2054.557149030765
 20
195.1303380241973
 30
0.0
  0
VERTEX
  5
31A
  8
NAVN
 10
2054.478469606329
 20
195.1623865021059
 30
0.0
  0
VERTEX
  5
31B
  8
NAVN
 10
2054.399020650382
 20
195.193166897064
 30
0.0
  0
VERTEX
  5
31C
  8
NAVN
 10
2054.318810231656
 20
195.2226636400148
 30
0.0
  0
VERTEX
  5
31D
  8
NAVN
 10
2054.237846418881
 20
195.2508611619008
 30
0.0
  0
VERTEX
  5
31E
  8
NAVN
 10
2054.156137280788
 20
195.2777438936651
 30
0.0
  0
VERTEX
  5
31F
  8
NAVN
 10
2054.073690886108
 20
195.3032962662509
 30
0.0
  0
VERTEX
  5
320
  8
NAVN
 10
2053.990515303572
 20
195.3275027106003
 30
0.0
  0
VERTEX
  5
321
  8
NAVN
 10
2053.906618601911
 20
195.350347657656
 30
0.0
  0
VERTEX
  5
322
  8
NAVN
 10
2053.822008849857
 20
195.3718155383611
 30
0.0
  0
VERTEX
  5
323
  8
NAVN
 10
2053.736694116139
 20
195.3918907836589
 30
0.0
  0
VERTEX
  5
324
  8
NAVN
 10
2053.650682469489
 20
195.4105578244918
 30
0.0
  0
VERTEX
  5
325
  8
NAVN
 10
2053.563981978638
 20
195.4278010918022
 30
0.0
  0
VERTEX
  5
326
  8
NAVN
 10
2053.476600712318
 20
195.4436050165337
 30
0.0
  0
VERTEX
  5
327
  8
NAVN
 10
2053.388546739259
 20
195.4579540296288
 30
0.0
  0
VERTEX
  5
328
  8
NAVN
 10
2053.299828128192
 20
195.4708325620301
 30
0.0
  0
VERTEX
  5
329
  8
NAVN
 10
2053.210452947847
 20
195.4822250446804
 30
0.0
  0
VERTEX
  5
32A
  8
NAVN
 10
2053.120429266957
 20
195.492115908523
 30
0.0
  0
VERTEX
  5
32B
  8
NAVN
 10
2053.029765154252
 20
195.5004895845003
 30
0.0
  0
VERTEX
  5
32C
  8
NAVN
 10
2052.938468678462
 20
195.5073305035554
 30
0.0
  0
VERTEX
  5
32D
  8
NAVN
 10
2052.84654790832
 20
195.5126230966308
 30
0.0
  0
VERTEX
  5
32E
  8
NAVN
 10
2052.754010912555
 20
195.5163517946692
 30
0.0
  0
VERTEX
  5
32F
  8
NAVN
 10
2049.675939748485
 20
195.5351596173634
 30
0.0
  0
VERTEX
  5
330
  8
NAVN
 10
2049.586774157746
 20
195.5366544323331
 30
0.0
  0
VERTEX
  5
331
  8
NAVN
 10
2049.497923492492
 20
195.5398918857848
 30
0.0
  0
VERTEX
  5
332
  8
NAVN
 10
2049.409407553682
 20
195.544857894765
 30
0.0
  0
VERTEX
  5
333
  8
NAVN
 10
2049.321246142275
 20
195.55153837632
 30
0.0
  0
VERTEX
  5
334
  8
NAVN
 10
2049.23345905923
 20
195.5599192474951
 30
0.0
  0
VERTEX
  5
335
  8
NAVN
 10
2049.146066105505
 20
195.5699864253366
 30
0.0
  0
VERTEX
  5
336
  8
NAVN
 10
2049.059087082062
 20
195.581725826891
 30
0.0
  0
VERTEX
  5
337
  8
NAVN
 10
2048.972541789856
 20
195.5951233692039
 30
0.0
  0
VERTEX
  5
338
  8
NAVN
 10
2048.886450029849
 20
195.6101649693217
 30
0.0
  0
VERTEX
  5
339
  8
NAVN
 10
2048.800831602999
 20
195.6268365442908
 30
0.0
  0
VERTEX
  5
33A
  8
NAVN
 10
2048.715706310264
 20
195.6451240111566
 30
0.0
  0
VERTEX
  5
33B
  8
NAVN
 10
2048.631093952605
 20
195.6650132869655
 30
0.0
  0
VERTEX
  5
33C
  8
NAVN
 10
2048.54701433098
 20
195.6864902887639
 30
0.0
  0
VERTEX
  5
33D
  8
NAVN
 10
2048.463487246347
 20
195.7095409335973
 30
0.0
  0
VERTEX
  5
33E
  8
NAVN
 10
2048.380532499666
 20
195.7341511385119
 30
0.0
  0
VERTEX
  5
33F
  8
NAVN
 10
2048.298169891896
 20
195.7603068205543
 30
0.0
  0
VERTEX
  5
340
  8
NAVN
 10
2048.216419223996
 20
195.7879938967699
 30
0.0
  0
VERTEX
  5
341
  8
NAVN
 10
2048.135300296925
 20
195.8171982842057
 30
0.0
  0
VERTEX
  5
342
  8
NAVN
 10
2048.054832911641
 20
195.8479058999067
 30
0.0
  0
VERTEX
  5
343
  8
NAVN
 10
2047.975036869105
 20
195.8801026609199
 30
0.0
  0
VERTEX
  5
344
  8
NAVN
 10
2047.895931970274
 20
195.9137744842911
 30
0.0
  0
VERTEX
  5
345
  8
NAVN
 10
2047.817538016108
 20
195.9489072870658
 30
0.0
  0
VERTEX
  5
346
  8
NAVN
 10
2047.739874807566
 20
195.9854869862912
 30
0.0
  0
VERTEX
  5
347
  8
NAVN
 10
2047.662962145606
 20
196.0234994990124
 30
0.0
  0
VERTEX
  5
348
  8
NAVN
 10
2047.586819831188
 20
196.062930742276
 30
0.0
  0
VERTEX
  5
349
  8
NAVN
 10
2047.511467665271
 20
196.1037666331279
 30
0.0
  0
VERTEX
  5
34A
  8
NAVN
 10
2047.436925448814
 20
196.1459930886143
 30
0.0
  0
VERTEX
  5
34B
  8
NAVN
 10
2047.363212982776
 20
196.1895960257811
 30
0.0
  0
VERTEX
  5
34C
  8
NAVN
 10
2047.290350068115
 20
196.2345613616749
 30
0.0
  0
VERTEX
  5
34D
  8
NAVN
 10
2047.218356505791
 20
196.2808750133414
 30
0.0
  0
VERTEX
  5
34E
  8
NAVN
 10
2047.147252096762
 20
196.3285228978264
 30
0.0
  0
VERTEX
  5
34F
  8
NAVN
 10
2047.077056641989
 20
196.3774909321765
 30
0.0
  0
VERTEX
  5
350
  8
NAVN
 10
2047.007789942429
 20
196.4277650334379
 30
0.0
  0
VERTEX
  5
351
  8
NAVN
 10
2046.939471799041
 20
196.4793311186561
 30
0.0
  0
VERTEX
  5
352
  8
NAVN
 10
2046.872122012786
 20
196.5321751048774
 30
0.0
  0
VERTEX
  5
353
  8
NAVN
 10
2046.805760384621
 20
196.5862829091483
 30
0.0
  0
VERTEX
  5
354
  8
NAVN
 10
2046.740406715505
 20
196.6416404485144
 30
0.0
  0
VERTEX
  5
355
  8
NAVN
 10
2046.676080806399
 20
196.698233640022
 30
0.0
  0
VERTEX
  5
356
  8
NAVN
 10
2046.612802458259
 20
196.7560484007174
 30
0.0
  0
VERTEX
  5
357
  8
NAVN
 10
2046.550591472047
 20
196.8150706476458
 30
0.0
  0
VERTEX
  5
358
  8
NAVN
 10
2046.48946764872
 20
196.8752862978543
 30
0.0
  0
VERTEX
  5
359
  8
NAVN
 10
2046.429450789237
 20
196.9366812683889
 30
0.0
  0
VERTEX
  5
35A
  8
NAVN
 10
2046.370560694558
 20
196.9992414762949
 30
0.0
  0
VERTEX
  5
35B
  8
NAVN
 10
2046.312817165642
 20
197.0629528386194
 30
0.0
  0
VERTEX
  5
35C
  8
NAVN
 10
2046.256240003447
 20
197.1278012724076
 30
0.0
  0
VERTEX
  5
35D
  8
NAVN
 10
2046.200849008933
 20
197.1937726947063
 30
0.0
  0
VERTEX
  5
35E
  8
NAVN
 10
2046.146663983058
 20
197.260853022561
 30
0.0
  0
VERTEX
  5
35F
  8
NAVN
 10
2046.093704726782
 20
197.3290281730182
 30
0.0
  0
VERTEX
  5
360
  8
NAVN
 10
2046.041991041063
 20
197.3982840631241
 30
0.0
  0
VERTEX
  5
361
  8
NAVN
 10
2045.991542726861
 20
197.4686066099242
 30
0.0
  0
VERTEX
  5
362
  8
NAVN
 10
2045.942379585135
 20
197.5399817304652
 30
0.0
  0
VERTEX
  5
363
  8
NAVN
 10
2045.894521416842
 20
197.6123953417927
 30
0.0
  0
VERTEX
  5
364
  8
NAVN
 10
2045.847988022943
 20
197.6858333609535
 30
0.0
  0
VERTEX
  5
365
  8
NAVN
 10
2045.802799204397
 20
197.7602817049929
 30
0.0
  0
VERTEX
  5
366
  8
NAVN
 10
2045.758974762162
 20
197.8357262909573
 30
0.0
  0
VERTEX
  5
367
  8
NAVN
 10
2045.716534497197
 20
197.9121530358928
 30
0.0
  0
VERTEX
  5
368
  8
NAVN
 10
2045.675498210462
 20
197.9895478568456
 30
0.0
  0
VERTEX
  5
369
  8
NAVN
 10
2045.635885702916
 20
198.0678966708616
 30
0.0
  0
VERTEX
  5
36A
  8
NAVN
 10
2045.597716775516
 20
198.1471853949868
 30
0.0
  0
VERTEX
  5
36B
  8
NAVN
 10
2045.561011229223
 20
198.2273999462676
 30
0.0
  0
VERTEX
  5
36C
  8
NAVN
 10
2045.525788864996
 20
198.3085262417504
 30
0.0
  0
VERTEX
  5
36D
  8
NAVN
 10
2045.492069483793
 20
198.3905501984801
 30
0.0
  0
VERTEX
  5
36E
  8
NAVN
 10
2045.459872886573
 20
198.4734577335041
 30
0.0
  0
VERTEX
  5
36F
  8
NAVN
 10
2045.429218874295
 20
198.5572347638676
 30
0.0
  0
VERTEX
  5
370
  8
NAVN
 10
2045.38975086221
 20
198.6799087224852
 30
0.0
  0
VERTEX
  5
371
  8
NAVN
 10
2045.353571963455
 20
198.8018549568679
 30
0.0
  0
VERTEX
  5
372
  8
NAVN
 10
2045.320643138788
 20
198.9230558444299
 30
0.0
  0
VERTEX
  5
373
  8
NAVN
 10
2045.29092534897
 20
199.0434937625831
 30
0.0
  0
VERTEX
  5
374
  8
NAVN
 10
2045.264379554759
 20
199.1631510887416
 30
0.0
  0
VERTEX
  5
375
  8
NAVN
 10
2045.240966716915
 20
199.2820102003181
 30
0.0
  0
VERTEX
  5
376
  8
NAVN
 10
2045.220647796198
 20
199.4000534747256
 30
0.0
  0
VERTEX
  5
377
  8
NAVN
 10
2045.203383753366
 20
199.5172632893769
 30
0.0
  0
VERTEX
  5
378
  8
NAVN
 10
2045.189135549179
 20
199.6336220216861
 30
0.0
  0
VERTEX
  5
379
  8
NAVN
 10
2045.177864144397
 20
199.7491120490652
 30
0.0
  0
VERTEX
  5
37A
  8
NAVN
 10
2045.169530499779
 20
199.8637157489281
 30
0.0
  0
VERTEX
  5
37B
  8
NAVN
 10
2045.164095576083
 20
199.9774154986872
 30
0.0
  0
VERTEX
  5
37C
  8
NAVN
 10
2045.16152033407
 20
200.0901936757562
 30
0.0
  0
VERTEX
  5
37D
  8
NAVN
 10
2045.161765734499
 20
200.202032657548
 30
0.0
  0
VERTEX
  5
37E
  8
NAVN
 10
2045.164792738129
 20
200.3129148214758
 30
0.0
  0
VERTEX
  5
37F
  8
NAVN
 10
2045.17056230572
 20
200.4228225449525
 30
0.0
  0
VERTEX
  5
380
  8
NAVN
 10
2045.17903539803
 20
200.5317382053912
 30
0.0
  0
VERTEX
  5
381
  8
NAVN
 10
2045.19017297582
 20
200.6396441802054
 30
0.0
  0
VERTEX
  5
382
  8
NAVN
 10
2045.203935999848
 20
200.7465228468076
 30
0.0
  0
VERTEX
  5
383
  8
NAVN
 10
2045.220285430874
 20
200.8523565826113
 30
0.0
  0
VERTEX
  5
384
  8
NAVN
 10
2045.239182229658
 20
200.9571277650295
 30
0.0
  0
VERTEX
  5
385
  8
NAVN
 10
2045.260587356958
 20
201.0608187714752
 30
0.0
  0
VERTEX
  5
386
  8
NAVN
 10
2045.284461773534
 20
201.1634119793617
 30
0.0
  0
VERTEX
  5
387
  8
NAVN
 10
2045.310766440146
 20
201.2648897661022
 30
0.0
  0
VERTEX
  5
388
  8
NAVN
 10
2045.339462317552
 20
201.3652345091094
 30
0.0
  0
VERTEX
  5
389
  8
NAVN
 10
2045.370510366513
 20
201.4644285857965
 30
0.0
  0
VERTEX
  5
38A
  8
NAVN
 10
2045.403871547786
 20
201.5624543735771
 30
0.0
  0
VERTEX
  5
38B
  8
NAVN
 10
2045.439506822133
 20
201.6592942498636
 30
0.0
  0
VERTEX
  5
38C
  8
NAVN
 10
2045.477377150312
 20
201.7549305920693
 30
0.0
  0
VERTEX
  5
38D
  8
NAVN
 10
2045.517443493082
 20
201.8493457776077
 30
0.0
  0
VERTEX
  5
38E
  8
NAVN
 10
2045.559666811203
 20
201.9425221838918
 30
0.0
  0
VERTEX
  5
38F
  8
NAVN
 10
2045.604008065434
 20
202.0344421883338
 30
0.0
  0
VERTEX
  5
390
  8
NAVN
 10
2045.650428216535
 20
202.1250881683481
 30
0.0
  0
VERTEX
  5
391
  8
NAVN
 10
2045.698888225265
 20
202.2144425013469
 30
0.0
  0
VERTEX
  5
392
  8
NAVN
 10
2045.749349052383
 20
202.3024875647442
 30
0.0
  0
VERTEX
  5
393
  8
NAVN
 10
2045.801771658648
 20
202.389205735952
 30
0.0
  0
VERTEX
  5
394
  8
NAVN
 10
2045.856117004821
 20
202.4745793923841
 30
0.0
  0
VERTEX
  5
395
  8
NAVN
 10
2045.91234605166
 20
202.5585909114533
 30
0.0
  0
VERTEX
  5
396
  8
NAVN
 10
2045.970419759925
 20
202.6412226705734
 30
0.0
  0
VERTEX
  5
397
  8
NAVN
 10
2046.030299090374
 20
202.7224570471564
 30
0.0
  0
VERTEX
  5
398
  8
NAVN
 10
2046.091945003769
 20
202.802276418616
 30
0.0
  0
VERTEX
  5
399
  8
NAVN
 10
2046.155318460866
 20
202.8806631623655
 30
0.0
  0
VERTEX
  5
39A
  8
NAVN
 10
2046.220380422427
 20
202.9575996558172
 30
0.0
  0
VERTEX
  5
39B
  8
NAVN
 10
2046.28709184921
 20
203.0330682763856
 30
0.0
  0
VERTEX
  5
39C
  8
NAVN
 10
2046.355413701976
 20
203.1070514014821
 30
0.0
  0
VERTEX
  5
39D
  8
NAVN
 10
2046.425306941482
 20
203.1795314085212
 30
0.0
  0
VERTEX
  5
39E
  8
NAVN
 10
2046.496732528489
 20
203.2504906749151
 30
0.0
  0
VERTEX
  5
39F
  8
NAVN
 10
2046.569651423756
 20
203.3199115780776
 30
0.0
  0
VERTEX
  5
3A0
  8
NAVN
 10
2046.644024588042
 20
203.3877764954211
 30
0.0
  0
VERTEX
  5
3A1
  8
NAVN
 10
2046.719812982106
 20
203.4540678043591
 30
0.0
  0
VERTEX
  5
3A2
  8
NAVN
 10
2046.796977566709
 20
203.5187678823052
 30
0.0
  0
VERTEX
  5
3A3
  8
NAVN
 10
2046.875479302609
 20
203.5818591066714
 30
0.0
  0
VERTEX
  5
3A4
  8
NAVN
 10
2046.955279150565
 20
203.6433238548714
 30
0.0
  0
VERTEX
  5
3A5
  8
NAVN
 10
2047.036338071338
 20
203.7031445043186
 30
0.0
  0
VERTEX
  5
3A6
  8
NAVN
 10
2047.118617025686
 20
203.7613034324254
 30
0.0
  0
VERTEX
  5
3A7
  8
NAVN
 10
2047.202076974368
 20
203.8177830166053
 30
0.0
  0
VERTEX
  5
3A8
  8
NAVN
 10
2047.286678878145
 20
203.8725656342716
 30
0.0
  0
VERTEX
  5
3A9
  8
NAVN
 10
2047.372383697775
 20
203.9256336628369
 30
0.0
  0
VERTEX
  5
3AA
  8
NAVN
 10
2047.459152394018
 20
203.976969479715
 30
0.0
  0
VERTEX
  5
3AB
  8
NAVN
 10
2047.546945927633
 20
204.0265554623184
 30
0.0
  0
VERTEX
  5
3AC
  8
NAVN
 10
2047.635725259379
 20
204.0743739880605
 30
0.0
  0
VERTEX
  5
3AD
  8
NAVN
 10
2047.725451350017
 20
204.120407434354
 30
0.0
  0
VERTEX
  5
3AE
  8
NAVN
 10
2047.816085160304
 20
204.1646381786123
 30
0.0
  0
VERTEX
  5
3AF
  8
NAVN
 10
2047.907587651001
 20
204.2070485982485
 30
0.0
  0
VERTEX
  5
3B0
  8
NAVN
 10
2047.999919782867
 20
204.247621070676
 30
0.0
  0
VERTEX
  5
3B1
  8
NAVN
 10
2048.093042516662
 20
204.2863379733072
 30
0.0
  0
VERTEX
  5
3B2
  8
NAVN
 10
2048.186916813144
 20
204.3231816835558
 30
0.0
  0
VERTEX
  5
3B3
  8
NAVN
 10
2048.281503633072
 20
204.3581345788345
 30
0.0
  0
VERTEX
  5
3B4
  8
NAVN
 10
2048.376763937207
 20
204.3911790365568
 30
0.0
  0
VERTEX
  5
3B5
  8
NAVN
 10
2048.472658686308
 20
204.4222974341354
 30
0.0
  0
VERTEX
  5
3B6
  8
NAVN
 10
2048.569148841135
 20
204.4514721489841
 30
0.0
  0
VERTEX
  5
3B7
  8
NAVN
 10
2048.666195362444
 20
204.4786855585149
 30
0.0
  0
VERTEX
  5
3B8
  8
NAVN
 10
2048.763759210999
 20
204.5039200401418
 30
0.0
  0
VERTEX
  5
3B9
  8
NAVN
 10
2048.861801347555
 20
204.5271579712776
 30
0.0
  0
VERTEX
  5
3BA
  8
NAVN
 10
2048.960282732876
 20
204.5483817293353
 30
0.0
  0
VERTEX
  5
3BB
  8
NAVN
 10
2049.059164327717
 20
204.567573691728
 30
0.0
  0
VERTEX
  5
3BC
  8
NAVN
 10
2049.15840709284
 20
204.5847162358694
 30
0.0
  0
VERTEX
  5
3BD
  8
NAVN
 10
2049.257971989003
 20
204.5997917391716
 30
0.0
  0
VERTEX
  5
3BE
  8
NAVN
 10
2049.357819976966
 20
204.6127825790484
 30
0.0
  0
VERTEX
  5
3BF
  8
NAVN
 10
2049.457912017488
 20
204.623671132913
 30
0.0
  0
VERTEX
  5
3C0
  8
NAVN
 10
2049.558209071329
 20
204.6324397781777
 30
0.0
  0
VERTEX
  5
3C1
  8
NAVN
 10
2049.658672099247
 20
204.6390708922561
 30
0.0
  0
VERTEX
  5
3C2
  8
NAVN
 10
2049.759262062004
 20
204.6435468525619
 30
0.0
  0
VERTEX
  5
3C3
  8
NAVN
 10
2049.859939920356
 20
204.6458500365074
 30
0.0
  0
VERTEX
  5
3C4
  8
NAVN
 10
2049.960666635065
 20
204.6459628215057
 30
0.0
  0
VERTEX
  5
3C5
  8
NAVN
 10
2050.061403166889
 20
204.64386758497
 30
0.0
  0
VERTEX
  5
3C6
  8
NAVN
 10
2050.162110476587
 20
204.6395467043143
 30
0.0
  0
VERTEX
  5
3C7
  8
NAVN
 10
2050.26274952492
 20
204.6329825569504
 30
0.0
  0
VERTEX
  5
3C8
  8
NAVN
 10
2050.363281272647
 20
204.624157520292
 30
0.0
  0
VERTEX
  5
3C9
  8
NAVN
 10
2050.463666680526
 20
204.613053971752
 30
0.0
  0
VERTEX
  5
3CA
  8
NAVN
 10
2050.563866709317
 20
204.5996542887436
 30
0.0
  0
VERTEX
  5
3CB
  8
NAVN
 10
2050.66384231978
 20
204.5839408486801
 30
0.0
  0
VERTEX
  5
3CC
  8
NAVN
 10
2050.763554472674
 20
204.5658960289746
 30
0.0
  0
VERTEX
  5
3CD
  8
NAVN
 10
2050.862964128757
 20
204.5455022070399
 30
0.0
  0
VERTEX
  5
3CE
  8
NAVN
 10
2050.96203224879
 20
204.5227417602894
 30
0.0
  0
VERTEX
  5
3CF
  8
NAVN
 10
2051.060719793532
 20
204.4975970661356
 30
0.0
  0
VERTEX
  5
3D0
  8
NAVN
 10
2051.158987723743
 20
204.4700505019924
 30
0.0
  0
VERTEX
  5
3D1
  8
NAVN
 10
2051.256797000181
 20
204.4400844452724
 30
0.0
  0
VERTEX
  5
3D2
  8
NAVN
 10
2051.354108583606
 20
204.407681273389
 30
0.0
  0
VERTEX
  5
3D3
  8
NAVN
 10
2051.450883434778
 20
204.3728233637551
 30
0.0
  0
VERTEX
  5
3D4
  8
NAVN
 10
2051.547082514455
 20
204.3354930937839
 30
0.0
  0
VERTEX
  5
3D5
  8
NAVN
 10
2051.642666783397
 20
204.2956728408884
 30
0.0
  0
VERTEX
  5
3D6
  8
NAVN
 10
2051.737597202363
 20
204.2533449824819
 30
0.0
  0
VERTEX
  5
3D7
  8
NAVN
 10
2051.831834732113
 20
204.208491895977
 30
0.0
  0
VERTEX
  5
3D8
  8
NAVN
 10
2051.925340333407
 20
204.1610959587873
 30
0.0
  0
VERTEX
  5
3D9
  8
NAVN
 10
2052.018074967003
 20
204.1111395483261
 30
0.0
  0
VERTEX
  5
3DA
  8
NAVN
 10
2052.10999959366
 20
204.0586050420057
 30
0.0
  0
VERTEX
  5
3DB
  8
NAVN
 10
2052.201075174139
 20
204.0034748172404
 30
0.0
  0
VERTEX
  5
3DC
  8
NAVN
 10
2052.291262669198
 20
203.9457312514419
 30
0.0
  0
VERTEX
  5
3DD
  8
NAVN
 10
2052.380523039598
 20
203.885356722024
 30
0.0
  0
VERTEX
  5
3DE
  8
NAVN
 10
2052.468817246096
 20
203.8223336064
 30
0.0
  0
VERTEX
  5
3DF
  8
NAVN
 10
2052.556106249453
 20
203.7566442819826
 30
0.0
  0
VERTEX
  5
3E0
  8
NAVN
 10
2052.642351010427
 20
203.6882711261852
 30
0.0
  0
VERTEX
  5
3E1
  8
NAVN
 10
2052.72751248978
 20
203.6171965164207
 30
0.0
  0
VERTEX
  5
3E2
  8
NAVN
 10
2052.811551648269
 20
203.5434028301025
 30
0.0
  0
VERTEX
  5
3E3
  8
NAVN
 10
2052.894429446653
 20
203.4668724446435
 30
0.0
  0
VERTEX
  5
3E4
  8
NAVN
 10
2052.976106845694
 20
203.3875877374564
 30
0.0
  0
VERTEX
  5
3E5
  8
NAVN
 10
2053.056544806149
 20
203.3055310859552
 30
0.0
  0
VERTEX
  5
3E6
  8
NAVN
 10
2053.135704288778
 20
203.2206848675519
 30
0.0
  0
VERTEX
  5
3E7
  8
NAVN
 10
2053.21354625434
 20
203.1330314596607
 30
0.0
  0
VERTEX
  5
3E8
  8
NAVN
 10
2053.290031663595
 20
203.042553239694
 30
0.0
  0
VERTEX
  5
3E9
  8
NAVN
 10
2053.365121477302
 20
202.9492325850653
 30
0.0
  0
VERTEX
  5
3EA
  8
NAVN
 10
2053.438776656221
 20
202.8530518731872
 30
0.0
  0
VERTEX
  5
3EB
  8
NAVN
 10
2053.510958161111
 20
202.7539934814732
 30
0.0
  0
VERTEX
  5
3EC
  8
NAVN
 10
2053.581626952731
 20
202.652039787336
 30
0.0
  0
VERTEX
  5
3ED
  8
NAVN
 10
2053.65074399184
 20
202.5471731681897
 30
0.0
  0
VERTEX
  5
3EE
  8
NAVN
 10
2053.718270239198
 20
202.4393760014463
 30
0.0
  0
VERTEX
  5
3EF
  8
NAVN
 10
2053.784166655565
 20
202.3286306645193
 30
0.0
  0
SEQEND
  5
3F0
  8
NAVN
  0
POLYLINE
  5
3F1
  8
NAVN
 66
     1
 10
0.0
 20
0.0
 30
0.0
 70
     1
  0
VERTEX
  5
3F2
  8
NAVN
 10
2072.178644700759
 20
191.9248270710542
 30
0.0
  0
VERTEX
  5
3F3
  8
NAVN
 10
2066.087474851016
 20
210.0914739913422
 30
0.0
  0
VERTEX
  5
3F4
  8
NAVN
 10
2071.682802102464
 20
211.9675543050631
 30
0.0
  0
VERTEX
  5
3F5
  8
NAVN
 10
2071.81365817503
 20
212.0097215451096
 30
0.0
  0
VERTEX
  5
3F6
  8
NAVN
 10
2071.94348048015
 20
212.0481618766162
 30
0.0
  0
VERTEX
  5
3F7
  8
NAVN
 10
2072.072252845592
 20
212.0829235325636
 30
0.0
  0
VERTEX
  5
3F8
  8
NAVN
 10
2072.199959099122
 20
212.114054745931
 30
0.0
  0
VERTEX
  5
3F9
  8
NAVN
 10
2072.326583068504
 20
212.1416037496979
 30
0.0
  0
VERTEX
  5
3FA
  8
NAVN
 10
2072.452108581504
 20
212.1656187768446
 30
0.0
  0
VERTEX
  5
3FB
  8
NAVN
 10
2072.576519465888
 20
212.1861480603512
 30
0.0
  0
VERTEX
  5
3FC
  8
NAVN
 10
2072.69979954942
 20
212.203239833197
 30
0.0
  0
VERTEX
  5
3FD
  8
NAVN
 10
2072.821932659869
 20
212.2169423283615
 30
0.0
  0
VERTEX
  5
3FE
  8
NAVN
 10
2072.942902624998
 20
212.2273037788253
 30
0.0
  0
VERTEX
  5
3FF
  8
NAVN
 10
2073.062693272573
 20
212.2343724175677
 30
0.0
  0
VERTEX
  5
400
  8
NAVN
 10
2073.18128843036
 20
212.2381964775688
 30
0.0
  0
VERTEX
  5
401
  8
NAVN
 10
2073.298671926124
 20
212.238824191808
 30
0.0
  0
VERTEX
  5
402
  8
NAVN
 10
2073.414827587631
 20
212.2363037932651
 30
0.0
  0
VERTEX
  5
403
  8
NAVN
 10
2073.529739242647
 20
212.2306835149207
 30
0.0
  0
VERTEX
  5
404
  8
NAVN
 10
2073.643390718936
 20
212.2220115897534
 30
0.0
  0
VERTEX
  5
405
  8
NAVN
 10
2073.755765844266
 20
212.2103362507441
 30
0.0
  0
VERTEX
  5
406
  8
NAVN
 10
2073.866848446401
 20
212.1957057308716
 30
0.0
  0
VERTEX
  5
407
  8
NAVN
 10
2073.976622353107
 20
212.1781682631167
 30
0.0
  0
VERTEX
  5
408
  8
NAVN
 10
2074.085071392149
 20
212.1577720804586
 30
0.0
  0
VERTEX
  5
409
  8
NAVN
 10
2074.192179391294
 20
212.1345654158769
 30
0.0
  0
VERTEX
  5
40A
  8
NAVN
 10
2074.297930178306
 20
212.108596502352
 30
0.0
  0
VERTEX
  5
40B
  8
NAVN
 10
2074.402307580952
 20
212.0799135728633
 30
0.0
  0
VERTEX
  5
40C
  8
NAVN
 10
2074.505295426996
 20
212.0485648603904
 30
0.0
  0
VERTEX
  5
40D
  8
NAVN
 10
2074.606877544206
 20
212.0145985979139
 30
0.0
  0
VERTEX
  5
40E
  8
NAVN
 10
2074.707037760345
 20
211.9780630184131
 30
0.0
  0
VERTEX
  5
40F
  8
NAVN
 10
2074.80575990318
 20
211.9390063548674
 30
0.0
  0
VERTEX
  5
410
  8
NAVN
 10
2074.903027800476
 20
211.8974768402573
 30
0.0
  0
VERTEX
  5
411
  8
NAVN
 10
2074.99882528
 20
211.8535227075623
 30
0.0
  0
VERTEX
  5
412
  8
NAVN
 10
2075.093136169515
 20
211.8071921897618
 30
0.0
  0
VERTEX
  5
413
  8
NAVN
 10
2075.185944296789
 20
211.7585335198365
 30
0.0
  0
VERTEX
  5
414
  8
NAVN
 10
2075.277233489587
 20
211.7075949307654
 30
0.0
  0
VERTEX
  5
415
  8
NAVN
 10
2075.366987575674
 20
211.6544246555288
 30
0.0
  0
VERTEX
  5
416
  8
NAVN
 10
2075.455190382815
 20
211.5990709271062
 30
0.0
  0
VERTEX
  5
417
  8
NAVN
 10
2075.541825738777
 20
211.5415819784775
 30
0.0
  0
VERTEX
  5
418
  8
NAVN
 10
2075.626877471326
 20
211.4820060426225
 30
0.0
  0
VERTEX
  5
419
  8
NAVN
 10
2075.710329408226
 20
211.4203913525208
 30
0.0
  0
VERTEX
  5
41A
  8
NAVN
 10
2075.792165377244
 20
211.3567861411527
 30
0.0
  0
VERTEX
  5
41B
  8
NAVN
 10
2075.872369206144
 20
211.2912386414974
 30
0.0
  0
VERTEX
  5
41C
  8
NAVN
 10
2075.950924722693
 20
211.2237970865355
 30
0.0
  0
VERTEX
  5
41D
  8
NAVN
 10
2076.027815754656
 20
211.1545097092457
 30
0.0
  0
VERTEX
  5
41E
  8
NAVN
 10
2076.103026129798
 20
211.0834247426083
 30
0.0
  0
VERTEX
  5
41F
  8
NAVN
 10
2076.176539675886
 20
211.0105904196038
 30
0.0
  0
VERTEX
  5
420
  8
NAVN
 10
2076.248340220685
 20
210.9360549732114
 30
0.0
  0
VERTEX
  5
421
  8
NAVN
 10
2076.31841159196
 20
210.8598666364105
 30
0.0
  0
VERTEX
  5
422
  8
NAVN
 10
2076.386737617477
 20
210.7820736421814
 30
0.0
  0
VERTEX
  5
423
  8
NAVN
 10
2076.453302125002
 20
210.7027242235035
 30
0.0
  0
VERTEX
  5
424
  8
NAVN
 10
2076.5180889423
 20
210.6218666133573
 30
0.0
  0
VERTEX
  5
425
  8
NAVN
 10
2076.581081897137
 20
210.5395490447219
 30
0.0
  0
VERTEX
  5
426
  8
NAVN
 10
2076.642264817278
 20
210.4558197505776
 30
0.0
  0
VERTEX
  5
427
  8
NAVN
 10
2076.70162153049
 20
210.3707269639041
 30
0.0
  0
VERTEX
  5
428
  8
NAVN
 10
2076.759135864537
 20
210.2843189176811
 30
0.0
  0
VERTEX
  5
429
  8
NAVN
 10
2076.814791647185
 20
210.1966438448877
 30
0.0
  0
VERTEX
  5
42A
  8
NAVN
 10
2076.8685727062
 20
210.107749978505
 30
0.0
  0
VERTEX
  5
42B
  8
NAVN
 10
2076.920462869348
 20
210.0176855515121
 30
0.0
  0
VERTEX
  5
42C
  8
NAVN
 10
2076.970445964394
 20
209.9264987968889
 30
0.0
  0
VERTEX
  5
42D
  8
NAVN
 10
2077.018505819103
 20
209.834237947615
 30
0.0
  0
VERTEX
  5
42E
  8
NAVN
 10
2077.064626261241
 20
209.7409512366708
 30
0.0
  0
VERTEX
  5
42F
  8
NAVN
 10
2077.108791118575
 20
209.6466868970351
 30
0.0
  0
VERTEX
  5
430
  8
NAVN
 10
2077.150984218869
 20
209.5514931616886
 30
0.0
  0
VERTEX
  5
431
  8
NAVN
 10
2077.191189389888
 20
209.4554182636106
 30
0.0
  0
VERTEX
  5
432
  8
NAVN
 10
2077.2293904594
 20
209.3585104357815
 30
0.0
  0
VERTEX
  5
433
  8
NAVN
 10
2077.265571255168
 20
209.2608179111804
 30
0.0
  0
VERTEX
  5
434
  8
NAVN
 10
2077.29971560496
 20
209.1623889227872
 30
0.0
  0
VERTEX
  5
435
  8
NAVN
 10
2077.33180733654
 20
209.0632717035822
 30
0.0
  0
VERTEX
  5
436
  8
NAVN
 10
2077.361830277673
 20
208.9635144865445
 30
0.0
  0
VERTEX
  5
437
  8
NAVN
 10
2077.389768256127
 20
208.8631655046547
 30
0.0
  0
VERTEX
  5
438
  8
NAVN
 10
2077.415605099665
 20
208.7622729908915
 30
0.0
  0
VERTEX
  5
439
  8
NAVN
 10
2077.439324636054
 20
208.6608851782362
 30
0.0
  0
VERTEX
  5
43A
  8
NAVN
 10
2077.46091069306
 20
208.5590502996673
 30
0.0
  0
VERTEX
  5
43B
  8
NAVN
 10
2077.480347098448
 20
208.4568165881651
 30
0.0
  0
VERTEX
  5
43C
  8
NAVN
 10
2077.497617679983
 20
208.3542322767096
 30
0.0
  0
VERTEX
  5
43D
  8
NAVN
 10
2077.512706265432
 20
208.25134559828
 30
0.0
  0
VERTEX
  5
43E
  8
NAVN
 10
2077.525596682559
 20
208.1482047858568
 30
0.0
  0
VERTEX
  5
43F
  8
NAVN
 10
2077.53627275913
 20
208.0448580724195
 30
0.0
  0
VERTEX
  5
440
  8
NAVN
 10
2077.544718322912
 20
207.9413536909477
 30
0.0
  0
VERTEX
  5
441
  8
NAVN
 10
2077.550917201669
 20
207.8377398744214
 30
0.0
  0
VERTEX
  5
442
  8
NAVN
 10
2077.554853223167
 20
207.7340648558202
 30
0.0
  0
VERTEX
  5
443
  8
NAVN
 10
2077.556510215172
 20
207.6303768681241
 30
0.0
  0
VERTEX
  5
444
  8
NAVN
 10
2077.55587200545
 20
207.5267241443132
 30
0.0
  0
VERTEX
  5
445
  8
NAVN
 10
2077.552922421765
 20
207.4231549173666
 30
0.0
  0
VERTEX
  5
446
  8
NAVN
 10
2077.547645291884
 20
207.3197174202649
 30
0.0
  0
VERTEX
  5
447
  8
NAVN
 10
2077.540024443572
 20
207.216459885987
 30
0.0
  0
VERTEX
  5
448
  8
NAVN
 10
2077.530043704595
 20
207.1134305475136
 30
0.0
  0
VERTEX
  5
449
  8
NAVN
 10
2077.517686902718
 20
207.0106776378236
 30
0.0
  0
VERTEX
  5
44A
  8
NAVN
 10
2077.502937865707
 20
206.9082493898975
 30
0.0
  0
VERTEX
  5
44B
  8
NAVN
 10
2077.485780421328
 20
206.8061940367149
 30
0.0
  0
VERTEX
  5
44C
  8
NAVN
 10
2077.466198397346
 20
206.7045598112554
 30
0.0
  0
VERTEX
  5
44D
  8
NAVN
 10
2077.444175621526
 20
206.6033949464991
 30
0.0
  0
VERTEX
  5
44E
  8
NAVN
 10
2077.419695921634
 20
206.5027476754256
 30
0.0
  0
VERTEX
  5
44F
  8
NAVN
 10
2077.392743125437
 20
206.4026662310146
 30
0.0
  0
VERTEX
  5
450
  8
NAVN
 10
2077.363301060699
 20
206.3031988462466
 30
0.0
  0
VERTEX
  5
451
  8
NAVN
 10
2077.331353555186
 20
206.2043937541002
 30
0.0
  0
VERTEX
  5
452
  8
NAVN
 10
2077.296884436664
 20
206.1062991875563
 30
0.0
  0
VERTEX
  5
453
  8
NAVN
 10
2077.259877532899
 20
206.0089633795939
 30
0.0
  0
VERTEX
  5
454
  8
NAVN
 10
2077.220316671655
 20
205.9124345631932
 30
0.0
  0
VERTEX
  5
455
  8
NAVN
 10
2077.178185680698
 20
205.8167609713344
 30
0.0
  0
VERTEX
  5
456
  8
NAVN
 10
2077.133468387795
 20
205.7219908369964
 30
0.0
  0
VERTEX
  5
457
  8
NAVN
 10
2077.086148620711
 20
205.62817239316
 30
0.0
  0
VERTEX
  5
458
  8
NAVN
 10
2077.036210207211
 20
205.5353538728039
 30
0.0
  0
VERTEX
  5
459
  8
NAVN
 10
2076.98363697506
 20
205.4435835089085
 30
0.0
  0
VERTEX
  5
45A
  8
NAVN
 10
2076.928412752025
 20
205.3529095344537
 30
0.0
  0
VERTEX
  5
45B
  8
NAVN
 10
2076.870521365871
 20
205.2633801824189
 30
0.0
  0
VERTEX
  5
45C
  8
NAVN
 10
2076.809946644364
 20
205.1750436857845
 30
0.0
  0
VERTEX
  5
45D
  8
NAVN
 10
2076.746672415269
 20
205.08794827753
 30
0.0
  0
VERTEX
  5
45E
  8
NAVN
 10
2076.680682506352
 20
205.0021421906352
 30
0.0
  0
VERTEX
  5
45F
  8
NAVN
 10
2076.611960745379
 20
204.9176736580794
 30
0.0
  0
VERTEX
  5
460
  8
NAVN
 10
2076.540490960114
 20
204.8345909128431
 30
0.0
  0
VERTEX
  5
461
  8
NAVN
 10
2076.466256978324
 20
204.7529421879059
 30
0.0
  0
VERTEX
  5
462
  8
NAVN
 10
2076.389242627775
 20
204.6727757162473
 30
0.0
  0
VERTEX
  5
463
  8
NAVN
 10
2076.309431736231
 20
204.5941397308479
 30
0.0
  0
VERTEX
  5
464
  8
NAVN
 10
2076.226808131459
 20
204.5170824646861
 30
0.0
  0
VERTEX
  5
465
  8
NAVN
 10
2076.141355641224
 20
204.4416521507432
 30
0.0
  0
VERTEX
  5
466
  8
NAVN
 10
2076.053058093291
 20
204.3678970219981
 30
0.0
  0
VERTEX
  5
467
  8
NAVN
 10
2075.961899315426
 20
204.2958653114311
 30
0.0
  0
VERTEX
  5
468
  8
NAVN
 10
2075.867863135396
 20
204.2256052520214
 30
0.0
  0
VERTEX
  5
469
  8
NAVN
 10
2075.770933380965
 20
204.1571650767493
 30
0.0
  0
VERTEX
  5
46A
  8
NAVN
 10
2075.671093879899
 20
204.0905930185943
 30
0.0
  0
VERTEX
  5
46B
  8
NAVN
 10
2075.568328459963
 20
204.0259373105362
 30
0.0
  0
VERTEX
  5
46C
  8
NAVN
 10
2075.462620948924
 20
203.9632461855553
 30
0.0
  0
VERTEX
  5
46D
  8
NAVN
 10
2075.353955174546
 20
203.9025678766309
 30
0.0
  0
VERTEX
  5
46E
  8
NAVN
 10
2075.242314964597
 20
203.8439506167431
 30
0.0
  0
VERTEX
  5
46F
  8
NAVN
 10
2075.127684146839
 20
203.7874426388717
 30
0.0
  0
VERTEX
  5
470
  8
NAVN
 10
2075.010046549041
 20
203.7330921759958
 30
0.0
  0
VERTEX
  5
471
  8
NAVN
 10
2074.889385998967
 20
203.6809474610957
 30
0.0
  0
VERTEX
  5
472
  8
NAVN
 10
2074.765686324382
 20
203.6310567271519
 30
0.0
  0
VERTEX
  5
473
  8
NAVN
 10
2074.638931353054
 20
203.5834682071433
 30
0.0
  0
VERTEX
  5
474
  8
NAVN
 10
2074.509104912745
 20
203.5382301340497
 30
0.0
  0
VERTEX
  5
475
  8
NAVN
 10
2068.913777661297
 20
201.6621498203286
 30
0.0
  0
VERTEX
  5
476
  8
NAVN
 10
2074.073105386659
 20
203.3920420576556
 30
0.0
  0
VERTEX
  5
477
  8
NAVN
 10
2074.197086464236
 20
203.4318638028201
 30
0.0
  0
VERTEX
  5
478
  8
NAVN
 10
2074.321361611835
 20
203.4683156941064
 30
0.0
  0
VERTEX
  5
479
  8
NAVN
 10
2074.4458798605
 20
203.5014231037247
 30
0.0
  0
VERTEX
  5
47A
  8
NAVN
 10
2074.570590241278
 20
203.5312114038856
 30
0.0
  0
VERTEX
  5
47B
  8
NAVN
 10
2074.695441785214
 20
203.5577059668003
 30
0.0
  0
VERTEX
  5
47C
  8
NAVN
 10
2074.820383523355
 20
203.5809321646787
 30
0.0
  0
VERTEX
  5
47D
  8
NAVN
 10
2074.945364486747
 20
203.6009153697315
 30
0.0
  0
VERTEX
  5
47E
  8
NAVN
 10
2075.070333706436
 20
203.6176809541697
 30
0.0
  0
VERTEX
  5
47F
  8
NAVN
 10
2075.195240213467
 20
203.6312542902035
 30
0.0
  0
VERTEX
  5
480
  8
NAVN
 10
2075.320033038887
 20
203.6416607500436
 30
0.0
  0
VERTEX
  5
481
  8
NAVN
 10
2075.444661213742
 20
203.6489257059006
 30
0.0
  0
VERTEX
  5
482
  8
NAVN
 10
2075.569073769077
 20
203.6530745299848
 30
0.0
  0
VERTEX
  5
483
  8
NAVN
 10
2075.693219735939
 20
203.6541325945073
 30
0.0
  0
VERTEX
  5
484
  8
NAVN
 10
2075.817048145374
 20
203.6521252716782
 30
0.0
  0
VERTEX
  5
485
  8
NAVN
 10
2075.940508028428
 20
203.6470779337085
 30
0.0
  0
VERTEX
  5
486
  8
NAVN
 10
2076.063548416146
 20
203.6390159528085
 30
0.0
  0
VERTEX
  5
487
  8
NAVN
 10
2076.186118339575
 20
203.6279647011887
 30
0.0
  0
VERTEX
  5
488
  8
NAVN
 10
2076.30816682976
 20
203.6139495510602
 30
0.0
  0
VERTEX
  5
489
  8
NAVN
 10
2076.429642917749
 20
203.5969958746326
 30
0.0
  0
VERTEX
  5
48A
  8
NAVN
 10
2076.550495634586
 20
203.5771290441176
 30
0.0
  0
VERTEX
  5
48B
  8
NAVN
 10
2076.670674011317
 20
203.5543744317252
 30
0.0
  0
VERTEX
  5
48C
  8
NAVN
 10
2076.79012707899
 20
203.5287574096658
 30
0.0
  0
VERTEX
  5
48D
  8
NAVN
 10
2076.908803868649
 20
203.5003033501503
 30
0.0
  0
VERTEX
  5
48E
  8
NAVN
 10
2077.026653411341
 20
203.4690376253893
 30
0.0
  0
VERTEX
  5
48F
  8
NAVN
 10
2077.143624738112
 20
203.4349856075934
 30
0.0
  0
VERTEX
  5
490
  8
NAVN
 10
2077.259666880007
 20
203.3981726689729
 30
0.0
  0
VERTEX
  5
491
  8
NAVN
 10
2077.374728868073
 20
203.3586241817387
 30
0.0
  0
VERTEX
  5
492
  8
NAVN
 10
2077.488759733356
 20
203.3163655181011
 30
0.0
  0
VERTEX
  5
493
  8
NAVN
 10
2077.601708506901
 20
203.2714220502712
 30
0.0
  0
VERTEX
  5
494
  8
NAVN
 10
2077.713524219756
 20
203.2238191504586
 30
0.0
  0
VERTEX
  5
495
  8
NAVN
 10
2077.824155902964
 20
203.1735821908745
 30
0.0
  0
VERTEX
  5
496
  8
NAVN
 10
2077.933552587574
 20
203.1207365437299
 30
0.0
  0
VERTEX
  5
497
  8
NAVN
 10
2078.041663304631
 20
203.0653075812345
 30
0.0
  0
VERTEX
  5
498
  8
NAVN
 10
2078.14843708518
 20
203.0073206755997
 30
0.0
  0
VERTEX
  5
499
  8
NAVN
 10
2078.253822960268
 20
202.9468011990355
 30
0.0
  0
VERTEX
  5
49A
  8
NAVN
 10
2078.357769960941
 20
202.8837745237527
 30
0.0
  0
VERTEX
  5
49B
  8
NAVN
 10
2078.460227118244
 20
202.8182660219618
 30
0.0
  0
VERTEX
  5
49C
  8
NAVN
 10
2078.561143463224
 20
202.7503010658737
 30
0.0
  0
VERTEX
  5
49D
  8
NAVN
 10
2078.660468026927
 20
202.6799050276987
 30
0.0
  0
VERTEX
  5
49E
  8
NAVN
 10
2078.758149840399
 20
202.6071032796468
 30
0.0
  0
VERTEX
  5
49F
  8
NAVN
 10
2078.854137934685
 20
202.5319211939301
 30
0.0
  0
VERTEX
  5
4A0
  8
NAVN
 10
2078.948381340833
 20
202.4543841427576
 30
0.0
  0
VERTEX
  5
4A1
  8
NAVN
 10
2079.040829089886
 20
202.3745174983408
 30
0.0
  0
VERTEX
  5
4A2
  8
NAVN
 10
2079.131430212893
 20
202.2923466328899
 30
0.0
  0
VERTEX
  5
4A3
  8
NAVN
 10
2079.220133740898
 20
202.2078969186156
 30
0.0
  0
VERTEX
  5
4A4
  8
NAVN
 10
2079.306888704949
 20
202.1211937277284
 30
0.0
  0
VERTEX
  5
4A5
  8
NAVN
 10
2079.391644136089
 20
202.0322624324394
 30
0.0
  0
VERTEX
  5
4A6
  8
NAVN
 10
2079.474349065367
 20
201.9411284049584
 30
0.0
  0
VERTEX
  5
4A7
  8
NAVN
 10
2079.554952523828
 20
201.8478170174963
 30
0.0
  0
VERTEX
  5
4A8
  8
NAVN
 10
2079.633403542517
 20
201.7523536422636
 30
0.0
  0
VERTEX
  5
4A9
  8
NAVN
 10
2079.709651152481
 20
201.6547636514711
 30
0.0
  0
VERTEX
  5
4AA
  8
NAVN
 10
2079.783644384766
 20
201.5550724173293
 30
0.0
  0
VERTEX
  5
4AB
  8
NAVN
 10
2079.855332270417
 20
201.4533053120491
 30
0.0
  0
VERTEX
  5
4AC
  8
NAVN
 10
2079.924663840481
 20
201.3494877078402
 30
0.0
  0
VERTEX
  5
4AD
  8
NAVN
 10
2079.991588126005
 20
201.2436449769139
 30
0.0
  0
VERTEX
  5
4AE
  8
NAVN
 10
2080.056054158032
 20
201.1358024914808
 30
0.0
  0
VERTEX
  5
4AF
  8
NAVN
 10
2080.118010967611
 20
201.0259856237511
 30
0.0
  0
VERTEX
  5
4B0
  8
NAVN
 10
2080.177407585786
 20
200.9142197459356
 30
0.0
  0
VERTEX
  5
4B1
  8
NAVN
 10
2080.234193043604
 20
200.8005302302446
 30
0.0
  0
VERTEX
  5
4B2
  8
NAVN
 10
2080.288316372111
 20
200.6849424488893
 30
0.0
  0
VERTEX
  5
4B3
  8
NAVN
 10
2080.339726602353
 20
200.5674817740797
 30
0.0
  0
VERTEX
  5
4B4
  8
NAVN
 10
2080.388372765376
 20
200.4481735780262
 30
0.0
  0
VERTEX
  5
4B5
  8
NAVN
 10
2080.434203892225
 20
200.3270432329405
 30
0.0
  0
VERTEX
  5
4B6
  8
NAVN
 10
2080.477169013947
 20
200.2041161110319
 30
0.0
  0
VERTEX
  5
4B7
  8
NAVN
 10
2080.525898372745
 20
200.0587829356695
 30
0.0
  0
VERTEX
  5
4B8
  8
NAVN
 10
2080.565720117909
 20
199.9348018580918
 30
0.0
  0
VERTEX
  5
4B9
  8
NAVN
 10
2080.602172009195
 20
199.8105267104933
 30
0.0
  0
VERTEX
  5
4BA
  8
NAVN
 10
2080.635279418814
 20
199.6860084618283
 30
0.0
  0
VERTEX
  5
4BB
  8
NAVN
 10
2080.665067718975
 20
199.5612980810504
 30
0.0
  0
VERTEX
  5
4BC
  8
NAVN
 10
2080.691562281889
 20
199.436446537114
 30
0.0
  0
VERTEX
  5
4BD
  8
NAVN
 10
2080.714788479768
 20
199.3115047989727
 30
0.0
  0
VERTEX
  5
4BE
  8
NAVN
 10
2080.734771684821
 20
199.1865238355811
 30
0.0
  0
VERTEX
  5
4BF
  8
NAVN
 10
2080.751537269259
 20
199.0615546158921
 30
0.0
  0
VERTEX
  5
4C0
  8
NAVN
 10
2080.765110605293
 20
198.936648108861
 30
0.0
  0
VERTEX
  5
4C1
  8
NAVN
 10
2080.775517065133
 20
198.811855283441
 30
0.0
  0
VERTEX
  5
4C2
  8
NAVN
 10
2080.78278202099
 20
198.6872271085863
 30
0.0
  0
VERTEX
  5
4C3
  8
NAVN
 10
2080.786930845074
 20
198.562814553251
 30
0.0
  0
VERTEX
  5
4C4
  8
NAVN
 10
2080.787988909597
 20
198.4386685863888
 30
0.0
  0
VERTEX
  5
4C5
  8
NAVN
 10
2080.785981586767
 20
198.3148401769542
 30
0.0
  0
VERTEX
  5
4C6
  8
NAVN
 10
2080.780934248798
 20
198.1913802939009
 30
0.0
  0
VERTEX
  5
4C7
  8
NAVN
 10
2080.772872267898
 20
198.0683399061823
 30
0.0
  0
VERTEX
  5
4C8
  8
NAVN
 10
2080.761821016278
 20
197.9457699827538
 30
0.0
  0
VERTEX
  5
4C9
  8
NAVN
 10
2080.747805866149
 20
197.8237214925682
 30
0.0
  0
VERTEX
  5
4CA
  8
NAVN
 10
2080.730852189722
 20
197.7022454045797
 30
0.0
  0
VERTEX
  5
4CB
  8
NAVN
 10
2080.710985359207
 20
197.5813926877427
 30
0.0
  0
VERTEX
  5
4CC
  8
NAVN
 10
2080.688230746814
 20
197.4612143110108
 30
0.0
  0
VERTEX
  5
4CD
  8
NAVN
 10
2080.662613724755
 20
197.3417612433387
 30
0.0
  0
VERTEX
  5
4CE
  8
NAVN
 10
2080.634159665239
 20
197.2230844536792
 30
0.0
  0
VERTEX
  5
4CF
  8
NAVN
 10
2080.602893940479
 20
197.1052349109871
 30
0.0
  0
VERTEX
  5
4D0
  8
NAVN
 10
2080.568841922683
 20
196.9882635842167
 30
0.0
  0
VERTEX
  5
4D1
  8
NAVN
 10
2080.532028984062
 20
196.8722214423213
 30
0.0
  0
VERTEX
  5
4D2
  8
NAVN
 10
2080.492480496828
 20
196.7571594542551
 30
0.0
  0
VERTEX
  5
4D3
  8
NAVN
 10
2080.45022183319
 20
196.6431285889726
 30
0.0
  0
VERTEX
  5
4D4
  8
NAVN
 10
2080.40527836536
 20
196.5301798154268
 30
0.0
  0
VERTEX
  5
4D5
  8
NAVN
 10
2080.357675465548
 20
196.4183641025728
 30
0.0
  0
VERTEX
  5
4D6
  8
NAVN
 10
2080.307438505964
 20
196.3077324193634
 30
0.0
  0
VERTEX
  5
4D7
  8
NAVN
 10
2080.254592858819
 20
196.1983357347538
 30
0.0
  0
VERTEX
  5
4D8
  8
NAVN
 10
2080.199163896324
 20
196.0902250176976
 30
0.0
  0
VERTEX
  5
4D9
  8
NAVN
 10
2080.141176990689
 20
195.9834512371486
 30
0.0
  0
VERTEX
  5
4DA
  8
NAVN
 10
2080.080657514125
 20
195.8780653620605
 30
0.0
  0
VERTEX
  5
4DB
  8
NAVN
 10
2080.017630838842
 20
195.7741183613876
 30
0.0
  0
VERTEX
  5
4DC
  8
NAVN
 10
2079.952122337051
 20
195.6716612040844
 30
0.0
  0
VERTEX
  5
4DD
  8
NAVN
 10
2079.884157380963
 20
195.5707448591043
 30
0.0
  0
VERTEX
  5
4DE
  8
NAVN
 10
2079.813761342788
 20
195.4714202954013
 30
0.0
  0
VERTEX
  5
4DF
  8
NAVN
 10
2079.740959594736
 20
195.3737384819295
 30
0.0
  0
VERTEX
  5
4E0
  8
NAVN
 10
2079.665777509019
 20
195.2777503876433
 30
0.0
  0
VERTEX
  5
4E1
  8
NAVN
 10
2079.588240457847
 20
195.1835069814959
 30
0.0
  0
VERTEX
  5
4E2
  8
NAVN
 10
2079.50837381343
 20
195.0910592324421
 30
0.0
  0
VERTEX
  5
4E3
  8
NAVN
 10
2079.426202947979
 20
195.0004581094354
 30
0.0
  0
VERTEX
  5
4E4
  8
NAVN
 10
2079.341753233704
 20
194.91175458143
 30
0.0
  0
VERTEX
  5
4E5
  8
NAVN
 10
2079.255050042818
 20
194.8249996173798
 30
0.0
  0
VERTEX
  5
4E6
  8
NAVN
 10
2079.166118747528
 20
194.740244186239
 30
0.0
  0
VERTEX
  5
4E7
  8
NAVN
 10
2079.074984720047
 20
194.6575392569613
 30
0.0
  0
VERTEX
  5
4E8
  8
NAVN
 10
2078.981673332585
 20
194.5769357985008
 30
0.0
  0
VERTEX
  5
4E9
  8
NAVN
 10
2078.886209957353
 20
194.4984847798112
 30
0.0
  0
VERTEX
  5
4EA
  8
NAVN
 10
2078.788619966561
 20
194.4222371698474
 30
0.0
  0
VERTEX
  5
4EB
  8
NAVN
 10
2078.688928732419
 20
194.3482439375628
 30
0.0
  0
VERTEX
  5
4EC
  8
NAVN
 10
2078.587161627138
 20
194.2765560519112
 30
0.0
  0
VERTEX
  5
4ED
  8
NAVN
 10
2078.48334402293
 20
194.2072244818468
 30
0.0
  0
VERTEX
  5
4EE
  8
NAVN
 10
2078.377501292003
 20
194.1403001963241
 30
0.0
  0
VERTEX
  5
4EF
  8
NAVN
 10
2078.26965880657
 20
194.0758341642958
 30
0.0
  0
VERTEX
  5
4F0
  8
NAVN
 10
2078.15984193884
 20
194.0138773547173
 30
0.0
  0
VERTEX
  5
4F1
  8
NAVN
 10
2078.048076061025
 20
193.9544807365419
 30
0.0
  0
VERTEX
  5
4F2
  8
NAVN
 10
2077.934386545334
 20
193.8976952787239
 30
0.0
  0
VERTEX
  5
4F3
  8
NAVN
 10
2077.818798763979
 20
193.843571950217
 30
0.0
  0
VERTEX
  5
4F4
  8
NAVN
 10
2077.701338089169
 20
193.792161719975
 30
0.0
  0
VERTEX
  5
4F5
  8
NAVN
 10
2077.582029893116
 20
193.7435155569527
 30
0.0
  0
VERTEX
  5
4F6
  8
NAVN
 10
2077.460899548029
 20
193.6976844301033
 30
0.0
  0
VERTEX
  5
4F7
  8
NAVN
 10
2077.337972426121
 20
193.6547193083813
 30
0.0
  0
SEQEND
  5
4F8
  8
NAVN
  0
POLYLINE
  5
4F9
  8
NAVN
 66
     1
 10
0.0
 20
0.0
 30
0.0
  0
VERTEX
  5
4FA
  8
NAVN
 10
2086.187551695891
 20
196.6219311811864
 30
0.0
  0
VERTEX
  5
4FB
  8
NAVN
 10
2080.096381846147
 20
214.7885781014743
 30
0.0
  0
VERTEX
  5
4FC
  8
NAVN
 10
2084.601710282379
 20
216.2991882242112
 30
0.0
  0
VERTEX
  5
4FD
  8
NAVN
 10
2084.737090287222
 20
216.3428134145062
 30
0.0
  0
VERTEX
  5
4FE
  8
NAVN
 10
2084.871400693941
 20
216.3825831206393
 30
0.0
  0
VERTEX
  5
4FF
  8
NAVN
 10
2085.00462477264
 20
216.4185472387958
 30
0.0
  0
VERTEX
  5
500
  8
NAVN
 10
2085.136745793419
 20
216.4507556651623
 30
0.0
  0
VERTEX
  5
501
  8
NAVN
 10
2085.267747026382
 20
216.4792582959241
 30
0.0
  0
VERTEX
  5
502
  8
NAVN
 10
2085.39761174163
 20
216.5041050272677
 30
0.0
  0
VERTEX
  5
503
  8
NAVN
 10
2085.526323209266
 20
216.5253457553794
 30
0.0
  0
VERTEX
  5
504
  8
NAVN
 10
2085.653864699393
 20
216.5430303764445
 30
0.0
  0
VERTEX
  5
505
  8
NAVN
 10
2085.780219482113
 20
216.5572087866491
 30
0.0
  0
VERTEX
  5
506
  8
NAVN
 10
2085.905370827527
 20
216.5679308821795
 30
0.0
  0
VERTEX
  5
507
  8
NAVN
 10
2086.02930200574
 20
216.5752465592219
 30
0.0
  0
VERTEX
  5
508
  8
NAVN
 10
2086.151996286852
 20
216.5792057139616
 30
0.0
  0
VERTEX
  5
509
  8
NAVN
 10
2086.273436940965
 20
216.5798582425851
 30
0.0
  0
VERTEX
  5
50A
  8
NAVN
 10
2086.393607238184
 20
216.5772540412782
 30
0.0
  0
VERTEX
  5
50B
  8
NAVN
 10
2086.512490448609
 20
216.5714430062271
 30
0.0
  0
VERTEX
  5
50C
  8
NAVN
 10
2086.630069842343
 20
216.5624750336177
 30
0.0
  0
VERTEX
  5
50D
  8
NAVN
 10
2086.746328689489
 20
216.5504000196359
 30
0.0
  0
VERTEX
  5
50E
  8
NAVN
 10
2086.861250260149
 20
216.535267860468
 30
0.0
  0
VERTEX
  5
50F
  8
NAVN
 10
2086.974817824425
 20
216.5171284522993
 30
0.0
  0
VERTEX
  5
510
  8
NAVN
 10
2087.08701465242
 20
216.4960316913165
 30
0.0
  0
VERTEX
  5
511
  8
NAVN
 10
2087.197824014234
 20
216.4720274737056
 30
0.0
  0
VERTEX
  5
512
  8
NAVN
 10
2087.307229179973
 20
216.445165695652
 30
0.0
  0
VERTEX
  5
513
  8
NAVN
 10
2087.415213419737
 20
216.4154962533428
 30
0.0
  0
VERTEX
  5
514
  8
NAVN
 10
2087.521760003629
 20
216.3830690429627
 30
0.0
  0
VERTEX
  5
515
  8
NAVN
 10
2087.62685220175
 20
216.3479339606983
 30
0.0
  0
VERTEX
  5
516
  8
NAVN
 10
2087.730473284205
 20
216.3101409027354
 30
0.0
  0
VERTEX
  5
517
  8
NAVN
 10
2087.832606521095
 20
216.2697397652607
 30
0.0
  0
VERTEX
  5
518
  8
NAVN
 10
2087.933235182522
 20
216.2267804444593
 30
0.0
  0
VERTEX
  5
519
  8
NAVN
 10
2088.032342538588
 20
216.1813128365179
 30
0.0
  0
VERTEX
  5
51A
  8
NAVN
 10
2088.129911859396
 20
216.1333868376219
 30
0.0
  0
VERTEX
  5
51B
  8
NAVN
 10
2088.225926415048
 20
216.0830523439575
 30
0.0
  0
VERTEX
  5
51C
  8
NAVN
 10
2088.320369475648
 20
216.030359251711
 30
0.0
  0
VERTEX
  5
51D
  8
NAVN
 10
2088.413224311296
 20
215.9753574570677
 30
0.0
  0
VERTEX
  5
51E
  8
NAVN
 10
2088.504474192095
 20
215.9180968562148
 30
0.0
  0
VERTEX
  5
51F
  8
NAVN
 10
2088.594102388147
 20
215.858627345337
 30
0.0
  0
VERTEX
  5
520
  8
NAVN
 10
2088.682092169556
 20
215.7969988206214
 30
0.0
  0
VERTEX
  5
521
  8
NAVN
 10
2088.768426806423
 20
215.7332611782529
 30
0.0
  0
VERTEX
  5
522
  8
NAVN
 10
2088.853089568851
 20
215.6674643144186
 30
0.0
  0
VERTEX
  5
523
  8
NAVN
 10
2088.936063726942
 20
215.5996581253035
 30
0.0
  0
VERTEX
  5
524
  8
NAVN
 10
2089.017332550799
 20
215.5298925070941
 30
0.0
  0
VERTEX
  5
525
  8
NAVN
 10
2089.096879310522
 20
215.4582173559768
 30
0.0
  0
VERTEX
  5
526
  8
NAVN
 10
2089.174687276216
 20
215.384682568137
 30
0.0
  0
VERTEX
  5
527
  8
NAVN
 10
2089.250739717983
 20
215.3093380397605
 30
0.0
  0
VERTEX
  5
528
  8
NAVN
 10
2089.325019905923
 20
215.2322336670339
 30
0.0
  0
VERTEX
  5
529
  8
NAVN
 10
2089.397511110141
 20
215.1534193461429
 30
0.0
  0
VERTEX
  5
52A
  8
NAVN
 10
2089.468196600738
 20
215.0729449732739
 30
0.0
  0
VERTEX
  5
52B
  8
NAVN
 10
2089.537059647818
 20
214.990860444612
 30
0.0
  0
VERTEX
  5
52C
  8
NAVN
 10
2089.604083521481
 20
214.9072156563441
 30
0.0
  0
VERTEX
  5
52D
  8
NAVN
 10
2089.669251491831
 20
214.8220605046558
 30
0.0
  0
VERTEX
  5
52E
  8
NAVN
 10
2089.732546828968
 20
214.7354448857334
 30
0.0
  0
VERTEX
  5
52F
  8
NAVN
 10
2089.793952802998
 20
214.6474186957622
 30
0.0
  0
VERTEX
  5
530
  8
NAVN
 10
2089.85345268402
 20
214.558031830929
 30
0.0
  0
VERTEX
  5
531
  8
NAVN
 10
2089.911029742139
 20
214.4673341874192
 30
0.0
  0
VERTEX
  5
532
  8
NAVN
 10
2089.966667247456
 20
214.3753756614191
 30
0.0
  0
VERTEX
  5
533
  8
NAVN
 10
2090.020348470073
 20
214.2822061491152
 30
0.0
  0
VERTEX
  5
534
  8
NAVN
 10
2090.072056680093
 20
214.1878755466925
 30
0.0
  0
VERTEX
  5
535
  8
NAVN
 10
2090.121775147618
 20
214.0924337503374
 30
0.0
  0
VERTEX
  5
536
  8
NAVN
 10
2090.169487142751
 20
213.9959306562359
 30
0.0
  0
VERTEX
  5
537
  8
NAVN
 10
2090.215175935593
 20
213.8984161605743
 30
0.0
  0
VERTEX
  5
538
  8
NAVN
 10
2090.258824796248
 20
213.799940159538
 30
0.0
  0
VERTEX
  5
539
  8
NAVN
 10
2090.300416994817
 20
213.7005525493138
 30
0.0
  0
VERTEX
  5
53A
  8
NAVN
 10
2090.339935801402
 20
213.600303226087
 30
0.0
  0
VERTEX
  5
53B
  8
NAVN
 10
2090.377364486108
 20
213.4992420860439
 30
0.0
  0
VERTEX
  5
53C
  8
NAVN
 10
2090.412686319034
 20
213.3974190253707
 30
0.0
  0
VERTEX
  5
53D
  8
NAVN
 10
2090.445884570285
 20
213.2948839402528
 30
0.0
  0
VERTEX
  5
53E
  8
NAVN
 10
2090.476942509961
 20
213.1916867268769
 30
0.0
  0
VERTEX
  5
53F
  8
NAVN
 10
2090.505843408167
 20
213.0878772814281
 30
0.0
  0
VERTEX
  5
540
  8
NAVN
 10
2090.532570535003
 20
212.9835055000934
 30
0.0
  0
VERTEX
  5
541
  8
NAVN
 10
2090.557107160572
 20
212.8786212790579
 30
0.0
  0
VERTEX
  5
542
  8
NAVN
 10
2090.579436554977
 20
212.7732745145086
 30
0.0
  0
VERTEX
  5
543
  8
NAVN
 10
2090.59954198832
 20
212.6675151026306
 30
0.0
  0
VERTEX
  5
544
  8
NAVN
 10
2090.617406730703
 20
212.5613929396104
 30
0.0
  0
VERTEX
  5
545
  8
NAVN
 10
2090.633014052229
 20
212.4549579216337
 30
0.0
  0
VERTEX
  5
546
  8
NAVN
 10
2090.646347222999
 20
212.3482599448867
 30
0.0
  0
VERTEX
  5
547
  8
NAVN
 10
2090.657389513117
 20
212.2413489055554
 30
0.0
  0
VERTEX
  5
548
  8
NAVN
 10
2090.666124192684
 20
212.1342746998258
 30
0.0
  0
VERTEX
  5
549
  8
NAVN
 10
2090.672534531805
 20
212.0270872238835
 30
0.0
  0
VERTEX
  5
54A
  8
NAVN
 10
2090.676603800578
 20
211.9198363739153
 30
0.0
  0
VERTEX
  5
54B
  8
NAVN
 10
2090.678315269109
 20
211.8125720461064
 30
0.0
  0
VERTEX
  5
54C
  8
NAVN
 10
2090.677652207498
 20
211.7053441366433
 30
0.0
  0
VERTEX
  5
54D
  8
NAVN
 10
2090.674597885849
 20
211.5982025417117
 30
0.0
  0
VERTEX
  5
54E
  8
NAVN
 10
2090.669135574263
 20
211.491197157498
 30
0.0
  0
VERTEX
  5
54F
  8
NAVN
 10
2090.661248542843
 20
211.3843778801879
 30
0.0
  0
VERTEX
  5
550
  8
NAVN
 10
2090.650920061693
 20
211.2777946059672
 30
0.0
  0
VERTEX
  5
551
  8
NAVN
 10
2090.638133400912
 20
211.1714972310222
 30
0.0
  0
VERTEX
  5
552
  8
NAVN
 10
2090.622871830605
 20
211.0655356515393
 30
0.0
  0
VERTEX
  5
553
  8
NAVN
 10
2090.605118620873
 20
210.9599597637032
 30
0.0
  0
VERTEX
  5
554
  8
NAVN
 10
2090.584857041819
 20
210.8548194637014
 30
0.0
  0
VERTEX
  5
555
  8
NAVN
 10
2090.562070363544
 20
210.7501646477187
 30
0.0
  0
VERTEX
  5
556
  8
NAVN
 10
2090.536741856152
 20
210.6460452119424
 30
0.0
  0
VERTEX
  5
557
  8
NAVN
 10
2090.508854789745
 20
210.542511052557
 30
0.0
  0
VERTEX
  5
558
  8
NAVN
 10
2090.478392434425
 20
210.4396120657497
 30
0.0
  0
VERTEX
  5
559
  8
NAVN
 10
2090.445338060295
 20
210.3373981477054
 30
0.0
  0
VERTEX
  5
55A
  8
NAVN
 10
2090.409674937456
 20
210.2359191946114
 30
0.0
  0
VERTEX
  5
55B
  8
NAVN
 10
2090.371386336011
 20
210.1352251026528
 30
0.0
  0
VERTEX
  5
55C
  8
NAVN
 10
2090.330455526063
 20
210.035365768016
 30
0.0
  0
VERTEX
  5
55D
  8
NAVN
 10
2090.286865777714
 20
209.9363910868863
 30
0.0
  0
VERTEX
  5
55E
  8
NAVN
 10
2090.240600361065
 20
209.8383509554508
 30
0.0
  0
VERTEX
  5
55F
  8
NAVN
 10
2090.19164254622
 20
209.7412952698947
 30
0.0
  0
VERTEX
  5
560
  8
NAVN
 10
2090.139975603281
 20
209.6452739264044
 30
0.0
  0
VERTEX
  5
561
  8
NAVN
 10
2090.08558280235
 20
209.5503368211654
 30
0.0
  0
VERTEX
  5
562
  8
NAVN
 10
2090.02844741353
 20
209.4565338503641
 30
0.0
  0
VERTEX
  5
563
  8
NAVN
 10
2089.968552706922
 20
209.3639149101866
 30
0.0
  0
VERTEX
  5
564
  8
NAVN
 10
2089.90588195263
 20
209.2725298968185
 30
0.0
  0
VERTEX
  5
565
  8
NAVN
 10
2089.840418420755
 20
209.1824287064462
 30
0.0
  0
VERTEX
  5
566
  8
NAVN
 10
2089.7721453814
 20
209.0936612352554
 30
0.0
  0
VERTEX
  5
567
  8
NAVN
 10
2089.701046104667
 20
209.0062773794324
 30
0.0
  0
VERTEX
  5
568
  8
NAVN
 10
2089.627103860659
 20
208.9203270351629
 30
0.0
  0
VERTEX
  5
569
  8
NAVN
 10
2089.550301919478
 20
208.835860098633
 30
0.0
  0
VERTEX
  5
56A
  8
NAVN
 10
2089.470623551226
 20
208.7529264660288
 30
0.0
  0
VERTEX
  5
56B
  8
NAVN
 10
2089.388052026005
 20
208.671576033536
 30
0.0
  0
VERTEX
  5
56C
  8
NAVN
 10
2089.302570613918
 20
208.5918586973413
 30
0.0
  0
VERTEX
  5
56D
  8
NAVN
 10
2089.214162585068
 20
208.5138243536299
 30
0.0
  0
VERTEX
  5
56E
  8
NAVN
 10
2089.122811209556
 20
208.4375228985879
 30
0.0
  0
VERTEX
  5
56F
  8
NAVN
 10
2089.028499757486
 20
208.363004228402
 30
0.0
  0
VERTEX
  5
570
  8
NAVN
 10
2088.931211498958
 20
208.2903182392574
 30
0.0
  0
VERTEX
  5
571
  8
NAVN
 10
2088.830929704076
 20
208.2195148273407
 30
0.0
  0
VERTEX
  5
572
  8
NAVN
 10
2088.727637642942
 20
208.1506438888369
 30
0.0
  0
VERTEX
  5
573
  8
NAVN
 10
2088.621318585658
 20
208.0837553199333
 30
0.0
  0
VERTEX
  5
574
  8
NAVN
 10
2088.511955802327
 20
208.0188990168154
 30
0.0
  0
VERTEX
  5
575
  8
NAVN
 10
2088.399532563051
 20
207.9561248756691
 30
0.0
  0
VERTEX
  5
576
  8
NAVN
 10
2088.284032137933
 20
207.8954827926798
 30
0.0
  0
VERTEX
  5
577
  8
NAVN
 10
2088.165437797074
 20
207.8370226640348
 30
0.0
  0
VERTEX
  5
578
  8
NAVN
 10
2088.043732810577
 20
207.7807943859193
 30
0.0
  0
VERTEX
  5
579
  8
NAVN
 10
2087.918900448544
 20
207.726847854519
 30
0.0
  0
VERTEX
  5
57A
  8
NAVN
 10
2087.790923981078
 20
207.6752329660206
 30
0.0
  0
VERTEX
  5
57B
  8
NAVN
 10
2087.659786678281
 20
207.6259996166098
 30
0.0
  0
VERTEX
  5
57C
  8
NAVN
 10
2087.525471810256
 20
207.5791977024726
 30
0.0
  0
VERTEX
  5
57D
  8
NAVN
 10
2083.020143374024
 20
206.0685875797362
 30
0.0
  0
VERTEX
  5
57E
  8
NAVN
 10
2086.072140056633
 20
207.091904114493
 30
0.0
  0
VERTEX
  5
57F
  8
NAVN
 10
2095.852207857484
 20
199.8624335412498
 30
0.0
  0
SEQEND
  5
580
  8
NAVN
  0
POLYLINE
  5
581
  8
NAVN
 66
     1
 10
0.0
 20
0.0
 30
0.0
  0
VERTEX
  5
582
  8
NAVN
 10
2108.407783098993
 20
204.0722440634029
 30
0.0
  0
VERTEX
  5
583
  8
NAVN
 10
2099.905792340298
 20
201.221576573723
 30
0.0
  0
VERTEX
  5
584
  8
NAVN
 10
2093.814622490554
 20
219.3882234940111
 30
0.0
  0
VERTEX
  5
585
  8
NAVN
 10
2102.316613249249
 20
222.2388909836912
 30
0.0
  0
SEQEND
  5
586
  8
NAVN
  0
LINE
  5
587
  8
NAVN
 10
2105.362198174121
 20
213.1555675235471
 30
0.0
 11
2096.860207415426
 21
210.3049000338672
 31
0.0
  0
POLYLINE
  5
588
  8
NAVN
 66
     1
 10
0.0
 20
0.0
 30
0.0
  0
VERTEX
  5
589
  8
NAVN
 10
2117.330028956444
 20
207.0638206156071
 30
0.0
  0
VERTEX
  5
58A
  8
NAVN
 10
2111.2388591067
 20
225.2304675358953
 30
0.0
  0
VERTEX
  5
58B
  8
NAVN
 10
2106.370197732063
 20
223.5980340161637
 30
0.0
  0
VERTEX
  5
58C
  8
NAVN
 10
2116.107520481337
 20
226.8629010556265
 30
0.0
  0
SEQEND
  5
58D
  8
NAVN
  0
POLYLINE
  5
58E
  8
NAVN
 66
     1
 10
0.0
 20
0.0
 30
0.0
  0
VERTEX
  5
58F
  8
NAVN
 10
2131.120936188532
 20
211.6878306875425
 30
0.0
  0
VERTEX
  5
590
  8
NAVN
 10
2125.029766338788
 20
229.8544776078309
 30
0.0
  0
VERTEX
  5
591
  8
NAVN
 10
2120.161104964151
 20
228.2220440880995
 30
0.0
  0
VERTEX
  5
592
  8
NAVN
 10
2129.898427713425
 20
231.4869111275621
 30
0.0
  0
SEQEND
  5
593
  8
NAVN
  0
POLYLINE
  5
594
  8
NAVN
 66
     1
 10
0.0
 20
0.0
 30
0.0
  0
VERTEX
  5
595
  8
NAVN
 10
2148.545172804678
 20
217.5300747294268
 30
0.0
  0
VERTEX
  5
596
  8
NAVN
 10
2140.043182045983
 20
214.6794072397466
 30
0.0
  0
VERTEX
  5
597
  8
NAVN
 10
2133.952012196239
 20
232.8460541600348
 30
0.0
  0
VERTEX
  5
598
  8
NAVN
 10
2142.454002954934
 20
235.6967216497151
 30
0.0
  0
SEQEND
  5
599
  8
NAVN
  0
LINE
  5
59A
  8
NAVN
 10
2145.499587879806
 20
226.613398189571
 30
0.0
 11
2136.997597121111
 21
223.7627306998907
 31
0.0
  0
LINE
  5
59B
  8
NAVN
 10
2152.66294610661
 20
218.9107398953686
 30
0.0
 11
2146.571776256866
 21
237.0773868156567
 31
0.0
  0
POLYLINE
  5
59C
  8
NAVN
 66
     1
 10
0.0
 20
0.0
 30
0.0
  0
VERTEX
  5
59D
  8
NAVN
 10
2156.454432181503
 20
240.3909832139175
 30
0.0
  0
VERTEX
  5
59E
  8
NAVN
 10
2150.416693646231
 20
228.2620748289016
 30
0.0
  0
VERTEX
  5
59F
  8
NAVN
 10
2162.545602031246
 20
222.2243362936292
 30
0.0
  0
SEQEND
  5
5A0
  8
NAVN
  0
POLYLINE
  5
5A1
  8
NAVN
 66
     1
 10
0.0
 20
0.0
 30
0.0
  0
VERTEX
  5
5A2
  8
NAVN
 10
2166.536208804736
 20
223.5623632706229
 30
0.0
  0
VERTEX
  5
5A3
  8
NAVN
 10
2167.857030898471
 20
244.2142074896067
 30
0.0
  0
VERTEX
  5
5A4
  8
NAVN
 10
2177.377208785733
 20
233.1791449744499
 30
0.0
  0
VERTEX
  5
5A5
  8
NAVN
 10
2166.985886747328
 20
229.6949958203965
 30
0.0
  0
VERTEX
  5
5A6
  8
NAVN
 10
2177.377208785733
 20
233.1791449744499
 30
0.0
  0
VERTEX
  5
5A7
  8
NAVN
 10
2181.360192691691
 20
228.5327578680137
 30
0.0
  0
SEQEND
  5
5A8
  8
NAVN
  0
POLYLINE
  5
5A9
  8
NAVN
 66
     1
 10
0.0
 20
0.0
 30
0.0
  0
VERTEX
  5
5AA
  8
NAVN
 10
2182.87030412216
 20
233.2425572584645
 30
0.0
  0
VERTEX
  5
5AB
  8
NAVN
 10
2182.913309750861
 20
233.1191254962327
 30
0.0
  0
VERTEX
  5
5AC
  8
NAVN
 10
2182.958542559418
 20
232.9986113808656
 30
0.0
  0
VERTEX
  5
5AD
  8
NAVN
 10
2183.005956809659
 20
232.8809995766237
 30
0.0
  0
VERTEX
  5
5AE
  8
NAVN
 10
2183.055506763415
 20
232.7662747477667
 30
0.0
  0
VERTEX
  5
5AF
  8
NAVN
 10
2183.107146682515
 20
232.6544215585555
 30
0.0
  0
VERTEX
  5
5B0
  8
NAVN
 10
2183.160830828787
 20
232.5454246732509
 30
0.0
  0
VERTEX
  5
5B1
  8
NAVN
 10
2183.216513464063
 20
232.439268756113
 30
0.0
  0
VERTEX
  5
5B2
  8
NAVN
 10
2183.274148850171
 20
232.3359384714025
 30
0.0
  0
VERTEX
  5
5B3
  8
NAVN
 10
2183.33369124894
 20
232.2354184833794
 30
0.0
  0
VERTEX
  5
5B4
  8
NAVN
 10
2183.395094922201
 20
232.1376934563054
 30
0.0
  0
VERTEX
  5
5B5
  8
NAVN
 10
2183.458314131783
 20
232.0427480544394
 30
0.0
  0
VERTEX
  5
5B6
  8
NAVN
 10
2183.523303139514
 20
231.9505669420431
 30
0.0
  0
VERTEX
  5
5B7
  8
NAVN
 10
2183.590016207226
 20
231.861134783376
 30
0.0
  0
VERTEX
  5
5B8
  8
NAVN
 10
2183.658407596747
 20
231.7744362426993
 30
0.0
  0
VERTEX
  5
5B9
  8
NAVN
 10
2183.728431569907
 20
231.6904559842733
 30
0.0
  0
VERTEX
  5
5BA
  8
NAVN
 10
2183.800042388535
 20
231.6091786723585
 30
0.0
  0
VERTEX
  5
5BB
  8
NAVN
 10
2183.87319431446
 20
231.530588971215
 30
0.0
  0
VERTEX
  5
5BC
  8
NAVN
 10
2183.947841609513
 20
231.4546715451042
 30
0.0
  0
VERTEX
  5
5BD
  8
NAVN
 10
2184.023938535523
 20
231.3814110582854
 30
0.0
  0
VERTEX
  5
5BE
  8
NAVN
 10
2184.101439354319
 20
231.3107921750199
 30
0.0
  0
VERTEX
  5
5BF
  8
NAVN
 10
2184.18029832773
 20
231.2427995595681
 30
0.0
  0
VERTEX
  5
5C0
  8
NAVN
 10
2184.260469717587
 20
231.1774178761902
 30
0.0
  0
VERTEX
  5
5C1
  8
NAVN
 10
2184.341907785719
 20
231.1146317891466
 30
0.0
  0
VERTEX
  5
5C2
  8
NAVN
 10
2184.424566793955
 20
231.054425962698
 30
0.0
  0
VERTEX
  5
5C3
  8
NAVN
 10
2184.508401004125
 20
230.9967850611047
 30
0.0
  0
VERTEX
  5
5C4
  8
NAVN
 10
2184.593364678058
 20
230.9416937486282
 30
0.0
  0
VERTEX
  5
5C5
  8
NAVN
 10
2184.679412077584
 20
230.8891366895273
 30
0.0
  0
VERTEX
  5
5C6
  8
NAVN
 10
2184.766497464532
 20
230.8390985480636
 30
0.0
  0
VERTEX
  5
5C7
  8
NAVN
 10
2184.854575100732
 20
230.7915639884971
 30
0.0
  0
VERTEX
  5
5C8
  8
NAVN
 10
2184.943599248013
 20
230.7465176750885
 30
0.0
  0
VERTEX
  5
5C9
  8
NAVN
 10
2185.033524168205
 20
230.7039442720981
 30
0.0
  0
VERTEX
  5
5CA
  8
NAVN
 10
2185.124304123137
 20
230.6638284437868
 30
0.0
  0
VERTEX
  5
5CB
  8
NAVN
 10
2185.21589337464
 20
230.6261548544146
 30
0.0
  0
VERTEX
  5
5CC
  8
NAVN
 10
2185.308246184541
 20
230.5909081682424
 30
0.0
  0
VERTEX
  5
5CD
  8
NAVN
 10
2185.401316814671
 20
230.55807304953
 30
0.0
  0
VERTEX
  5
5CE
  8
NAVN
 10
2185.495059526859
 20
230.5276341625388
 30
0.0
  0
VERTEX
  5
5CF
  8
NAVN
 10
2185.589428582936
 20
230.4995761715285
 30
0.0
  0
VERTEX
  5
5D0
  8
NAVN
 10
2185.684378244729
 20
230.4738837407603
 30
0.0
  0
VERTEX
  5
5D1
  8
NAVN
 10
2185.779862774069
 20
230.4505415344939
 30
0.0
  0
VERTEX
  5
5D2
  8
NAVN
 10
2185.875836432785
 20
230.4295342169904
 30
0.0
  0
VERTEX
  5
5D3
  8
NAVN
 10
2185.972253482708
 20
230.4108464525098
 30
0.0
  0
VERTEX
  5
5D4
  8
NAVN
 10
2186.069068185665
 20
230.394462905313
 30
0.0
  0
VERTEX
  5
5D5
  8
NAVN
 10
2186.166234803487
 20
230.3803682396601
 30
0.0
  0
VERTEX
  5
5D6
  8
NAVN
 10
2186.263707598004
 20
230.3685471198119
 30
0.0
  0
VERTEX
  5
5D7
  8
NAVN
 10
2186.361440831045
 20
230.3589842100287
 30
0.0
  0
VERTEX
  5
5D8
  8
NAVN
 10
2186.459388764438
 20
230.3516641745709
 30
0.0
  0
VERTEX
  5
5D9
  8
NAVN
 10
2186.557505660015
 20
230.3465716776992
 30
0.0
  0
VERTEX
  5
5DA
  8
NAVN
 10
2186.655745779603
 20
230.3436913836742
 30
0.0
  0
VERTEX
  5
5DB
  8
NAVN
 10
2186.754063385034
 20
230.3430079567555
 30
0.0
  0
VERTEX
  5
5DC
  8
NAVN
 10
2186.852412738136
 20
230.344506061205
 30
0.0
  0
VERTEX
  5
5DD
  8
NAVN
 10
2186.950748100738
 20
230.3481703612821
 30
0.0
  0
VERTEX
  5
5DE
  8
NAVN
 10
2187.049023734671
 20
230.3539855212479
 30
0.0
  0
VERTEX
  5
5DF
  8
NAVN
 10
2187.147193901764
 20
230.3619362053622
 30
0.0
  0
VERTEX
  5
5E0
  8
NAVN
 10
2187.245212863846
 20
230.3720070778861
 30
0.0
  0
VERTEX
  5
5E1
  8
NAVN
 10
2187.343034882747
 20
230.3841828030798
 30
0.0
  0
VERTEX
  5
5E2
  8
NAVN
 10
2187.440614220296
 20
230.3984480452035
 30
0.0
  0
VERTEX
  5
5E3
  8
NAVN
 10
2187.537905138323
 20
230.4147874685185
 30
0.0
  0
VERTEX
  5
5E4
  8
NAVN
 10
2187.634861898657
 20
230.4331857372843
 30
0.0
  0
VERTEX
  5
5E5
  8
NAVN
 10
2187.731438763128
 20
230.4536275157622
 30
0.0
  0
VERTEX
  5
5E6
  8
NAVN
 10
2187.827589993565
 20
230.4760974682125
 30
0.0
  0
VERTEX
  5
5E7
  8
NAVN
 10
2187.923269851798
 20
230.5005802588954
 30
0.0
  0
VERTEX
  5
5E8
  8
NAVN
 10
2188.018432599656
 20
230.5270605520712
 30
0.0
  0
VERTEX
  5
5E9
  8
NAVN
 10
2188.11303249897
 20
230.5555230120006
 30
0.0
  0
VERTEX
  5
5EA
  8
NAVN
 10
2188.207023811567
 20
230.5859523029445
 30
0.0
  0
VERTEX
  5
5EB
  8
NAVN
 10
2188.300360799278
 20
230.6183330891632
 30
0.0
  0
VERTEX
  5
5EC
  8
NAVN
 10
2188.392997723933
 20
230.6526500349166
 30
0.0
  0
VERTEX
  5
5ED
  8
NAVN
 10
2188.48488884736
 20
230.6888878044659
 30
0.0
  0
VERTEX
  5
5EE
  8
NAVN
 10
2188.575988431389
 20
230.7270310620714
 30
0.0
  0
VERTEX
  5
5EF
  8
NAVN
 10
2188.666250737851
 20
230.7670644719929
 30
0.0
  0
VERTEX
  5
5F0
  8
NAVN
 10
2188.755630028574
 20
230.808972698492
 30
0.0
  0
VERTEX
  5
5F1
  8
NAVN
 10
2188.844080565387
 20
230.8527404058283
 30
0.0
  0
VERTEX
  5
5F2
  8
NAVN
 10
2188.931556610121
 20
230.8983522582625
 30
0.0
  0
VERTEX
  5
5F3
  8
NAVN
 10
2189.018012424605
 20
230.9457929200557
 30
0.0
  0
VERTEX
  5
5F4
  8
NAVN
 10
2189.103402270668
 20
230.9950470554675
 30
0.0
  0
VERTEX
  5
5F5
  8
NAVN
 10
2189.187680410139
 20
231.0460993287584
 30
0.0
  0
VERTEX
  5
5F6
  8
NAVN
 10
2189.27080110485
 20
231.0989344041898
 30
0.0
  0
VERTEX
  5
5F7
  8
NAVN
 10
2189.352718616627
 20
231.1535369460213
 30
0.0
  0
VERTEX
  5
5F8
  8
NAVN
 10
2189.433387207302
 20
231.2098916185137
 30
0.0
  0
VERTEX
  5
5F9
  8
NAVN
 10
2189.512761138704
 20
231.2679830859278
 30
0.0
  0
VERTEX
  5
5FA
  8
NAVN
 10
2189.590794672663
 20
231.3277960125233
 30
0.0
  0
VERTEX
  5
5FB
  8
NAVN
 10
2189.667442071007
 20
231.3893150625611
 30
0.0
  0
VERTEX
  5
5FC
  8
NAVN
 10
2189.742657595566
 20
231.452524900302
 30
0.0
  0
VERTEX
  5
5FD
  8
NAVN
 10
2189.81639550817
 20
231.517410190006
 30
0.0
  0
VERTEX
  5
5FE
  8
NAVN
 10
2189.888610070649
 20
231.5839555959337
 30
0.0
  0
VERTEX
  5
5FF
  8
NAVN
 10
2189.959255544831
 20
231.6521457823459
 30
0.0
  0
VERTEX
  5
600
  8
NAVN
 10
2190.028286192546
 20
231.7219654135026
 30
0.0
  0
VERTEX
  5
601
  8
NAVN
 10
2190.095656275625
 20
231.7933991536644
 30
0.0
  0
VERTEX
  5
602
  8
NAVN
 10
2190.161320055895
 20
231.8664316670921
 30
0.0
  0
VERTEX
  5
603
  8
NAVN
 10
2190.225231795188
 20
231.9410476180456
 30
0.0
  0
VERTEX
  5
604
  8
NAVN
 10
2190.287345755332
 20
232.0172316707861
 30
0.0
  0
VERTEX
  5
605
  8
NAVN
 10
2190.347616198156
 20
232.0949684895733
 30
0.0
  0
VERTEX
  5
606
  8
NAVN
 10
2190.405997385492
 20
232.1742427386685
 30
0.0
  0
VERTEX
  5
607
  8
NAVN
 10
2190.462443579166
 20
232.2550390823315
 30
0.0
  0
VERTEX
  5
608
  8
NAVN
 10
2190.516909041011
 20
232.3373421848234
 30
0.0
  0
VERTEX
  5
609
  8
NAVN
 10
2190.569348032853
 20
232.4211367104039
 30
0.0
  0
VERTEX
  5
60A
  8
NAVN
 10
2190.619714816524
 20
232.5064073233344
 30
0.0
  0
VERTEX
  5
60B
  8
NAVN
 10
2190.667963653853
 20
232.5931386878744
 30
0.0
  0
VERTEX
  5
60C
  8
NAVN
 10
2190.71404880667
 20
232.6813154682852
 30
0.0
  0
VERTEX
  5
60D
  8
NAVN
 10
2190.757924536803
 20
232.7709223288268
 30
0.0
  0
VERTEX
  5
60E
  8
NAVN
 10
2190.799545106083
 20
232.8619439337597
 30
0.0
  0
VERTEX
  5
60F
  8
NAVN
 10
2190.838864776338
 20
232.9543649473447
 30
0.0
  0
VERTEX
  5
610
  8
NAVN
 10
2190.875837809399
 20
233.0481700338419
 30
0.0
  0
VERTEX
  5
611
  8
NAVN
 10
2190.910418467094
 20
233.1433438575122
 30
0.0
  0
VERTEX
  5
612
  8
NAVN
 10
2190.942561011254
 20
233.2398710826158
 30
0.0
  0
VERTEX
  5
613
  8
NAVN
 10
2190.972219703707
 20
233.3377363734132
 30
0.0
  0
VERTEX
  5
614
  8
NAVN
 10
2190.999348806284
 20
233.436924394165
 30
0.0
  0
VERTEX
  5
615
  8
NAVN
 10
2191.023902580814
 20
233.5374198091312
 30
0.0
  0
VERTEX
  5
616
  8
NAVN
 10
2191.045835289126
 20
233.6392072825733
 30
0.0
  0
VERTEX
  5
617
  8
NAVN
 10
2191.06510119305
 20
233.7422714787505
 30
0.0
  0
VERTEX
  5
618
  8
NAVN
 10
2191.081654554415
 20
233.8465970619239
 30
0.0
  0
VERTEX
  5
619
  8
NAVN
 10
2191.095449635052
 20
233.9521686963545
 30
0.0
  0
VERTEX
  5
61A
  8
NAVN
 10
2191.106440696788
 20
234.0589710463021
 30
0.0
  0
VERTEX
  5
61B
  8
NAVN
 10
2191.114582001454
 20
234.1669887760275
 30
0.0
  0
VERTEX
  5
61C
  8
NAVN
 10
2191.11982781088
 20
234.2762065497907
 30
0.0
  0
VERTEX
  5
61D
  8
NAVN
 10
2191.122132386894
 20
234.3866090318529
 30
0.0
  0
VERTEX
  5
61E
  8
NAVN
 10
2191.121449991327
 20
234.4981808864742
 30
0.0
  0
VERTEX
  5
61F
  8
NAVN
 10
2191.117734886007
 20
234.6109067779144
 30
0.0
  0
VERTEX
  5
620
  8
NAVN
 10
2191.110941332765
 20
234.7247713704355
 30
0.0
  0
VERTEX
  5
621
  8
NAVN
 10
2191.10102359343
 20
234.8397593282968
 30
0.0
  0
VERTEX
  5
622
  8
NAVN
 10
2191.087935929831
 20
234.9558553157593
 30
0.0
  0
VERTEX
  5
623
  8
NAVN
 10
2191.071632603798
 20
235.0730439970828
 30
0.0
  0
VERTEX
  5
624
  8
NAVN
 10
2191.05206787716
 20
235.1913100365287
 30
0.0
  0
VERTEX
  5
625
  8
NAVN
 10
2191.029196011747
 20
235.3106380983571
 30
0.0
  0
VERTEX
  5
626
  8
NAVN
 10
2191.002971269388
 20
235.4310128468281
 30
0.0
  0
VERTEX
  5
627
  8
NAVN
 10
2190.973347911913
 20
235.5524189462024
 30
0.0
  0
VERTEX
  5
628
  8
NAVN
 10
2190.940280201152
 20
235.6748410607414
 30
0.0
  0
VERTEX
  5
629
  8
NAVN
 10
2190.903722398933
 20
235.7982638547043
 30
0.0
  0
VERTEX
  5
62A
  8
NAVN
 10
2190.863628767087
 20
235.9226719923519
 30
0.0
  0
VERTEX
  5
62B
  8
NAVN
 10
2186.03942224609
 20
250.3106563532199
 30
0.0
  0
SEQEND
  5
62C
  8
NAVN
  0
POLYLINE
  5
62D
  8
NAVN
 66
     1
 10
0.0
 20
0.0
 30
0.0
  0
VERTEX
  5
62E
  8
NAVN
 10
2194.971855674166
 20
233.0966683974318
 30
0.0
  0
VERTEX
  5
62F
  8
NAVN
 10
2196.292677767901
 20
253.7485126164157
 30
0.0
  0
VERTEX
  5
630
  8
NAVN
 10
2205.812855655163
 20
242.7134501012587
 30
0.0
  0
VERTEX
  5
631
  8
NAVN
 10
2195.421533616758
 20
239.2293009472053
 30
0.0
  0
VERTEX
  5
632
  8
NAVN
 10
2205.812855655163
 20
242.7134501012587
 30
0.0
  0
VERTEX
  5
633
  8
NAVN
 10
2209.795839561122
 20
238.0670629948224
 30
0.0
  0
SEQEND
  5
634
  8
NAVN
  0
LINE
  5
635
  8
NAVN
 10
2213.913612863054
 20
239.4477281607646
 30
0.0
 11
2207.82244301331
 21
257.614375081053
 31
0.0
  0
POLYLINE
  5
636
  8
NAVN
 66
     1
 10
0.0
 20
0.0
 30
0.0
  0
VERTEX
  5
637
  8
NAVN
 10
2217.705098937947
 20
260.9279714793135
 30
0.0
  0
VERTEX
  5
638
  8
NAVN
 10
2211.667360402675
 20
248.7990630942975
 30
0.0
  0
VERTEX
  5
639
  8
NAVN
 10
2223.796268787691
 20
242.7613245590252
 30
0.0
  0
SEQEND
  5
63A
  8
NAVN
  0
LINE
  5
63B
  8
NAVN
 10
2227.849853270504
 20
244.120467591498
 30
0.0
 11
2221.758683420761
 21
262.2871145117862
 31
0.0
  0
POLYLINE
  5
63C
  8
NAVN
 66
     1
 10
0.0
 20
0.0
 30
0.0
  0
VERTEX
  5
63D
  8
NAVN
 10
2231.641339345397
 20
265.6007109100465
 30
0.0
  0
VERTEX
  5
63E
  8
NAVN
 10
2225.603600810125
 20
253.471802525031
 30
0.0
  0
VERTEX
  5
63F
  8
NAVN
 10
2237.732509195141
 20
247.4340639897585
 30
0.0
  0
SEQEND
  5
640
  8
NAVN
  0
POLYLINE
  5
641
  8
NAVN
 66
     1
 10
0.0
 20
0.0
 30
0.0
  0
VERTEX
  5
642
  8
NAVN
 10
2244.881120379151
 20
261.8350855913575
 30
0.0
  0
VERTEX
  5
643
  8
NAVN
 10
2253.423248741277
 20
252.2343119093466
 30
0.0
  0
VERTEX
  5
644
  8
NAVN
 10
2254.367743400925
 20
265.0158944868937
 30
0.0
  0
SEQEND
  5
645
  8
NAVN
  0
POLYLINE
  5
646
  8
NAVN
 66
     1
 10
0.0
 20
0.0
 30
0.0
  0
VERTEX
  5
647
  8
NAVN
 10
2257.668772754022
 20
269.1298064858336
 30
0.0
  0
VERTEX
  5
648
  8
NAVN
 10
2257.628735588679
 20
269.2518741973831
 30
0.0
  0
VERTEX
  5
649
  8
NAVN
 10
2257.591984305683
 20
269.3746785423071
 30
0.0
  0
VERTEX
  5
64A
  8
NAVN
 10
2257.55851391933
 20
269.4981527223295
 30
0.0
  0
VERTEX
  5
64B
  8
NAVN
 10
2257.528319443914
 20
269.6222299391777
 30
0.0
  0
VERTEX
  5
64C
  8
NAVN
 10
2257.50139589373
 20
269.7468433945758
 30
0.0
  0
VERTEX
  5
64D
  8
NAVN
 10
2257.477738283073
 20
269.8719262902501
 30
0.0
  0
VERTEX
  5
64E
  8
NAVN
 10
2257.457341626238
 20
269.9974118279264
 30
0.0
  0
VERTEX
  5
64F
  8
NAVN
 10
2257.440200937519
 20
270.1232332093298
 30
0.0
  0
VERTEX
  5
650
  8
NAVN
 10
2257.426311231212
 20
270.2493236361854
 30
0.0
  0
VERTEX
  5
651
  8
NAVN
 10
2257.415667521612
 20
270.37561631022
 30
0.0
  0
VERTEX
  5
652
  8
NAVN
 10
2257.408264823013
 20
270.5020444331583
 30
0.0
  0
VERTEX
  5
653
  8
NAVN
 10
2257.404098149709
 20
270.6285412067261
 30
0.0
  0
VERTEX
  5
654
  8
NAVN
 10
2257.403162515996
 20
270.7550398326492
 30
0.0
  0
VERTEX
  5
655
  8
NAVN
 10
2257.405452936169
 20
270.8814735126529
 30
0.0
  0
VERTEX
  5
656
  8
NAVN
 10
2257.410964424523
 20
271.0077754484632
 30
0.0
  0
VERTEX
  5
657
  8
NAVN
 10
2257.419691995351
 20
271.1338788418051
 30
0.0
  0
VERTEX
  5
658
  8
NAVN
 10
2257.43163066295
 20
271.2597168944046
 30
0.0
  0
VERTEX
  5
659
  8
NAVN
 10
2257.446775441613
 20
271.385222807987
 30
0.0
  0
VERTEX
  5
65A
  8
NAVN
 10
2257.465121345637
 20
271.5103297842782
 30
0.0
  0
VERTEX
  5
65B
  8
NAVN
 10
2257.486663389314
 20
271.6349710250036
 30
0.0
  0
VERTEX
  5
65C
  8
NAVN
 10
2257.511396586942
 20
271.759079731889
 30
0.0
  0
VERTEX
  5
65D
  8
NAVN
 10
2257.539315952813
 20
271.8825891066599
 30
0.0
  0
VERTEX
  5
65E
  8
NAVN
 10
2257.570416501224
 20
272.0054323510411
 30
0.0
  0
VERTEX
  5
65F
  8
NAVN
 10
2257.604693246468
 20
272.1275426667593
 30
0.0
  0
VERTEX
  5
660
  8
NAVN
 10
2257.642141202841
 20
272.248853255539
 30
0.0
  0
VERTEX
  5
661
  8
NAVN
 10
2257.682755384638
 20
272.3692973191074
 30
0.0
  0
VERTEX
  5
662
  8
NAVN
 10
2257.726530806153
 20
272.4888080591883
 30
0.0
  0
VERTEX
  5
663
  8
NAVN
 10
2257.773462481681
 20
272.6073186775082
 30
0.0
  0
VERTEX
  5
664
  8
NAVN
 10
2257.823545425518
 20
272.7247623757931
 30
0.0
  0
VERTEX
  5
665
  8
NAVN
 10
2257.876774651957
 20
272.8410723557677
 30
0.0
  0
VERTEX
  5
666
  8
NAVN
 10
2257.933145175293
 20
272.9561818191577
 30
0.0
  0
VERTEX
  5
667
  8
NAVN
 10
2257.992652009823
 20
273.0700239676895
 30
0.0
  0
VERTEX
  5
668
  8
NAVN
 10
2258.050915963622
 20
273.1839652178731
 30
0.0
  0
VERTEX
  5
669
  8
NAVN
 10
2258.111941729367
 20
273.2961470020041
 30
0.0
  0
VERTEX
  5
66A
  8
NAVN
 10
2258.175681007547
 20
273.4065279629932
 30
0.0
  0
VERTEX
  5
66B
  8
NAVN
 10
2258.242085498656
 20
273.5150667437504
 30
0.0
  0
VERTEX
  5
66C
  8
NAVN
 10
2258.311106903184
 20
273.6217219871858
 30
0.0
  0
VERTEX
  5
66D
  8
NAVN
 10
2258.382696921625
 20
273.7264523362108
 30
0.0
  0
VERTEX
  5
66E
  8
NAVN
 10
2258.45680725447
 20
273.8292164337344
 30
0.0
  0
VERTEX
  5
66F
  8
NAVN
 10
2258.53338960221
 20
273.9299729226671
 30
0.0
  0
VERTEX
  5
670
  8
NAVN
 10
2258.612395665339
 20
274.0286804459193
 30
0.0
  0
VERTEX
  5
671
  8
NAVN
 10
2258.693777144347
 20
274.125297646402
 30
0.0
  0
VERTEX
  5
672
  8
NAVN
 10
2258.777485739727
 20
274.2197831670248
 30
0.0
  0
VERTEX
  5
673
  8
NAVN
 10
2258.863473151971
 20
274.3120956506979
 30
0.0
  0
VERTEX
  5
674
  8
NAVN
 10
2258.951691081571
 20
274.4021937403318
 30
0.0
  0
VERTEX
  5
675
  8
NAVN
 10
2259.042091229019
 20
274.490036078838
 30
0.0
  0
VERTEX
  5
676
  8
NAVN
 10
2259.134625294805
 20
274.5755813091243
 30
0.0
  0
VERTEX
  5
677
  8
NAVN
 10
2259.229244979423
 20
274.6587880741034
 30
0.0
  0
VERTEX
  5
678
  8
NAVN
 10
2259.325901983366
 20
274.7396150166836
 30
0.0
  0
VERTEX
  5
679
  8
NAVN
 10
2259.424548007122
 20
274.818020779777
 30
0.0
  0
VERTEX
  5
67A
  8
NAVN
 10
2259.525134751188
 20
274.8939640062927
 30
0.0
  0
VERTEX
  5
67B
  8
NAVN
 10
2259.627613916052
 20
274.9674033391415
 30
0.0
  0
VERTEX
  5
67C
  8
NAVN
 10
2259.731937202207
 20
275.0382974212338
 30
0.0
  0
VERTEX
  5
67D
  8
NAVN
 10
2259.838056310147
 20
275.1066048954798
 30
0.0
  0
VERTEX
  5
67E
  8
NAVN
 10
2259.94592294036
 20
275.172284404789
 30
0.0
  0
VERTEX
  5
67F
  8
NAVN
 10
2260.055488793342
 20
275.2352945920725
 30
0.0
  0
VERTEX
  5
680
  8
NAVN
 10
2260.166705569582
 20
275.295594100241
 30
0.0
  0
VERTEX
  5
681
  8
NAVN
 10
2260.279524969573
 20
275.3531415722044
 30
0.0
  0
VERTEX
  5
682
  8
NAVN
 10
2260.393898693807
 20
275.407895650872
 30
0.0
  0
VERTEX
  5
683
  8
NAVN
 10
2260.509778442776
 20
275.4598149791562
 30
0.0
  0
VERTEX
  5
684
  8
NAVN
 10
2260.627115916974
 20
275.5088581999651
 30
0.0
  0
VERTEX
  5
685
  8
NAVN
 10
2260.745862816888
 20
275.5549839562107
 30
0.0
  0
VERTEX
  5
686
  8
NAVN
 10
2260.865970843014
 20
275.5981508908027
 30
0.0
  0
VERTEX
  5
687
  8
NAVN
 10
2260.987391695843
 20
275.6383176466509
 30
0.0
  0
VERTEX
  5
688
  8
NAVN
 10
2261.107288029084
 20
275.6804406499778
 30
0.0
  0
VERTEX
  5
689
  8
NAVN
 10
2261.227979641002
 20
275.7193662613541
 30
0.0
  0
VERTEX
  5
68A
  8
NAVN
 10
2261.349401733082
 20
275.7550979167674
 30
0.0
  0
VERTEX
  5
68B
  8
NAVN
 10
2261.471489506812
 20
275.7876390522061
 30
0.0
  0
VERTEX
  5
68C
  8
NAVN
 10
2261.594178163679
 20
275.8169931036592
 30
0.0
  0
VERTEX
  5
68D
  8
NAVN
 10
2261.717402905167
 20
275.8431635071144
 30
0.0
  0
VERTEX
  5
68E
  8
NAVN
 10
2261.841098932764
 20
275.8661536985608
 30
0.0
  0
VERTEX
  5
68F
  8
NAVN
 10
2261.965201447956
 20
275.8859671139854
 30
0.0
  0
VERTEX
  5
690
  8
NAVN
 10
2262.08964565223
 20
275.9026071893781
 30
0.0
  0
VERTEX
  5
691
  8
NAVN
 10
2262.214366747073
 20
275.9160773607262
 30
0.0
  0
VERTEX
  5
692
  8
NAVN
 10
2262.33929993397
 20
275.9263810640185
 30
0.0
  0
VERTEX
  5
693
  8
NAVN
 10
2262.464380414408
 20
275.9335217352436
 30
0.0
  0
VERTEX
  5
694
  8
NAVN
 10
2262.589543389874
 20
275.9375028103888
 30
0.0
  0
VERTEX
  5
695
  8
NAVN
 10
2262.714724061853
 20
275.938327725443
 30
0.0
  0
VERTEX
  5
696
  8
NAVN
 10
2262.839857631833
 20
275.9359999163947
 30
0.0
  0
VERTEX
  5
697
  8
NAVN
 10
2262.9648793013
 20
275.9305228192324
 30
0.0
  0
VERTEX
  5
698
  8
NAVN
 10
2263.08972427174
 20
275.9218998699441
 30
0.0
  0
VERTEX
  5
699
  8
NAVN
 10
2263.21432774464
 20
275.9101345045175
 30
0.0
  0
VERTEX
  5
69A
  8
NAVN
 10
2263.338624921486
 20
275.8952301589421
 30
0.0
  0
VERTEX
  5
69B
  8
NAVN
 10
2263.462551003765
 20
275.877190269206
 30
0.0
  0
VERTEX
  5
69C
  8
NAVN
 10
2263.586041192962
 20
275.8560182712974
 30
0.0
  0
VERTEX
  5
69D
  8
NAVN
 10
2263.709030690566
 20
275.8317176012043
 30
0.0
  0
VERTEX
  5
69E
  8
NAVN
 10
2263.831454698062
 20
275.8042916949154
 30
0.0
  0
VERTEX
  5
69F
  8
NAVN
 10
2263.953248416936
 20
275.7737439884186
 30
0.0
  0
VERTEX
  5
6A0
  8
NAVN
 10
2264.074347048674
 20
275.7400779177031
 30
0.0
  0
VERTEX
  5
6A1
  8
NAVN
 10
2264.194685794764
 20
275.7032969187564
 30
0.0
  0
VERTEX
  5
6A2
  8
NAVN
 10
2264.314199856692
 20
275.6634044275667
 30
0.0
  0
VERTEX
  5
6A3
  8
NAVN
 10
2264.432824435944
 20
275.6204038801232
 30
0.0
  0
VERTEX
  5
6A4
  8
NAVN
 10
2264.550494734007
 20
275.5742987124143
 30
0.0
  0
VERTEX
  5
6A5
  8
NAVN
 10
2264.667145952367
 20
275.5250923604273
 30
0.0
  0
VERTEX
  5
6A6
  8
NAVN
 10
2264.782713292511
 20
275.4727882601513
 30
0.0
  0
VERTEX
  5
6A7
  8
NAVN
 10
2264.897131955924
 20
275.4173898475745
 30
0.0
  0
VERTEX
  5
6A8
  8
NAVN
 10
2265.013253190042
 20
275.3589335860465
 30
0.0
  0
VERTEX
  5
6A9
  8
NAVN
 10
2265.127580646488
 20
275.297627286986
 30
0.0
  0
VERTEX
  5
6AA
  8
NAVN
 10
2265.240071633697
 20
275.2335210226839
 30
0.0
  0
VERTEX
  5
6AB
  8
NAVN
 10
2265.3506834601
 20
275.1666648654298
 30
0.0
  0
VERTEX
  5
6AC
  8
NAVN
 10
2265.459373434127
 20
275.0971088875133
 30
0.0
  0
VERTEX
  5
6AD
  8
NAVN
 10
2265.566098864212
 20
275.0249031612256
 30
0.0
  0
VERTEX
  5
6AE
  8
NAVN
 10
2265.670817058787
 20
274.9500977588561
 30
0.0
  0
VERTEX
  5
6AF
  8
NAVN
 10
2265.773485326282
 20
274.8727427526954
 30
0.0
  0
VERTEX
  5
6B0
  8
NAVN
 10
2265.874060975131
 20
274.7928882150337
 30
0.0
  0
VERTEX
  5
6B1
  8
NAVN
 10
2265.972501313765
 20
274.7105842181609
 30
0.0
  0
VERTEX
  5
6B2
  8
NAVN
 10
2266.068763650616
 20
274.6258808343678
 30
0.0
  0
VERTEX
  5
6B3
  8
NAVN
 10
2266.162805294116
 20
274.5388281359441
 30
0.0
  0
VERTEX
  5
6B4
  8
NAVN
 10
2266.254583552696
 20
274.4494761951793
 30
0.0
  0
VERTEX
  5
6B5
  8
NAVN
 10
2266.34405573479
 20
274.3578750843649
 30
0.0
  0
VERTEX
  5
6B6
  8
NAVN
 10
2266.431179148828
 20
274.2640748757906
 30
0.0
  0
VERTEX
  5
6B7
  8
NAVN
 10
2266.515911103243
 20
274.1681256417463
 30
0.0
  0
VERTEX
  5
6B8
  8
NAVN
 10
2266.598208906466
 20
274.0700774545224
 30
0.0
  0
VERTEX
  5
6B9
  8
NAVN
 10
2266.67802986693
 20
273.9699803864091
 30
0.0
  0
VERTEX
  5
6BA
  8
NAVN
 10
2266.755331293066
 20
273.8678845096964
 30
0.0
  0
VERTEX
  5
6BB
  8
NAVN
 10
2266.830070493306
 20
273.7638398966747
 30
0.0
  0
VERTEX
  5
6BC
  8
NAVN
 10
2266.902204776082
 20
273.6578966196348
 30
0.0
  0
VERTEX
  5
6BD
  8
NAVN
 10
2266.971691449827
 20
273.5501047508654
 30
0.0
  0
VERTEX
  5
6BE
  8
NAVN
 10
2267.038487822971
 20
273.4405143626577
 30
0.0
  0
VERTEX
  5
6BF
  8
NAVN
 10
2267.102551203948
 20
273.3291755273015
 30
0.0
  0
VERTEX
  5
6C0
  8
NAVN
 10
2267.163838901188
 20
273.2161383170877
 30
0.0
  0
VERTEX
  5
6C1
  8
NAVN
 10
2267.222308223123
 20
273.1014528043054
 30
0.0
  0
VERTEX
  5
6C2
  8
NAVN
 10
2267.277916478188
 20
272.9851690612457
 30
0.0
  0
VERTEX
  5
6C3
  8
NAVN
 10
2267.330620974811
 20
272.867337160198
 30
0.0
  0
VERTEX
  5
6C4
  8
NAVN
 10
2267.380379021425
 20
272.7480071734531
 30
0.0
  0
VERTEX
  5
6C5
  8
NAVN
 10
2267.427147926463
 20
272.6272291733013
 30
0.0
  0
VERTEX
  5
6C6
  8
NAVN
 10
2267.470884998357
 20
272.505053232032
 30
0.0
  0
VERTEX
  5
6C7
  8
NAVN
 10
2267.511547545538
 20
272.3815294219364
 30
0.0
  0
VERTEX
  5
6C8
  8
NAVN
 10
2267.548436759854
 20
272.2705999427172
 30
0.0
  0
VERTEX
  5
6C9
  8
NAVN
 10
2267.582673516404
 20
272.1590194141493
 30
0.0
  0
VERTEX
  5
6CA
  8
NAVN
 10
2267.614259724938
 20
272.0468373215097
 30
0.0
  0
VERTEX
  5
6CB
  8
NAVN
 10
2267.64319729521
 20
271.9341031500741
 30
0.0
  0
VERTEX
  5
6CC
  8
NAVN
 10
2267.66948813697
 20
271.8208663851192
 30
0.0
  0
VERTEX
  5
6CD
  8
NAVN
 10
2267.693134159971
 20
271.7071765119202
 30
0.0
  0
VERTEX
  5
6CE
  8
NAVN
 10
2267.714137273966
 20
271.5930830157548
 30
0.0
  0
VERTEX
  5
6CF
  8
NAVN
 10
2267.732499388706
 20
271.4786353818978
 30
0.0
  0
VERTEX
  5
6D0
  8
NAVN
 10
2267.748222413943
 20
271.3638830956264
 30
0.0
  0
VERTEX
  5
6D1
  8
NAVN
 10
2267.761308259429
 20
271.2488756422162
 30
0.0
  0
VERTEX
  5
6D2
  8
NAVN
 10
2267.771758834917
 20
271.1336625069443
 30
0.0
  0
VERTEX
  5
6D3
  8
NAVN
 10
2267.779576050158
 20
271.0182931750861
 30
0.0
  0
VERTEX
  5
6D4
  8
NAVN
 10
2267.784761814905
 20
270.902817131918
 30
0.0
  0
VERTEX
  5
6D5
  8
NAVN
 10
2267.787318038909
 20
270.7872838627164
 30
0.0
  0
VERTEX
  5
6D6
  8
NAVN
 10
2267.787246631922
 20
270.6717428527572
 30
0.0
  0
VERTEX
  5
6D7
  8
NAVN
 10
2267.784549503698
 20
270.5562435873176
 30
0.0
  0
VERTEX
  5
6D8
  8
NAVN
 10
2267.779228563987
 20
270.4408355516726
 30
0.0
  0
VERTEX
  5
6D9
  8
NAVN
 10
2267.771285722542
 20
270.325568231099
 30
0.0
  0
VERTEX
  5
6DA
  8
NAVN
 10
2267.760722889115
 20
270.2104911108735
 30
0.0
  0
VERTEX
  5
6DB
  8
NAVN
 10
2267.747541973458
 20
270.0956536762708
 30
0.0
  0
VERTEX
  5
6DC
  8
NAVN
 10
2267.731744885322
 20
269.9811054125688
 30
0.0
  0
VERTEX
  5
6DD
  8
NAVN
 10
2267.713333534462
 20
269.8668958050437
 30
0.0
  0
VERTEX
  5
6DE
  8
NAVN
 10
2267.692309830627
 20
269.7530743389703
 30
0.0
  0
VERTEX
  5
6DF
  8
NAVN
 10
2267.66867568357
 20
269.6396904996263
 30
0.0
  0
VERTEX
  5
6E0
  8
NAVN
 10
2267.642433003043
 20
269.5267937722868
 30
0.0
  0
VERTEX
  5
6E1
  8
NAVN
 10
2267.613583698799
 20
269.4144336422279
 30
0.0
  0
VERTEX
  5
6E2
  8
NAVN
 10
2267.582129680588
 20
269.3026595947277
 30
0.0
  0
VERTEX
  5
6E3
  8
NAVN
 10
2267.548072858165
 20
269.1915211150605
 30
0.0
  0
VERTEX
  5
6E4
  8
NAVN
 10
2267.511415141279
 20
269.0810676885035
 30
0.0
  0
VERTEX
  5
6E5
  8
NAVN
 10
2267.472158439685
 20
268.9713488003324
 30
0.0
  0
VERTEX
  5
6E6
  8
NAVN
 10
2267.430304663132
 20
268.8624139358238
 30
0.0
  0
VERTEX
  5
6E7
  8
NAVN
 10
2267.385855721376
 20
268.754312580254
 30
0.0
  0
VERTEX
  5
6E8
  8
NAVN
 10
2261.982560614136
 20
255.5649635831861
 30
0.0
  0
VERTEX
  5
6E9
  8
NAVN
 10
2271.977849749679
 20
258.9163252345152
 30
0.0
  0
SEQEND
  5
6EA
  8
NAVN
  0
LINE
  5
6EB
  8
NAVN
 10
2275.667260641406
 20
261.3174002717065
 30
0.0
 11
2276.018112024751
 21
260.271001409098
 31
0.0
  0
POLYLINE
  5
6EC
  8
NAVN
 66
     1
 10
0.0
 20
0.0
 30
0.0
  0
VERTEX
  5
6ED
  8
NAVN
 10
2275.7009864871
 20
275.1759016786892
 30
0.0
  0
VERTEX
  5
6EE
  8
NAVN
 10
2275.660949321757
 20
275.2979693902391
 30
0.0
  0
VERTEX
  5
6EF
  8
NAVN
 10
2275.624198038761
 20
275.4207737351624
 30
0.0
  0
VERTEX
  5
6F0
  8
NAVN
 10
2275.590727652408
 20
275.5442479151857
 30
0.0
  0
VERTEX
  5
6F1
  8
NAVN
 10
2275.560533176991
 20
275.6683251320335
 30
0.0
  0
VERTEX
  5
6F2
  8
NAVN
 10
2275.533609626808
 20
275.7929385874314
 30
0.0
  0
VERTEX
  5
6F3
  8
NAVN
 10
2275.509952016151
 20
275.9180214831062
 30
0.0
  0
VERTEX
  5
6F4
  8
NAVN
 10
2275.489555359316
 20
276.043507020782
 30
0.0
  0
VERTEX
  5
6F5
  8
NAVN
 10
2275.472414670597
 20
276.1693284021854
 30
0.0
  0
VERTEX
  5
6F6
  8
NAVN
 10
2275.45852496429
 20
276.2954188290409
 30
0.0
  0
VERTEX
  5
6F7
  8
NAVN
 10
2275.44788125469
 20
276.4217115030755
 30
0.0
  0
VERTEX
  5
6F8
  8
NAVN
 10
2275.440478556091
 20
276.5481396260139
 30
0.0
  0
VERTEX
  5
6F9
  8
NAVN
 10
2275.436311882787
 20
276.6746363995819
 30
0.0
  0
VERTEX
  5
6FA
  8
NAVN
 10
2275.435376249074
 20
276.8011350255047
 30
0.0
  0
VERTEX
  5
6FB
  8
NAVN
 10
2275.437666669248
 20
276.9275687055086
 30
0.0
  0
VERTEX
  5
6FC
  8
NAVN
 10
2275.443178157601
 20
277.0538706413188
 30
0.0
  0
VERTEX
  5
6FD
  8
NAVN
 10
2275.451905728429
 20
277.1799740346607
 30
0.0
  0
VERTEX
  5
6FE
  8
NAVN
 10
2275.463844396028
 20
277.3058120872602
 30
0.0
  0
VERTEX
  5
6FF
  8
NAVN
 10
2275.478989174691
 20
277.4313180008426
 30
0.0
  0
VERTEX
  5
700
  8
NAVN
 10
2275.497335078714
 20
277.556424977134
 30
0.0
  0
VERTEX
  5
701
  8
NAVN
 10
2275.518877122393
 20
277.681066217859
 30
0.0
  0
VERTEX
  5
702
  8
NAVN
 10
2275.54361032002
 20
277.8051749247446
 30
0.0
  0
VERTEX
  5
703
  8
NAVN
 10
2275.571529685891
 20
277.9286842995149
 30
0.0
  0
VERTEX
  5
704
  8
NAVN
 10
2275.602630234302
 20
278.0515275438967
 30
0.0
  0
VERTEX
  5
705
  8
NAVN
 10
2275.636906979546
 20
278.1736378596145
 30
0.0
  0
VERTEX
  5
706
  8
NAVN
 10
2275.67435493592
 20
278.294948448395
 30
0.0
  0
VERTEX
  5
707
  8
NAVN
 10
2275.714969117716
 20
278.4153925119634
 30
0.0
  0
VERTEX
  5
708
  8
NAVN
 10
2275.758744539231
 20
278.5349032520441
 30
0.0
  0
VERTEX
  5
709
  8
NAVN
 10
2275.80567621476
 20
278.653413870364
 30
0.0
  0
VERTEX
  5
70A
  8
NAVN
 10
2275.855759158596
 20
278.7708575686488
 30
0.0
  0
VERTEX
  5
70B
  8
NAVN
 10
2275.908988385035
 20
278.8871675486232
 30
0.0
  0
VERTEX
  5
70C
  8
NAVN
 10
2275.965358908371
 20
279.0022770120133
 30
0.0
  0
VERTEX
  5
70D
  8
NAVN
 10
2276.0248657429
 20
279.1161191605447
 30
0.0
  0
VERTEX
  5
70E
  8
NAVN
 10
2276.083129696701
 20
279.2300604107289
 30
0.0
  0
VERTEX
  5
70F
  8
NAVN
 10
2276.144155462445
 20
279.3422421948597
 30
0.0
  0
VERTEX
  5
710
  8
NAVN
 10
2276.207894740625
 20
279.4526231558487
 30
0.0
  0
VERTEX
  5
711
  8
NAVN
 10
2276.274299231734
 20
279.5611619366062
 30
0.0
  0
VERTEX
  5
712
  8
NAVN
 10
2276.343320636263
 20
279.6678171800419
 30
0.0
  0
VERTEX
  5
713
  8
NAVN
 10
2276.414910654704
 20
279.772547529066
 30
0.0
  0
VERTEX
  5
714
  8
NAVN
 10
2276.489020987548
 20
279.8753116265898
 30
0.0
  0
VERTEX
  5
715
  8
NAVN
 10
2276.565603335289
 20
279.9760681155225
 30
0.0
  0
VERTEX
  5
716
  8
NAVN
 10
2276.644609398417
 20
280.0747756387753
 30
0.0
  0
VERTEX
  5
717
  8
NAVN
 10
2276.725990877425
 20
280.1713928392576
 30
0.0
  0
VERTEX
  5
718
  8
NAVN
 10
2276.809699472806
 20
280.2658783598803
 30
0.0
  0
VERTEX
  5
719
  8
NAVN
 10
2276.89568688505
 20
280.3581908435542
 30
0.0
  0
VERTEX
  5
71A
  8
NAVN
 10
2276.983904814649
 20
280.4482889331879
 30
0.0
  0
VERTEX
  5
71B
  8
NAVN
 10
2277.074304962096
 20
280.536131271693
 30
0.0
  0
VERTEX
  5
71C
  8
NAVN
 10
2277.166839027884
 20
280.6216765019799
 30
0.0
  0
VERTEX
  5
71D
  8
NAVN
 10
2277.261458712502
 20
280.7048832669589
 30
0.0
  0
VERTEX
  5
71E
  8
NAVN
 10
2277.358115716443
 20
280.7857102095396
 30
0.0
  0
VERTEX
  5
71F
  8
NAVN
 10
2277.456761740201
 20
280.8641159726329
 30
0.0
  0
VERTEX
  5
720
  8
NAVN
 10
2277.557348484266
 20
280.9400591991484
 30
0.0
  0
VERTEX
  5
721
  8
NAVN
 10
2277.65982764913
 20
281.0134985319971
 30
0.0
  0
VERTEX
  5
722
  8
NAVN
 10
2277.764150935285
 20
281.0843926140893
 30
0.0
  0
VERTEX
  5
723
  8
NAVN
 10
2277.870270043224
 20
281.1527000883349
 30
0.0
  0
VERTEX
  5
724
  8
NAVN
 10
2277.978136673438
 20
281.2183795976444
 30
0.0
  0
VERTEX
  5
725
  8
NAVN
 10
2278.08770252642
 20
281.2813897849285
 30
0.0
  0
VERTEX
  5
726
  8
NAVN
 10
2278.19891930266
 20
281.3416892930971
 30
0.0
  0
VERTEX
  5
727
  8
NAVN
 10
2278.311738702651
 20
281.3992367650597
 30
0.0
  0
VERTEX
  5
728
  8
NAVN
 10
2278.426112426885
 20
281.453990843728
 30
0.0
  0
VERTEX
  5
729
  8
NAVN
 10
2278.541992175855
 20
281.5059101720113
 30
0.0
  0
VERTEX
  5
72A
  8
NAVN
 10
2278.659329650052
 20
281.5549533928207
 30
0.0
  0
VERTEX
  5
72B
  8
NAVN
 10
2278.778076549967
 20
281.6010791490665
 30
0.0
  0
VERTEX
  5
72C
  8
NAVN
 10
2278.898184576093
 20
281.6442460836581
 30
0.0
  0
VERTEX
  5
72D
  8
NAVN
 10
2279.019605428922
 20
281.684412839506
 30
0.0
  0
VERTEX
  5
72E
  8
NAVN
 10
2279.139501762162
 20
281.7265358428334
 30
0.0
  0
VERTEX
  5
72F
  8
NAVN
 10
2279.26019337408
 20
281.7654614542094
 30
0.0
  0
VERTEX
  5
730
  8
NAVN
 10
2279.381615466161
 20
281.8011931096223
 30
0.0
  0
VERTEX
  5
731
  8
NAVN
 10
2279.503703239891
 20
281.8337342450619
 30
0.0
  0
VERTEX
  5
732
  8
NAVN
 10
2279.626391896757
 20
281.8630882965147
 30
0.0
  0
VERTEX
  5
733
  8
NAVN
 10
2279.749616638245
 20
281.8892586999705
 30
0.0
  0
VERTEX
  5
734
  8
NAVN
 10
2279.873312665842
 20
281.9122488914167
 30
0.0
  0
VERTEX
  5
735
  8
NAVN
 10
2279.997415181035
 20
281.9320623068411
 30
0.0
  0
VERTEX
  5
736
  8
NAVN
 10
2280.121859385309
 20
281.948702382234
 30
0.0
  0
VERTEX
  5
737
  8
NAVN
 10
2280.246580480151
 20
281.962172553582
 30
0.0
  0
VERTEX
  5
738
  8
NAVN
 10
2280.371513667047
 20
281.9724762568744
 30
0.0
  0
VERTEX
  5
739
  8
NAVN
 10
2280.496594147486
 20
281.979616928099
 30
0.0
  0
VERTEX
  5
73A
  8
NAVN
 10
2280.621757122952
 20
281.9835980032445
 30
0.0
  0
VERTEX
  5
73B
  8
NAVN
 10
2280.746937794931
 20
281.9844229182983
 30
0.0
  0
VERTEX
  5
73C
  8
NAVN
 10
2280.872071364911
 20
281.9820951092505
 30
0.0
  0
VERTEX
  5
73D
  8
NAVN
 10
2280.997093034378
 20
281.9766180120878
 30
0.0
  0
VERTEX
  5
73E
  8
NAVN
 10
2281.121938004818
 20
281.967995062799
 30
0.0
  0
VERTEX
  5
73F
  8
NAVN
 10
2281.246541477718
 20
281.9562296973732
 30
0.0
  0
VERTEX
  5
740
  8
NAVN
 10
2281.370838654564
 20
281.9413253517976
 30
0.0
  0
VERTEX
  5
741
  8
NAVN
 10
2281.494764736843
 20
281.9232854620616
 30
0.0
  0
VERTEX
  5
742
  8
NAVN
 10
2281.61825492604
 20
281.9021134641527
 30
0.0
  0
VERTEX
  5
743
  8
NAVN
 10
2281.741244423644
 20
281.8778127940598
 30
0.0
  0
VERTEX
  5
744
  8
NAVN
 10
2281.863668431139
 20
281.850386887771
 30
0.0
  0
VERTEX
  5
745
  8
NAVN
 10
2281.985462150013
 20
281.8198391812745
 30
0.0
  0
VERTEX
  5
746
  8
NAVN
 10
2282.106560781752
 20
281.7861731105584
 30
0.0
  0
VERTEX
  5
747
  8
NAVN
 10
2282.226899527842
 20
281.7493921116119
 30
0.0
  0
VERTEX
  5
748
  8
NAVN
 10
2282.34641358977
 20
281.7094996204224
 30
0.0
  0
VERTEX
  5
749
  8
NAVN
 10
2282.465038169022
 20
281.6664990729792
 30
0.0
  0
VERTEX
  5
74A
  8
NAVN
 10
2282.582708467085
 20
281.6203939052699
 30
0.0
  0
VERTEX
  5
74B
  8
NAVN
 10
2282.699359685446
 20
281.5711875532831
 30
0.0
  0
VERTEX
  5
74C
  8
NAVN
 10
2282.814927025589
 20
281.5188834530068
 30
0.0
  0
VERTEX
  5
74D
  8
NAVN
 10
2282.929345689003
 20
281.4634850404296
 30
0.0
  0
VERTEX
  5
74E
  8
NAVN
 10
2283.04546692312
 20
281.405028778902
 30
0.0
  0
VERTEX
  5
74F
  8
NAVN
 10
2283.159794379567
 20
281.3437224798418
 30
0.0
  0
VERTEX
  5
750
  8
NAVN
 10
2283.272285366775
 20
281.2796162155394
 30
0.0
  0
VERTEX
  5
751
  8
NAVN
 10
2283.382897193178
 20
281.2127600582854
 30
0.0
  0
VERTEX
  5
752
  8
NAVN
 10
2283.491587167205
 20
281.143204080369
 30
0.0
  0
VERTEX
  5
753
  8
NAVN
 10
2283.598312597291
 20
281.0709983540809
 30
0.0
  0
VERTEX
  5
754
  8
NAVN
 10
2283.703030791865
 20
280.9961929517119
 30
0.0
  0
VERTEX
  5
755
  8
NAVN
 10
2283.80569905936
 20
280.9188379455512
 30
0.0
  0
VERTEX
  5
756
  8
NAVN
 10
2283.90627470821
 20
280.8389834078894
 30
0.0
  0
VERTEX
  5
757
  8
NAVN
 10
2284.004715046843
 20
280.7566794110167
 30
0.0
  0
VERTEX
  5
758
  8
NAVN
 10
2284.100977383694
 20
280.671976027223
 30
0.0
  0
VERTEX
  5
759
  8
NAVN
 10
2284.195019027194
 20
280.5849233287993
 30
0.0
  0
VERTEX
  5
75A
  8
NAVN
 10
2284.286797285775
 20
280.495571388035
 30
0.0
  0
VERTEX
  5
75B
  8
NAVN
 10
2284.376269467868
 20
280.4039702772205
 30
0.0
  0
VERTEX
  5
75C
  8
NAVN
 10
2284.463392881906
 20
280.3101700686463
 30
0.0
  0
VERTEX
  5
75D
  8
NAVN
 10
2284.548124836321
 20
280.214220834602
 30
0.0
  0
VERTEX
  5
75E
  8
NAVN
 10
2284.630422639544
 20
280.1161726473784
 30
0.0
  0
VERTEX
  5
75F
  8
NAVN
 10
2284.710243600008
 20
280.0160755792646
 30
0.0
  0
VERTEX
  5
760
  8
NAVN
 10
2284.787545026144
 20
279.9139797025524
 30
0.0
  0
VERTEX
  5
761
  8
NAVN
 10
2284.862284226384
 20
279.8099350895304
 30
0.0
  0
VERTEX
  5
762
  8
NAVN
 10
2284.93441850916
 20
279.70399181249
 30
0.0
  0
VERTEX
  5
763
  8
NAVN
 10
2285.003905182905
 20
279.5961999437209
 30
0.0
  0
VERTEX
  5
764
  8
NAVN
 10
2285.070701556049
 20
279.4866095555132
 30
0.0
  0
VERTEX
  5
765
  8
NAVN
 10
2285.134764937026
 20
279.3752707201571
 30
0.0
  0
VERTEX
  5
766
  8
NAVN
 10
2285.196052634266
 20
279.2622335099427
 30
0.0
  0
VERTEX
  5
767
  8
NAVN
 10
2285.254521956201
 20
279.147547997161
 30
0.0
  0
VERTEX
  5
768
  8
NAVN
 10
2285.310130211266
 20
279.031264254101
 30
0.0
  0
VERTEX
  5
769
  8
NAVN
 10
2285.362834707889
 20
278.9134323530537
 30
0.0
  0
VERTEX
  5
76A
  8
NAVN
 10
2285.412592754504
 20
278.7941023663089
 30
0.0
  0
VERTEX
  5
76B
  8
NAVN
 10
2285.459361659542
 20
278.6733243661565
 30
0.0
  0
VERTEX
  5
76C
  8
NAVN
 10
2285.503098731435
 20
278.5511484248876
 30
0.0
  0
VERTEX
  5
76D
  8
NAVN
 10
2285.543761278616
 20
278.4276246147919
 30
0.0
  0
VERTEX
  5
76E
  8
NAVN
 10
2285.580650492933
 20
278.3166951355725
 30
0.0
  0
VERTEX
  5
76F
  8
NAVN
 10
2285.614887249482
 20
278.2051146070049
 30
0.0
  0
VERTEX
  5
770
  8
NAVN
 10
2285.646473458017
 20
278.0929325143653
 30
0.0
  0
VERTEX
  5
771
  8
NAVN
 10
2285.675411028288
 20
277.9801983429299
 30
0.0
  0
VERTEX
  5
772
  8
NAVN
 10
2285.701701870048
 20
277.8669615779746
 30
0.0
  0
VERTEX
  5
773
  8
NAVN
 10
2285.72534789305
 20
277.753271704776
 30
0.0
  0
VERTEX
  5
774
  8
NAVN
 10
2285.746351007045
 20
277.6391782086103
 30
0.0
  0
VERTEX
  5
775
  8
NAVN
 10
2285.764713121783
 20
277.5247305747533
 30
0.0
  0
VERTEX
  5
776
  8
NAVN
 10
2285.780436147021
 20
277.4099782884817
 30
0.0
  0
VERTEX
  5
777
  8
NAVN
 10
2285.793521992507
 20
277.294970835072
 30
0.0
  0
VERTEX
  5
778
  8
NAVN
 10
2285.803972567995
 20
277.1797576997997
 30
0.0
  0
VERTEX
  5
779
  8
NAVN
 10
2285.811789783236
 20
277.0643883679411
 30
0.0
  0
VERTEX
  5
77A
  8
NAVN
 10
2285.816975547983
 20
276.9489123247734
 30
0.0
  0
VERTEX
  5
77B
  8
NAVN
 10
2285.819531771987
 20
276.8333790555719
 30
0.0
  0
VERTEX
  5
77C
  8
NAVN
 10
2285.819460365001
 20
276.7178380456128
 30
0.0
  0
VERTEX
  5
77D
  8
NAVN
 10
2285.816763236776
 20
276.6023387801727
 30
0.0
  0
VERTEX
  5
77E
  8
NAVN
 10
2285.811442297065
 20
276.4869307445284
 30
0.0
  0
VERTEX
  5
77F
  8
NAVN
 10
2285.80349945562
 20
276.3716634239547
 30
0.0
  0
VERTEX
  5
780
  8
NAVN
 10
2285.792936622193
 20
276.2565863037291
 30
0.0
  0
VERTEX
  5
781
  8
NAVN
 10
2285.779755706537
 20
276.1417488691268
 30
0.0
  0
VERTEX
  5
782
  8
NAVN
 10
2285.763958618401
 20
276.0272006054245
 30
0.0
  0
VERTEX
  5
783
  8
NAVN
 10
2285.74554726754
 20
275.9129909978993
 30
0.0
  0
VERTEX
  5
784
  8
NAVN
 10
2285.724523563705
 20
275.7991695318258
 30
0.0
  0
VERTEX
  5
785
  8
NAVN
 10
2285.700889416647
 20
275.6857856924813
 30
0.0
  0
VERTEX
  5
786
  8
NAVN
 10
2285.674646736121
 20
275.5728889651419
 30
0.0
  0
VERTEX
  5
787
  8
NAVN
 10
2285.645797431876
 20
275.4605288350841
 30
0.0
  0
VERTEX
  5
788
  8
NAVN
 10
2285.614343413667
 20
275.348754787583
 30
0.0
  0
VERTEX
  5
789
  8
NAVN
 10
2285.580286591243
 20
275.2376163079162
 30
0.0
  0
VERTEX
  5
78A
  8
NAVN
 10
2285.543628874357
 20
275.1271628813593
 30
0.0
  0
VERTEX
  5
78B
  8
NAVN
 10
2285.504372172763
 20
275.0174439931886
 30
0.0
  0
VERTEX
  5
78C
  8
NAVN
 10
2285.462518396211
 20
274.9085091286799
 30
0.0
  0
VERTEX
  5
78D
  8
NAVN
 10
2285.418069454453
 20
274.8004077731097
 30
0.0
  0
VERTEX
  5
78E
  8
NAVN
 10
2280.014774347215
 20
261.6110587760421
 30
0.0
  0
VERTEX
  5
78F
  8
NAVN
 10
2290.010063482757
 20
264.962420427371
 30
0.0
  0
SEQEND
  5
790
  8
NAVN
  0
ENDSEC
  0
EOF
